Pretension2-Regular.ufo
<glyph name="exclam" format="2">
  <advance width="608"/>
  <unicode hex="0021"/>
  <outline>
    <contour>
      <point x="219" y="480" type="line"/>
      <point x="207" y="1490" type="line"/>
      <point x="401" y="1490" type="line"/>
      <point x="389" y="480" type="line"/>
    </contour>
    <contour>
      <point x="304" y="-12" type="qcurve" smooth="yes"/>
      <point x="250" y="-12"/>
      <point x="173" y="65"/>
      <point x="173" y="119" type="qcurve" smooth="yes"/>
      <point x="173" y="173"/>
      <point x="250" y="250"/>
      <point x="304" y="250" type="qcurve" smooth="yes"/>
      <point x="358" y="250"/>
      <point x="435" y="173"/>
      <point x="435" y="119" type="qcurve" smooth="yes"/>
      <point x="435" y="65"/>
      <point x="358" y="-12"/>
    </contour>
  </outline>
</glyph>
<glyph name="numbersign" format="2">
  <advance width="1292"/>
  <unicode hex="0023"/>
  <outline>
    <contour>
      <point x="712" y="0" type="line"/>
      <point x="958" y="1490" type="line"/>
      <point x="1102" y="1490" type="line"/>
      <point x="858" y="0" type="line"/>
    </contour>
    <contour>
      <point x="34" y="414" type="line"/>
      <point x="58" y="558" type="line"/>
      <point x="1170" y="558" type="line"/>
      <point x="1146" y="414" type="line"/>
    </contour>
    <contour>
      <point x="190" y="0" type="line"/>
      <point x="434" y="1490" type="line"/>
      <point x="578" y="1490" type="line"/>
      <point x="334" y="0" type="line"/>
    </contour>
    <contour>
      <point x="122" y="930" type="line"/>
      <point x="146" y="1076" type="line"/>
      <point x="1256" y="1076" type="line"/>
      <point x="1234" y="930" type="line"/>
    </contour>
  </outline>
</glyph>
<glyph name="dollar" format="2">
  <advance width="1314"/>
  <unicode hex="0024"/>
  <anchor x="786" y="0" name="m.uni0326"/>
  <anchor x="793" y="1490" name="m.uni030F_1"/>
  <anchor x="779" y="0" name="m.uni0327_3"/>
  <outline>
    <contour>
      <point x="597" y="-218" type="line"/>
      <point x="597" y="1708" type="line"/>
      <point x="717" y="1708" type="line"/>
      <point x="717" y="-218" type="line"/>
    </contour>
    <contour>
      <point x="657" y="-26" type="curve" smooth="yes"/>
      <point x="550" y="-26"/>
      <point x="457" y="-9"/>
      <point x="378" y="26" type="curve" smooth="yes"/>
      <point x="220" y="95"/>
      <point x="128" y="223"/>
      <point x="116" y="390" type="curve"/>
      <point x="311" y="390" type="line"/>
      <point x="316" y="334"/>
      <point x="335" y="288"/>
      <point x="368" y="252" type="curve" smooth="yes"/>
      <point x="433" y="179"/>
      <point x="541" y="144"/>
      <point x="657" y="144" type="curve" smooth="yes"/>
      <point x="724" y="144"/>
      <point x="785" y="155"/>
      <point x="839" y="177" type="curve" smooth="yes"/>
      <point x="946" y="221"/>
      <point x="1013" y="304"/>
      <point x="1013" y="409" type="curve" smooth="yes"/>
      <point x="1013" y="457"/>
      <point x="1000" y="496"/>
      <point x="973" y="526" type="curve" smooth="yes"/>
      <point x="919" y="586"/>
      <point x="825" y="622"/>
      <point x="718" y="651" type="curve" smooth="yes"/>
      <point x="538" y="702" type="line" smooth="yes"/>
      <point x="418" y="736"/>
      <point x="325" y="785"/>
      <point x="258" y="848" type="curve" smooth="yes"/>
      <point x="191" y="911"/>
      <point x="158" y="992"/>
      <point x="158" y="1091" type="curve" smooth="yes"/>
      <point x="158" y="1175"/>
      <point x="181" y="1249"/>
      <point x="226" y="1312" type="curve" smooth="yes"/>
      <point x="317" y="1438"/>
      <point x="478" y="1510"/>
      <point x="670" y="1510" type="curve" smooth="yes"/>
      <point x="768" y="1510"/>
      <point x="855" y="1493"/>
      <point x="930" y="1458" type="curve" smooth="yes"/>
      <point x="1081" y="1389"/>
      <point x="1173" y="1265"/>
      <point x="1178" y="1114" type="curve"/>
      <point x="992" y="1114" type="line"/>
      <point x="983" y="1187"/>
      <point x="949" y="1243"/>
      <point x="888" y="1283" type="curve" smooth="yes"/>
      <point x="827" y="1322"/>
      <point x="753" y="1342"/>
      <point x="664" y="1342" type="curve" smooth="yes"/>
      <point x="600" y="1342"/>
      <point x="544" y="1332"/>
      <point x="496" y="1311" type="curve" smooth="yes"/>
      <point x="399" y="1269"/>
      <point x="343" y="1193"/>
      <point x="343" y="1100" type="curve" smooth="yes"/>
      <point x="343" y="1048"/>
      <point x="359" y="1006"/>
      <point x="392" y="975" type="curve"/>
      <point x="424" y="943"/>
      <point x="462" y="918"/>
      <point x="507" y="901" type="curve"/>
      <point x="551" y="883"/>
      <point x="591" y="869"/>
      <point x="627" y="859" type="curve" smooth="yes"/>
      <point x="776" y="818" type="line" smooth="yes"/>
      <point x="856" y="797"/>
      <point x="959" y="762"/>
      <point x="1047" y="700" type="curve" smooth="yes"/>
      <point x="1135" y="638"/>
      <point x="1198" y="545"/>
      <point x="1198" y="406" type="curve" smooth="yes"/>
      <point x="1198" y="325"/>
      <point x="1177" y="251"/>
      <point x="1135" y="186" type="curve" smooth="yes"/>
      <point x="1050" y="55"/>
      <point x="886" y="-26"/>
    </contour>
  </outline>
</glyph>
<glyph name="percent" format="2">
  <advance width="1913"/>
  <unicode hex="0025"/>
  <outline>
    <contour>
      <point x="208" y="1134" type="qcurve" smooth="yes"/>
      <point x="208" y="1212" type="line" smooth="yes"/>
      <point x="208" y="1294"/>
      <point x="276" y="1431"/>
      <point x="407" y="1514"/>
      <point x="501" y="1514" type="qcurve" smooth="yes"/>
      <point x="597" y="1514"/>
      <point x="726" y="1431"/>
      <point x="792" y="1294"/>
      <point x="792" y="1212" type="qcurve" smooth="yes"/>
      <point x="792" y="1134" type="line" smooth="yes"/>
      <point x="792" y="1052"/>
      <point x="725" y="914"/>
      <point x="596" y="831"/>
      <point x="501" y="831" type="qcurve" smooth="yes"/>
      <point x="406" y="831"/>
      <point x="275" y="914"/>
      <point x="208" y="1052"/>
    </contour>
    <contour>
      <point x="361" y="1212" type="qcurve" smooth="yes"/>
      <point x="361" y="1134" type="line" smooth="yes"/>
      <point x="361" y="1067"/>
      <point x="424" y="962"/>
      <point x="501" y="962" type="qcurve" smooth="yes"/>
      <point x="577" y="962"/>
      <point x="639" y="1067"/>
      <point x="639" y="1134" type="qcurve" smooth="yes"/>
      <point x="639" y="1212" type="line" smooth="yes"/>
      <point x="639" y="1278"/>
      <point x="579" y="1384"/>
      <point x="501" y="1384" type="qcurve" smooth="yes"/>
      <point x="426" y="1384"/>
      <point x="361" y="1278"/>
    </contour>
    <contour>
      <point x="1121" y="274" type="qcurve" smooth="yes"/>
      <point x="1121" y="352" type="line" smooth="yes"/>
      <point x="1121" y="434"/>
      <point x="1189" y="571"/>
      <point x="1320" y="654"/>
      <point x="1414" y="654" type="qcurve" smooth="yes"/>
      <point x="1510" y="654"/>
      <point x="1640" y="571"/>
      <point x="1705" y="434"/>
      <point x="1705" y="352" type="qcurve" smooth="yes"/>
      <point x="1705" y="274" type="line" smooth="yes"/>
      <point x="1705" y="192"/>
      <point x="1638" y="54"/>
      <point x="1509" y="-29"/>
      <point x="1414" y="-29" type="qcurve" smooth="yes"/>
      <point x="1319" y="-29"/>
      <point x="1188" y="54"/>
      <point x="1121" y="192"/>
    </contour>
    <contour>
      <point x="1274" y="352" type="qcurve" smooth="yes"/>
      <point x="1274" y="274" type="line" smooth="yes"/>
      <point x="1274" y="207"/>
      <point x="1337" y="102"/>
      <point x="1414" y="102" type="qcurve" smooth="yes"/>
      <point x="1490" y="102"/>
      <point x="1552" y="207"/>
      <point x="1552" y="274" type="qcurve" smooth="yes"/>
      <point x="1552" y="352" type="line" smooth="yes"/>
      <point x="1552" y="418"/>
      <point x="1492" y="524"/>
      <point x="1414" y="524" type="qcurve" smooth="yes"/>
      <point x="1339" y="524"/>
      <point x="1274" y="418"/>
    </contour>
    <contour>
      <point x="360" y="0" type="line"/>
      <point x="1384" y="1490" type="line"/>
      <point x="1553" y="1490" type="line"/>
      <point x="529" y="0" type="line"/>
    </contour>
  </outline>
</glyph>
<glyph name="ampersand" format="2">
  <advance width="1319"/>
  <unicode hex="0026"/>
  <outline>
    <contour>
      <point x="580" y="-20" type="curve" smooth="yes"/>
      <point x="482" y="-20"/>
      <point x="397" y="-2"/>
      <point x="326" y="34" type="curve" smooth="yes"/>
      <point x="255" y="70"/>
      <point x="200" y="119"/>
      <point x="162" y="182" type="curve" smooth="yes"/>
      <point x="123" y="245"/>
      <point x="104" y="316"/>
      <point x="104" y="396" type="curve" smooth="yes"/>
      <point x="104" y="457"/>
      <point x="117" y="511"/>
      <point x="144" y="558" type="curve" smooth="yes"/>
      <point x="197" y="651"/>
      <point x="295" y="729"/>
      <point x="414" y="817" type="curve" smooth="yes"/>
      <point x="635" y="980" type="line" smooth="yes"/>
      <point x="675" y="1009"/>
      <point x="708" y="1039"/>
      <point x="733" y="1070" type="curve" smooth="yes"/>
      <point x="758" y="1100"/>
      <point x="771" y="1139"/>
      <point x="771" y="1188" type="curve" smooth="yes"/>
      <point x="771" y="1225"/>
      <point x="755" y="1262"/>
      <point x="723" y="1297" type="curve" smooth="yes"/>
      <point x="690" y="1332"/>
      <point x="647" y="1349"/>
      <point x="594" y="1349" type="curve" smooth="yes"/>
      <point x="557" y="1349"/>
      <point x="525" y="1340"/>
      <point x="497" y="1321" type="curve" smooth="yes"/>
      <point x="440" y="1284"/>
      <point x="406" y="1222"/>
      <point x="406" y="1161" type="curve" smooth="yes"/>
      <point x="406" y="1126"/>
      <point x="416" y="1091"/>
      <point x="435" y="1056" type="curve" smooth="yes"/>
      <point x="473" y="984"/>
      <point x="536" y="912"/>
      <point x="601" y="832" type="curve" smooth="yes"/>
      <point x="1287" y="0" type="line"/>
      <point x="1070" y="0" type="line"/>
      <point x="505" y="678" type="line" smooth="yes"/>
      <point x="454" y="740"/>
      <point x="407" y="797"/>
      <point x="364" y="848" type="curve" smooth="yes"/>
      <point x="321" y="899"/>
      <point x="288" y="950"/>
      <point x="263" y="1001" type="curve" smooth="yes"/>
      <point x="238" y="1051"/>
      <point x="225" y="1105"/>
      <point x="225" y="1163" type="curve" smooth="yes"/>
      <point x="225" y="1230"/>
      <point x="240" y="1290"/>
      <point x="271" y="1341" type="curve"/>
      <point x="331" y="1444"/>
      <point x="443" y="1504"/>
      <point x="588" y="1504" type="curve" smooth="yes"/>
      <point x="663" y="1504"/>
      <point x="728" y="1490"/>
      <point x="783" y="1461" type="curve" smooth="yes"/>
      <point x="891" y="1403"/>
      <point x="952" y="1302"/>
      <point x="952" y="1189" type="curve" smooth="yes"/>
      <point x="952" y="1118"/>
      <point x="934" y="1056"/>
      <point x="898" y="1004" type="curve" smooth="yes"/>
      <point x="862" y="951"/>
      <point x="814" y="903"/>
      <point x="754" y="858" type="curve" smooth="yes"/>
      <point x="456" y="637" type="line" smooth="yes"/>
      <point x="392" y="590"/>
      <point x="348" y="543"/>
      <point x="325" y="498" type="curve" smooth="yes"/>
      <point x="301" y="452"/>
      <point x="289" y="418"/>
      <point x="289" y="397" type="curve" smooth="yes"/>
      <point x="289" y="352"/>
      <point x="301" y="309"/>
      <point x="325" y="270" type="curve" smooth="yes"/>
      <point x="373" y="190"/>
      <point x="461" y="137"/>
      <point x="577" y="137" type="curve" smooth="yes"/>
      <point x="688" y="137"/>
      <point x="799" y="187"/>
      <point x="885" y="278" type="curve" smooth="yes"/>
      <point x="971" y="369"/>
      <point x="1026" y="498"/>
      <point x="1026" y="658" type="curve"/>
      <point x="1199" y="658" type="line"/>
      <point x="1199" y="559"/>
      <point x="1188" y="478"/>
      <point x="1165" y="415" type="curve" smooth="yes"/>
      <point x="1142" y="352"/>
      <point x="1117" y="302"/>
      <point x="1088" y="265" type="curve" smooth="yes"/>
      <point x="1059" y="228"/>
      <point x="1034" y="201"/>
      <point x="1015" y="182" type="curve"/>
      <point x="1002" y="167"/>
      <point x="991" y="152"/>
      <point x="979" y="137" type="curve"/>
      <point x="930" y="84"/>
      <point x="870" y="45"/>
      <point x="797" y="19" type="curve" smooth="yes"/>
      <point x="724" y="-7"/>
      <point x="651" y="-20"/>
    </contour>
  </outline>
</glyph>
<glyph name="quotesingle" format="2">
  <advance width="606"/>
  <unicode hex="0027"/>
  <outline>
    <contour>
      <point x="231" y="928" type="line"/>
      <point x="210" y="1490" type="line"/>
      <point x="396" y="1490" type="line"/>
      <point x="375" y="928" type="line"/>
    </contour>
  </outline>
</glyph>
<glyph name="parenleft" format="2">
  <advance width="738"/>
  <unicode hex="0028"/>
  <outline>
    <contour>
      <point x="218" y="607" type="qcurve" smooth="yes"/>
      <point x="218" y="768"/>
      <point x="284" y="1124"/>
      <point x="401" y="1457"/>
      <point x="476" y="1581" type="qcurve"/>
      <point x="642" y="1581" type="line"/>
      <point x="564" y="1423"/>
      <point x="451" y="1083"/>
      <point x="390" y="752"/>
      <point x="390" y="607" type="qcurve" smooth="yes"/>
      <point x="390" y="477"/>
      <point x="443" y="205"/>
      <point x="554" y="-99"/>
      <point x="642" y="-279" type="qcurve"/>
      <point x="476" y="-279" type="line"/>
      <point x="349" y="-63"/>
      <point x="218" y="387"/>
    </contour>
  </outline>
</glyph>
<glyph name="parenright" format="2">
  <advance width="747"/>
  <unicode hex="0029"/>
  <outline>
    <contour>
      <point x="96" y="-279" type="line"/>
      <point x="185" y="-96"/>
      <point x="295" y="209"/>
      <point x="346" y="479"/>
      <point x="346" y="607" type="qcurve" smooth="yes"/>
      <point x="346" y="753"/>
      <point x="286" y="1084"/>
      <point x="174" y="1424"/>
      <point x="96" y="1581" type="qcurve"/>
      <point x="271" y="1581" type="line"/>
      <point x="346" y="1458"/>
      <point x="463" y="1127"/>
      <point x="529" y="769"/>
      <point x="529" y="607" type="qcurve" smooth="yes"/>
      <point x="529" y="384"/>
      <point x="396" y="-66"/>
      <point x="271" y="-279" type="qcurve"/>
    </contour>
  </outline>
</glyph>
<glyph name="asterisk" format="2">
  <advance width="1024"/>
  <unicode hex="002A"/>
  <outline>
    <contour>
      <point x="442" y="652" type="line"/>
      <point x="454" y="972" type="line"/>
      <point x="184" y="800" type="line"/>
      <point x="114" y="922" type="line"/>
      <point x="398" y="1070" type="line"/>
      <point x="114" y="1218" type="line"/>
      <point x="184" y="1342" type="line"/>
      <point x="454" y="1170" type="line"/>
      <point x="442" y="1490" type="line"/>
      <point x="582" y="1490" type="line"/>
      <point x="570" y="1170" type="line"/>
      <point x="840" y="1342" type="line"/>
      <point x="910" y="1218" type="line"/>
      <point x="626" y="1070" type="line"/>
      <point x="910" y="922" type="line"/>
      <point x="840" y="800" type="line"/>
      <point x="570" y="972" type="line"/>
      <point x="582" y="652" type="line"/>
    </contour>
  </outline>
</glyph>
<glyph name="plus" format="2">
  <advance width="1350"/>
  <unicode hex="002B"/>
  <outline>
    <contour>
      <point x="594" y="102" type="line"/>
      <point x="594" y="1062" type="line"/>
      <point x="756" y="1062" type="line"/>
      <point x="756" y="102" type="line"/>
    </contour>
    <contour>
      <point x="195" y="506" type="line"/>
      <point x="195" y="658" type="line"/>
      <point x="1155" y="658" type="line"/>
      <point x="1155" y="506" type="line"/>
    </contour>
  </outline>
</glyph>
<glyph name="comma.ss07" format="2">
  <advance width="590"/>
  <unicode hex="002C"/>
  <unicode hex="E2AB"/>
  <outline>
    <contour>
      <point x="178" y="-273" type="line"/>
      <point x="178" y="-176" type="line"/>
      <point x="206" y="-176" type="line" smooth="yes"/>
      <point x="252" y="-176"/>
      <point x="300" y="-97"/>
      <point x="300" y="-39" type="qcurve" smooth="yes"/>
      <point x="300" y="18" type="line"/>
      <point x="319" y="0" type="line"/>
      <point x="178" y="0" type="line"/>
      <point x="178" y="232" type="line"/>
      <point x="412" y="232" type="line"/>
      <point x="412" y="-31" type="line" smooth="yes"/>
      <point x="412" y="-144"/>
      <point x="302" y="-273"/>
      <point x="206" y="-273" type="qcurve" smooth="yes"/>
    </contour>
  </outline>
</glyph>
<glyph name="hyphen" format="2">
  <advance width="940"/>
  <unicode hex="002D"/>
  <outline>
    <contour>
      <point x="796" y="718" type="line"/>
      <point x="796" y="558" type="line"/>
      <point x="144" y="558" type="line"/>
      <point x="144" y="718" type="line"/>
    </contour>
  </outline>
</glyph>
<glyph name="period" format="2">
  <advance width="582"/>
  <unicode hex="002E"/>
  <outline>
    <contour>
      <point x="291" y="-12" type="qcurve" smooth="yes"/>
      <point x="237" y="-12"/>
      <point x="160" y="65"/>
      <point x="160" y="119" type="qcurve" smooth="yes"/>
      <point x="160" y="173"/>
      <point x="237" y="250"/>
      <point x="291" y="250" type="qcurve" smooth="yes"/>
      <point x="345" y="250"/>
      <point x="422" y="173"/>
      <point x="422" y="119" type="qcurve" smooth="yes"/>
      <point x="422" y="65"/>
      <point x="345" y="-12"/>
    </contour>
  </outline>
</glyph>
<glyph name="zero" format="2">
  <advance width="1292"/>
  <unicode hex="0030"/>
  <anchor x="816" y="1490" name="m.uni030F_1"/>
  <outline>
    <contour>
      <point x="646" y="-20" type="qcurve" smooth="yes"/>
      <point x="480" y="-20"/>
      <point x="246" y="160"/>
      <point x="122" y="501"/>
      <point x="122" y="744" type="qcurve" smooth="yes"/>
      <point x="122" y="986"/>
      <point x="247" y="1328"/>
      <point x="481" y="1510"/>
      <point x="646" y="1510" type="qcurve" smooth="yes"/>
      <point x="811" y="1510"/>
      <point x="1046" y="1328"/>
      <point x="1170" y="986"/>
      <point x="1170" y="744" type="qcurve" smooth="yes"/>
      <point x="1170" y="502"/>
      <point x="1047" y="160"/>
      <point x="813" y="-20"/>
    </contour>
    <contour>
      <point x="646" y="146" type="qcurve" smooth="yes"/>
      <point x="755" y="146"/>
      <point x="907" y="288"/>
      <point x="987" y="555"/>
      <point x="987" y="744" type="qcurve" smooth="yes"/>
      <point x="987" y="934"/>
      <point x="907" y="1203"/>
      <point x="755" y="1345"/>
      <point x="646" y="1345" type="qcurve" smooth="yes"/>
      <point x="483" y="1345"/>
      <point x="305" y="1028"/>
      <point x="305" y="744" type="qcurve" smooth="yes"/>
      <point x="305" y="555"/>
      <point x="385" y="288"/>
      <point x="537" y="146"/>
    </contour>
  </outline>
</glyph>
<glyph name="one" format="2">
  <advance width="824"/>
  <unicode hex="0031"/>
  <outline>
    <contour>
      <point x="644" y="1490" type="line"/>
      <point x="644" y="0" type="line"/>
      <point x="468" y="0" type="line"/>
      <point x="468" y="1322" type="line"/>
      <point x="458" y="1322" type="line"/>
      <point x="96" y="1053" type="line"/>
      <point x="96" y="1250" type="line"/>
      <point x="420" y="1490" type="line"/>
    </contour>
  </outline>
</glyph>
<glyph name="one.ss01" format="2">
  <advance width="824"/>
  <unicode hex="0031"/>
  <unicode hex="E06C"/>
  <outline>
    <contour>
      <point x="480" y="0" type="line"/>
      <point x="480" y="1140" type="line"/>
      <point x="502" y="1118" type="line"/>
      <point x="457" y="1118"/>
      <point x="374" y="1118"/>
      <point x="265" y="1118"/>
      <point x="80" y="1118" type="qcurve"/>
      <point x="80" y="1268" type="line"/>
      <point x="206" y="1268" type="line" smooth="yes"/>
      <point x="298" y="1268"/>
      <point x="421" y="1315"/>
      <point x="491" y="1413"/>
      <point x="502" y="1490" type="qcurve"/>
      <point x="654" y="1490" type="line"/>
      <point x="654" y="0" type="line"/>
    </contour>
  </outline>
</glyph>
<glyph name="two" format="2">
  <advance width="1249"/>
  <unicode hex="0032"/>
  <anchor x="798" y="1490" name="m.uni030F_1"/>
  <outline>
    <contour>
      <point x="154" y="0" type="line"/>
      <point x="154" y="137" type="line"/>
      <point x="649" y="674" type="line" smooth="yes"/>
      <point x="704" y="734"/>
      <point x="750" y="787"/>
      <point x="787" y="832" type="curve" smooth="yes"/>
      <point x="824" y="877"/>
      <point x="851" y="921"/>
      <point x="870" y="962" type="curve" smooth="yes"/>
      <point x="889" y="1003"/>
      <point x="898" y="1046"/>
      <point x="898" y="1092" type="curve" smooth="yes"/>
      <point x="898" y="1144"/>
      <point x="886" y="1189"/>
      <point x="861" y="1227" type="curve" smooth="yes"/>
      <point x="812" y="1303"/>
      <point x="725" y="1345"/>
      <point x="618" y="1345" type="curve" smooth="yes"/>
      <point x="561" y="1345"/>
      <point x="512" y="1334"/>
      <point x="471" y="1311" type="curve" smooth="yes"/>
      <point x="387" y="1265"/>
      <point x="340" y="1179"/>
      <point x="340" y="1067" type="curve"/>
      <point x="158" y="1067" type="line"/>
      <point x="158" y="1155"/>
      <point x="178" y="1232"/>
      <point x="219" y="1299" type="curve" smooth="yes"/>
      <point x="300" y="1432"/>
      <point x="446" y="1510"/>
      <point x="623" y="1510" type="curve" smooth="yes"/>
      <point x="712" y="1510"/>
      <point x="790" y="1492"/>
      <point x="859" y="1455" type="curve" smooth="yes"/>
      <point x="995" y="1381"/>
      <point x="1078" y="1250"/>
      <point x="1078" y="1094" type="curve" smooth="yes"/>
      <point x="1078" y="1040"/>
      <point x="1068" y="988"/>
      <point x="1049" y="937" type="curve" smooth="yes"/>
      <point x="1030" y="886"/>
      <point x="996" y="828"/>
      <point x="947" y="763" type="curve" smooth="yes"/>
      <point x="898" y="698"/>
      <point x="830" y="619"/>
      <point x="742" y="526" type="curve" smooth="yes"/>
      <point x="416" y="179" type="line"/>
      <point x="416" y="167" type="line"/>
      <point x="1103" y="167" type="line"/>
      <point x="1103" y="0" type="line"/>
    </contour>
  </outline>
</glyph>
<glyph name="three.ss01" format="2">
  <advance width="1319"/>
  <unicode hex="0033"/>
  <unicode hex="E06D"/>
  <anchor x="795" y="1490" name="m.uni030F_1"/>
  <outline>
    <contour>
      <point x="661" y="-20" type="curve" smooth="yes"/>
      <point x="572" y="-20"/>
      <point x="489" y="-4"/>
      <point x="414" y="27" type="curve" smooth="yes"/>
      <point x="263" y="90"/>
      <point x="164" y="209"/>
      <point x="152" y="376" type="curve"/>
      <point x="346" y="376" type="line"/>
      <point x="351" y="327"/>
      <point x="369" y="285"/>
      <point x="398" y="251" type="curve" smooth="yes"/>
      <point x="456" y="182"/>
      <point x="552" y="147"/>
      <point x="664" y="147" type="curve" smooth="yes"/>
      <point x="725" y="147"/>
      <point x="779" y="157"/>
      <point x="828" y="178" type="curve" smooth="yes"/>
      <point x="925" y="219"/>
      <point x="986" y="301"/>
      <point x="986" y="421" type="curve" smooth="yes"/>
      <point x="986" y="474"/>
      <point x="974" y="524"/>
      <point x="949" y="569" type="curve" smooth="yes"/>
      <point x="899" y="660"/>
      <point x="792" y="721"/>
      <point x="612" y="721" type="curve" smooth="yes"/>
      <point x="490" y="721" type="line"/>
      <point x="490" y="872" type="line"/>
      <point x="867" y="1311" type="line"/>
      <point x="867" y="1323" type="line"/>
      <point x="226" y="1323" type="line"/>
      <point x="226" y="1490" type="line"/>
      <point x="1117" y="1490" type="line"/>
      <point x="1117" y="1351" type="line"/>
      <point x="647" y="810" type="line"/>
      <point x="647" y="841" type="line"/>
      <point x="756" y="852"/>
      <point x="849" y="840"/>
      <point x="928" y="803" type="curve" smooth="yes"/>
      <point x="1007" y="766"/>
      <point x="1068" y="714"/>
      <point x="1111" y="647" type="curve" smooth="yes"/>
      <point x="1154" y="579"/>
      <point x="1175" y="503"/>
      <point x="1175" y="420" type="curve" smooth="yes"/>
      <point x="1175" y="335"/>
      <point x="1153" y="259"/>
      <point x="1109" y="193" type="curve" smooth="yes"/>
      <point x="1065" y="126"/>
      <point x="1005" y="74"/>
      <point x="928" y="37" type="curve" smooth="yes"/>
      <point x="851" y="-1"/>
      <point x="762" y="-20"/>
    </contour>
  </outline>
</glyph>
<glyph name="five" format="2">
  <advance width="1245"/>
  <unicode hex="0035"/>
  <outline>
    <contour>
      <point x="619.636" y="-20.3636" type="qcurve" smooth="yes"/>
      <point x="491.636" y="-20.3636"/>
      <point x="286.545" y="81.4545"/>
      <point x="162.909" y="258.909"/>
      <point x="157.091" y="372.364" type="qcurve"/>
      <point x="331.636" y="372.364" type="line"/>
      <point x="341.818" y="271.273"/>
      <point x="505.455" y="139.636"/>
      <point x="619.636" y="139.636" type="qcurve" smooth="yes"/>
      <point x="711.273" y="139.636"/>
      <point x="854.545" y="225.455"/>
      <point x="936.727" y="376"/>
      <point x="936.727" y="471.273" type="qcurve" smooth="yes"/>
      <point x="936.727" y="568.727"/>
      <point x="851.636" y="722.182"/>
      <point x="703.273" y="810.909"/>
      <point x="608" y="811.636" type="qcurve" smooth="yes"/>
      <point x="539.636" y="812.364"/>
      <point x="395.636" y="769.455"/>
      <point x="342.545" y="689.455" type="qcurve"/>
      <point x="172.364" y="689.455" type="line"/>
      <point x="270.545" y="1489.45" type="line"/>
      <point x="1044.36" y="1489.45" type="line"/>
      <point x="1044.36" y="1329.45" type="line"/>
      <point x="421.818" y="1329.45" type="line"/>
      <point x="369.455" y="890.182" type="line"/>
      <point x="378.182" y="890.182" type="line"/>
      <point x="424" y="926.545"/>
      <point x="562.182" y="974.545"/>
      <point x="637.091" y="974.545" type="qcurve" smooth="yes"/>
      <point x="773.818" y="974.545"/>
      <point x="988.364" y="844.364"/>
      <point x="1111.27" y="618.909"/>
      <point x="1111.27" y="474.182" type="qcurve" smooth="yes"/>
      <point x="1111.27" y="331.636"/>
      <point x="984" y="108.364"/>
      <point x="761.455" y="-20.3636"/>
    </contour>
  </outline>
</glyph>
<glyph name="seven" format="2">
  <advance width="1152"/>
  <unicode hex="0037"/>
  <outline>
    <contour>
      <point x="200" y="0" type="line"/>
      <point x="866" y="1318" type="line"/>
      <point x="866" y="1330" type="line"/>
      <point x="98" y="1330" type="line"/>
      <point x="98" y="1490" type="line"/>
      <point x="1054" y="1490" type="line"/>
      <point x="1054" y="1320" type="line"/>
      <point x="390" y="0" type="line"/>
    </contour>
  </outline>
</glyph>
<glyph name="eight" format="2">
  <advance width="1267"/>
  <unicode hex="0038"/>
  <outline>
    <contour>
      <point x="633" y="-20" type="qcurve" smooth="yes"/>
      <point x="482" y="-20"/>
      <point x="251" y="87"/>
      <point x="122" y="275"/>
      <point x="122" y="396" type="qcurve" smooth="yes"/>
      <point x="122" y="490"/>
      <point x="198" y="651"/>
      <point x="330" y="759"/>
      <point x="413" y="774" type="qcurve"/>
      <point x="413" y="782" type="line"/>
      <point x="304" y="810"/>
      <point x="176" y="996"/>
      <point x="176" y="1114" type="qcurve" smooth="yes"/>
      <point x="176" y="1228"/>
      <point x="294" y="1407"/>
      <point x="500" y="1510"/>
      <point x="633" y="1510" type="qcurve" smooth="yes"/>
      <point x="764" y="1510"/>
      <point x="970" y="1407"/>
      <point x="1089" y="1228"/>
      <point x="1089" y="1114" type="qcurve" smooth="yes"/>
      <point x="1089" y="996"/>
      <point x="960" y="810"/>
      <point x="854" y="782" type="qcurve"/>
      <point x="854" y="774" type="line"/>
      <point x="935" y="759"/>
      <point x="1067" y="651"/>
      <point x="1145" y="490"/>
      <point x="1145" y="396" type="qcurve" smooth="yes"/>
      <point x="1145" y="275"/>
      <point x="1014" y="87"/>
      <point x="783" y="-20"/>
    </contour>
    <contour>
      <point x="633" y="145" type="qcurve" smooth="yes"/>
      <point x="732" y="145"/>
      <point x="876" y="210"/>
      <point x="955" y="327"/>
      <point x="955" y="406" type="qcurve" smooth="yes"/>
      <point x="955" y="489"/>
      <point x="871" y="616"/>
      <point x="725" y="689"/>
      <point x="633" y="689" type="qcurve" smooth="yes"/>
      <point x="539" y="689"/>
      <point x="393" y="616"/>
      <point x="309" y="489"/>
      <point x="309" y="406" type="qcurve" smooth="yes"/>
      <point x="309" y="327"/>
      <point x="387" y="210"/>
      <point x="533" y="145"/>
    </contour>
    <contour>
      <point x="633" y="848" type="qcurve" smooth="yes"/>
      <point x="712" y="848"/>
      <point x="834" y="911"/>
      <point x="905" y="1025"/>
      <point x="905" y="1100" type="qcurve" smooth="yes"/>
      <point x="905" y="1175"/>
      <point x="837" y="1285"/>
      <point x="714" y="1346"/>
      <point x="633" y="1346" type="qcurve" smooth="yes"/>
      <point x="551" y="1346"/>
      <point x="428" y="1285"/>
      <point x="360" y="1175"/>
      <point x="360" y="1100" type="qcurve" smooth="yes"/>
      <point x="360" y="1025"/>
      <point x="429" y="911"/>
      <point x="553" y="848"/>
    </contour>
  </outline>
</glyph>
<glyph name="nine.ss01" format="2">
  <advance width="1191"/>
  <unicode hex="0039"/>
  <unicode hex="E070"/>
  <outline>
    <contour>
      <point x="595" y="1510" type="curve" smooth="yes"/>
      <point x="687" y="1510"/>
      <point x="769" y="1489"/>
      <point x="840" y="1447" type="curve" smooth="yes"/>
      <point x="911" y="1405"/>
      <point x="967" y="1347"/>
      <point x="1008" y="1273" type="curve" smooth="yes"/>
      <point x="1049" y="1198"/>
      <point x="1069" y="1113"/>
      <point x="1069" y="1017" type="curve" smooth="yes"/>
      <point x="1069" y="946"/>
      <point x="1054" y="872"/>
      <point x="1023" y="793" type="curve" smooth="yes"/>
      <point x="992" y="714"/>
      <point x="937" y="615"/>
      <point x="857" y="497" type="curve" smooth="yes"/>
      <point x="520" y="0" type="line"/>
      <point x="315" y="0" type="line"/>
      <point x="813" y="727" type="line"/>
      <point x="831" y="727" type="line"/>
      <point x="818" y="699"/>
      <point x="798" y="674"/>
      <point x="773" y="651" type="curve" smooth="yes"/>
      <point x="721" y="605"/>
      <point x="651" y="575"/>
      <point x="571" y="575" type="curve" smooth="yes"/>
      <point x="481" y="575"/>
      <point x="402" y="594"/>
      <point x="335" y="632" type="curve" smooth="yes"/>
      <point x="268" y="669"/>
      <point x="215" y="722"/>
      <point x="178" y="791" type="curve" smooth="yes"/>
      <point x="141" y="859"/>
      <point x="122" y="939"/>
      <point x="122" y="1032" type="curve" smooth="yes"/>
      <point x="122" y="1125"/>
      <point x="143" y="1207"/>
      <point x="184" y="1279" type="curve" smooth="yes"/>
      <point x="225" y="1350"/>
      <point x="281" y="1407"/>
      <point x="352" y="1448" type="curve" smooth="yes"/>
      <point x="423" y="1489"/>
      <point x="504" y="1510"/>
    </contour>
    <contour>
      <point x="595" y="1347" type="curve" smooth="yes"/>
      <point x="538" y="1347"/>
      <point x="488" y="1333"/>
      <point x="444" y="1306" type="curve" smooth="yes"/>
      <point x="400" y="1279"/>
      <point x="366" y="1241"/>
      <point x="341" y="1194" type="curve" smooth="yes"/>
      <point x="316" y="1147"/>
      <point x="303" y="1093"/>
      <point x="303" y="1032" type="curve" smooth="yes"/>
      <point x="303" y="970"/>
      <point x="316" y="915"/>
      <point x="341" y="868" type="curve" smooth="yes"/>
      <point x="366" y="821"/>
      <point x="400" y="784"/>
      <point x="444" y="757" type="curve" smooth="yes"/>
      <point x="488" y="730"/>
      <point x="538" y="717"/>
      <point x="595" y="717" type="curve" smooth="yes"/>
      <point x="652" y="717"/>
      <point x="703" y="730"/>
      <point x="748" y="757" type="curve" smooth="yes"/>
      <point x="792" y="783"/>
      <point x="827" y="820"/>
      <point x="852" y="867" type="curve" smooth="yes"/>
      <point x="877" y="914"/>
      <point x="889" y="967"/>
      <point x="889" y="1028" type="curve" smooth="yes"/>
      <point x="889" y="1090"/>
      <point x="877" y="1145"/>
      <point x="852" y="1193" type="curve" smooth="yes"/>
      <point x="827" y="1241"/>
      <point x="792" y="1279"/>
      <point x="748" y="1306" type="curve" smooth="yes"/>
      <point x="704" y="1333"/>
      <point x="653" y="1347"/>
    </contour>
  </outline>
</glyph>
<glyph name="less" format="2">
  <advance width="1350"/>
  <unicode hex="003C"/>
  <outline>
    <contour>
      <point x="174" y="524" type="line"/>
      <point x="174" y="640" type="line"/>
      <point x="1112" y="1118" type="line"/>
      <point x="1112" y="930" type="line"/>
      <point x="392" y="584" type="line"/>
      <point x="398" y="596" type="line"/>
      <point x="398" y="568" type="line"/>
      <point x="392" y="578" type="line"/>
      <point x="1112" y="232" type="line"/>
      <point x="1112" y="46" type="line"/>
    </contour>
  </outline>
</glyph>
<glyph name="equal" format="2">
  <advance width="1350"/>
  <unicode hex="003D"/>
  <outline>
    <contour>
      <point x="226" y="718" type="line"/>
      <point x="226" y="876" type="line"/>
      <point x="1122" y="876" type="line"/>
      <point x="1122" y="718" type="line"/>
    </contour>
    <contour>
      <point x="226" y="288" type="line"/>
      <point x="226" y="446" type="line"/>
      <point x="1122" y="446" type="line"/>
      <point x="1122" y="288" type="line"/>
    </contour>
  </outline>
</glyph>
<glyph name="greater" format="2">
  <advance width="1350"/>
  <unicode hex="003E"/>
  <outline>
    <contour>
      <point x="1176" y="524" type="line"/>
      <point x="238" y="46" type="line"/>
      <point x="238" y="232" type="line"/>
      <point x="958" y="578" type="line"/>
      <point x="952" y="568" type="line"/>
      <point x="952" y="596" type="line"/>
      <point x="958" y="584" type="line"/>
      <point x="238" y="930" type="line"/>
      <point x="238" y="1118" type="line"/>
      <point x="1176" y="640" type="line"/>
    </contour>
  </outline>
</glyph>
<glyph name="question" format="2">
  <advance width="1038"/>
  <unicode hex="003F"/>
  <outline>
    <contour>
      <point x="382" y="448" type="line"/>
      <point x="382" y="458" type="line" smooth="yes"/>
      <point x="382" y="597"/>
      <point x="437" y="746"/>
      <point x="539" y="833"/>
      <point x="610" y="876" type="qcurve" smooth="yes"/>
      <point x="675" y="914"/>
      <point x="762" y="1039"/>
      <point x="762" y="1126" type="qcurve" smooth="yes"/>
      <point x="762" y="1197"/>
      <point x="696" y="1301"/>
      <point x="583" y="1358"/>
      <point x="514" y="1358" type="qcurve" smooth="yes"/>
      <point x="455" y="1358"/>
      <point x="345" y="1309"/>
      <point x="270" y="1204"/>
      <point x="264" y="1118" type="qcurve"/>
      <point x="82" y="1118" type="line"/>
      <point x="87" y="1241"/>
      <point x="204" y="1417"/>
      <point x="397" y="1510"/>
      <point x="514" y="1510" type="qcurve" smooth="yes"/>
      <point x="643" y="1510"/>
      <point x="832" y="1408"/>
      <point x="936" y="1231"/>
      <point x="936" y="1118" type="qcurve" smooth="yes"/>
      <point x="936" y="997"/>
      <point x="829" y="825"/>
      <point x="734" y="766" type="qcurve" smooth="yes"/>
      <point x="670" y="727"/>
      <point x="591" y="654"/>
      <point x="556" y="548"/>
      <point x="556" y="458" type="qcurve" smooth="yes"/>
      <point x="556" y="448" type="line"/>
    </contour>
    <contour>
      <point x="471" y="-12" type="qcurve" smooth="yes"/>
      <point x="417" y="-12"/>
      <point x="340" y="65"/>
      <point x="340" y="119" type="qcurve" smooth="yes"/>
      <point x="340" y="173"/>
      <point x="417" y="250"/>
      <point x="471" y="250" type="qcurve" smooth="yes"/>
      <point x="525" y="250"/>
      <point x="602" y="173"/>
      <point x="602" y="119" type="qcurve" smooth="yes"/>
      <point x="602" y="65"/>
      <point x="525" y="-12"/>
    </contour>
  </outline>
</glyph>
<glyph name="question.ss07" format="2">
  <advance width="1047"/>
  <unicode hex="003F"/>
  <unicode hex="E2B0"/>
  <outline>
    <contour>
      <point x="383" y="449" type="line"/>
      <point x="383" y="460" type="line" smooth="yes"/>
      <point x="383" y="597"/>
      <point x="436" y="746"/>
      <point x="536" y="833"/>
      <point x="605" y="874" type="qcurve" smooth="yes"/>
      <point x="671" y="914"/>
      <point x="761" y="1037"/>
      <point x="761" y="1124" type="qcurve" smooth="yes"/>
      <point x="761" y="1194"/>
      <point x="696" y="1295"/>
      <point x="586" y="1351"/>
      <point x="518" y="1351" type="qcurve" smooth="yes"/>
      <point x="459" y="1351"/>
      <point x="350" y="1302"/>
      <point x="278" y="1198"/>
      <point x="272" y="1115" type="qcurve"/>
      <point x="82" y="1115" type="line"/>
      <point x="87" y="1241"/>
      <point x="206" y="1417"/>
      <point x="400" y="1510"/>
      <point x="518" y="1510" type="qcurve" smooth="yes"/>
      <point x="648" y="1510"/>
      <point x="839" y="1409"/>
      <point x="945" y="1231"/>
      <point x="945" y="1117" type="qcurve" smooth="yes"/>
      <point x="945" y="996"/>
      <point x="839" y="824"/>
      <point x="742" y="765" type="qcurve" smooth="yes"/>
      <point x="678" y="726"/>
      <point x="599" y="653"/>
      <point x="564" y="549"/>
      <point x="564" y="460" type="qcurve" smooth="yes"/>
      <point x="564" y="449" type="line"/>
    </contour>
    <contour>
      <point x="352" y="0" type="line"/>
      <point x="352" y="232" type="line"/>
      <point x="586" y="232" type="line"/>
      <point x="586" y="0" type="line"/>
    </contour>
  </outline>
</glyph>
<glyph name="at" format="2">
  <advance width="1964"/>
  <unicode hex="0040"/>
  <outline>
    <contour>
      <point x="1040" y="-392" type="qcurve" smooth="yes"/>
      <point x="817" y="-392"/>
      <point x="475" y="-271"/>
      <point x="242" y="-36"/>
      <point x="122" y="306"/>
      <point x="122" y="526" type="qcurve" smooth="yes"/>
      <point x="122" y="739"/>
      <point x="244" y="1075"/>
      <point x="476" y="1311"/>
      <point x="808" y="1434"/>
      <point x="1018" y="1434" type="qcurve" smooth="yes"/>
      <point x="1222" y="1434"/>
      <point x="1531" y="1301"/>
      <point x="1738" y="1075"/>
      <point x="1842" y="792"/>
      <point x="1842" y="642" type="qcurve" smooth="yes"/>
      <point x="1842" y="537"/>
      <point x="1822" y="321"/>
      <point x="1756" y="140"/>
      <point x="1620" y="30"/>
      <point x="1504" y="30" type="qcurve" smooth="yes"/>
      <point x="1454" y="30"/>
      <point x="1331" y="62"/>
      <point x="1237" y="136"/>
      <point x="1228" y="198" type="qcurve"/>
      <point x="1220" y="198" type="line"/>
      <point x="1195" y="137"/>
      <point x="1065" y="38"/>
      <point x="949" y="38" type="qcurve" smooth="yes"/>
      <point x="817" y="38"/>
      <point x="638" y="170"/>
      <point x="548" y="395"/>
      <point x="548" y="536" type="qcurve" smooth="yes"/>
      <point x="548" y="669"/>
      <point x="655" y="880"/>
      <point x="841" y="1002"/>
      <point x="960" y="1002" type="qcurve" smooth="yes"/>
      <point x="1058" y="1002"/>
      <point x="1185" y="931"/>
      <point x="1210" y="896" type="qcurve"/>
      <point x="1220" y="896" type="line"/>
      <point x="1220" y="978" type="line"/>
      <point x="1374" y="978" type="line"/>
      <point x="1374" y="320" type="line" smooth="yes"/>
      <point x="1374" y="259"/>
      <point x="1442" y="166"/>
      <point x="1508" y="166" type="qcurve" smooth="yes"/>
      <point x="1582" y="166"/>
      <point x="1661" y="268"/>
      <point x="1690" y="480"/>
      <point x="1690" y="646" type="qcurve" smooth="yes"/>
      <point x="1690" y="768"/>
      <point x="1608" y="1001"/>
      <point x="1440" y="1188"/>
      <point x="1184" y="1298"/>
      <point x="1010" y="1298" type="qcurve" smooth="yes"/>
      <point x="839" y="1298"/>
      <point x="569" y="1192"/>
      <point x="381" y="991"/>
      <point x="282" y="703"/>
      <point x="282" y="520" type="qcurve" smooth="yes"/>
      <point x="282" y="335"/>
      <point x="381" y="47"/>
      <point x="574" y="-151"/>
      <point x="859" y="-254"/>
      <point x="1046" y="-254" type="qcurve" smooth="yes"/>
      <point x="1126" y="-254"/>
      <point x="1281" y="-223"/>
      <point x="1400" y="-186"/>
      <point x="1426" y="-178" type="qcurve"/>
      <point x="1466" y="-312" type="line"/>
      <point x="1422" y="-330"/>
      <point x="1278" y="-367"/>
      <point x="1114" y="-392"/>
    </contour>
    <contour>
      <point x="954" y="186" type="qcurve" smooth="yes"/>
      <point x="1052" y="186"/>
      <point x="1173" y="265"/>
      <point x="1228" y="424"/>
      <point x="1228" y="544" type="qcurve" smooth="yes"/>
      <point x="1228" y="666"/>
      <point x="1167" y="803"/>
      <point x="1048" y="858"/>
      <point x="960" y="858" type="qcurve" smooth="yes"/>
      <point x="878" y="858"/>
      <point x="760" y="771"/>
      <point x="698" y="629"/>
      <point x="698" y="544" type="qcurve" smooth="yes"/>
      <point x="698" y="451"/>
      <point x="748" y="288"/>
      <point x="860" y="186"/>
    </contour>
  </outline>
</glyph>
<glyph name="A" format="2">
  <advance width="1413"/>
  <unicode hex="0041"/>
  <anchor x="955" y="0" name="m.uni0326"/>
  <anchor x="955" y="1490" name="m.uni030F_1"/>
  <anchor x="1872" y="0" name="m.uni0328_4"/>
  <outline>
    <contour>
      <point x="52" y="0" type="line"/>
      <point x="593" y="1490" type="line"/>
      <point x="813" y="1490" type="line"/>
      <point x="1361" y="0" type="line"/>
      <point x="1161" y="0" type="line"/>
      <point x="845" y="884" type="line" smooth="yes"/>
      <point x="826" y="939"/>
      <point x="803" y="1007"/>
      <point x="778" y="1089" type="curve" smooth="yes"/>
      <point x="752" y="1170"/>
      <point x="721" y="1274"/>
      <point x="684" y="1401" type="curve"/>
      <point x="720" y="1401" type="line"/>
      <point x="648" y="1145"/>
      <point x="596" y="985"/>
      <point x="561" y="884" type="curve" smooth="yes"/>
      <point x="254" y="0" type="line"/>
    </contour>
    <contour>
      <point x="324" y="416" type="line"/>
      <point x="324" y="582" type="line"/>
      <point x="1089" y="582" type="line"/>
      <point x="1089" y="416" type="line"/>
    </contour>
  </outline>
</glyph>
<glyph name="B" format="2">
  <advance width="1340"/>
  <unicode hex="0042"/>
  <anchor x="691" y="0" name="m.uni0326"/>
  <anchor x="703" y="1490" name="m.uni030F_1"/>
  <outline>
    <contour>
      <point x="180" y="0" type="line"/>
      <point x="180" y="1490" type="line"/>
      <point x="708" y="1490" type="line" smooth="yes"/>
      <point x="812" y="1490"/>
      <point x="898" y="1472"/>
      <point x="966" y="1437" type="curve" smooth="yes"/>
      <point x="1101" y="1365"/>
      <point x="1166" y="1240"/>
      <point x="1166" y="1095" type="curve" smooth="yes"/>
      <point x="1166" y="1031"/>
      <point x="1155" y="978"/>
      <point x="1132" y="937" type="curve" smooth="yes"/>
      <point x="1087" y="853"/>
      <point x="1009" y="806"/>
      <point x="922" y="782" type="curve"/>
      <point x="922" y="768" type="line"/>
      <point x="969" y="765"/>
      <point x="1015" y="749"/>
      <point x="1062" y="720" type="curve" smooth="yes"/>
      <point x="1108" y="691"/>
      <point x="1147" y="649"/>
      <point x="1178" y="595" type="curve" smooth="yes"/>
      <point x="1209" y="541"/>
      <point x="1224" y="475"/>
      <point x="1224" y="397" type="curve" smooth="yes"/>
      <point x="1224" y="322"/>
      <point x="1207" y="255"/>
      <point x="1173" y="195" type="curve" smooth="yes"/>
      <point x="1104" y="75"/>
      <point x="960" y="0"/>
      <point x="725" y="0" type="curve" smooth="yes"/>
    </contour>
    <contour>
      <point x="370" y="168" type="line"/>
      <point x="720" y="168" type="line" smooth="yes"/>
      <point x="836" y="168"/>
      <point x="919" y="190"/>
      <point x="968" y="235" type="curve" smooth="yes"/>
      <point x="1017" y="280"/>
      <point x="1041" y="334"/>
      <point x="1041" y="399" type="curve" smooth="yes"/>
      <point x="1041" y="449"/>
      <point x="1028" y="495"/>
      <point x="1003" y="537" type="curve" smooth="yes"/>
      <point x="952" y="621"/>
      <point x="858" y="676"/>
      <point x="730" y="676" type="curve" smooth="yes"/>
      <point x="370" y="676" type="line"/>
    </contour>
    <contour>
      <point x="370" y="836" type="line"/>
      <point x="698" y="836" type="line" smooth="yes"/>
      <point x="751" y="836"/>
      <point x="800" y="847"/>
      <point x="843" y="868" type="curve" smooth="yes"/>
      <point x="930" y="910"/>
      <point x="984" y="988"/>
      <point x="984" y="1091" type="curve" smooth="yes"/>
      <point x="984" y="1156"/>
      <point x="962" y="1210"/>
      <point x="917" y="1255" type="curve" smooth="yes"/>
      <point x="872" y="1300"/>
      <point x="801" y="1322"/>
      <point x="704" y="1322" type="curve" smooth="yes"/>
      <point x="370" y="1322" type="line"/>
    </contour>
  </outline>
</glyph>
<glyph name="C" format="2">
  <advance width="1490"/>
  <unicode hex="0043"/>
  <outline>
    <contour>
      <point x="780" y="-20" type="qcurve" smooth="yes"/>
      <point x="590" y="-20"/>
      <point x="292" y="166"/>
      <point x="122" y="509"/>
      <point x="122" y="744" type="qcurve" smooth="yes"/>
      <point x="122" y="980"/>
      <point x="292" y="1324"/>
      <point x="590" y="1510"/>
      <point x="780" y="1510" type="qcurve" smooth="yes"/>
      <point x="892" y="1510"/>
      <point x="1091" y="1444"/>
      <point x="1251" y="1319"/>
      <point x="1358" y="1138"/>
      <point x="1378" y="1024" type="qcurve"/>
      <point x="1198" y="1024" type="line"/>
      <point x="1182" y="1102"/>
      <point x="1103" y="1220"/>
      <point x="990" y="1301"/>
      <point x="854" y="1342"/>
      <point x="780" y="1342" type="qcurve" smooth="yes"/>
      <point x="645" y="1342"/>
      <point x="425" y="1205"/>
      <point x="296" y="938"/>
      <point x="296" y="744" type="qcurve" smooth="yes"/>
      <point x="296" y="551"/>
      <point x="425" y="285"/>
      <point x="645" y="148"/>
      <point x="780" y="148" type="qcurve" smooth="yes"/>
      <point x="854" y="148"/>
      <point x="990" y="189"/>
      <point x="1103" y="270"/>
      <point x="1182" y="388"/>
      <point x="1198" y="466" type="qcurve"/>
      <point x="1378" y="466" type="line"/>
      <point x="1358" y="351"/>
      <point x="1251" y="171"/>
      <point x="1091" y="46"/>
      <point x="892" y="-20"/>
    </contour>
  </outline>
</glyph>
<glyph name="D" format="2">
  <advance width="1478"/>
  <unicode hex="0044"/>
  <anchor x="788" y="0" name="m.uni0326"/>
  <anchor x="631" y="1490" name="m.uni030F_1"/>
  <outline>
    <contour>
      <point x="645" y="0" type="qcurve" smooth="yes"/>
      <point x="285" y="0" type="line"/>
      <point x="285" y="168" type="line"/>
      <point x="633" y="168" type="line" smooth="yes"/>
      <point x="815" y="168"/>
      <point x="1054" y="307"/>
      <point x="1172" y="567"/>
      <point x="1172" y="748" type="qcurve" smooth="yes"/>
      <point x="1172" y="927"/>
      <point x="1055" y="1184"/>
      <point x="824" y="1322"/>
      <point x="651" y="1322" type="qcurve" smooth="yes"/>
      <point x="277" y="1322" type="line"/>
      <point x="277" y="1490" type="line"/>
      <point x="664" y="1490" type="line" smooth="yes"/>
      <point x="882" y="1490"/>
      <point x="1191" y="1312"/>
      <point x="1356" y="979"/>
      <point x="1356" y="748" type="qcurve" smooth="yes"/>
      <point x="1356" y="515"/>
      <point x="1190" y="180"/>
      <point x="872" y="0"/>
    </contour>
    <contour>
      <point x="370" y="1490" type="line"/>
      <point x="370" y="0" type="line"/>
      <point x="180" y="0" type="line"/>
      <point x="180" y="1490" type="line"/>
    </contour>
  </outline>
</glyph>
<glyph name="E" format="2">
  <advance width="1231"/>
  <unicode hex="0045"/>
  <anchor x="665" y="0" name="m.uni0326"/>
  <anchor x="665" y="1490" name="m.uni030F_1"/>
  <anchor x="643" y="0" name="m.uni0327_3"/>
  <anchor x="1263" y="0" name="m.uni0328_4"/>
  <outline>
    <contour>
      <point x="180" y="0" type="line"/>
      <point x="180" y="1490" type="line"/>
      <point x="1088" y="1490" type="line"/>
      <point x="1088" y="1322" type="line"/>
      <point x="370" y="1322" type="line"/>
      <point x="370" y="836" type="line"/>
      <point x="1039" y="836" type="line"/>
      <point x="1039" y="668" type="line"/>
      <point x="370" y="668" type="line"/>
      <point x="370" y="168" type="line"/>
      <point x="1097" y="168" type="line"/>
      <point x="1097" y="0" type="line"/>
    </contour>
  </outline>
</glyph>
<glyph name="F" format="2">
  <advance width="1202"/>
  <unicode hex="0046"/>
  <anchor x="333" y="0" name="m.uni0326"/>
  <anchor x="635" y="1490" name="m.uni030F_1"/>
  <outline>
    <contour>
      <point x="180" y="0" type="line"/>
      <point x="180" y="1490" type="line"/>
      <point x="1074" y="1490" type="line"/>
      <point x="1074" y="1330" type="line"/>
      <point x="360" y="1330" type="line"/>
      <point x="360" y="810" type="line"/>
      <point x="1006" y="810" type="line"/>
      <point x="1006" y="650" type="line"/>
      <point x="360" y="650" type="line"/>
      <point x="360" y="0" type="line"/>
    </contour>
  </outline>
</glyph>
<glyph name="G.1" format="2">
  <advance width="1550"/>
  <unicode hex="0047"/>
  <unicode hex="E002"/>
  <anchor x="787" y="0" name="m.uni0326"/>
  <anchor x="799" y="1490" name="m.uni030F_1"/>
  <outline>
    <contour>
      <point x="772" y="-20" type="qcurve" smooth="yes"/>
      <point x="583" y="-20"/>
      <point x="290" y="166"/>
      <point x="122" y="509"/>
      <point x="122" y="744" type="qcurve" smooth="yes"/>
      <point x="122" y="981"/>
      <point x="290" y="1324"/>
      <point x="586" y="1510"/>
      <point x="777" y="1510" type="qcurve" smooth="yes"/>
      <point x="895" y="1510"/>
      <point x="1100" y="1440"/>
      <point x="1262" y="1310"/>
      <point x="1369" y="1131"/>
      <point x="1389" y="1023" type="qcurve"/>
      <point x="1193" y="1023" type="line"/>
      <point x="1170" y="1095"/>
      <point x="1094" y="1209"/>
      <point x="989" y="1291"/>
      <point x="857" y="1334"/>
      <point x="778" y="1334" type="qcurve" smooth="yes"/>
      <point x="647" y="1334"/>
      <point x="433" y="1199"/>
      <point x="307" y="936"/>
      <point x="307" y="744" type="qcurve" smooth="yes"/>
      <point x="307" y="554"/>
      <point x="434" y="292"/>
      <point x="652" y="156"/>
      <point x="789" y="156" type="qcurve" smooth="yes"/>
      <point x="921" y="156"/>
      <point x="1113" y="269"/>
      <point x="1216" y="478"/>
      <point x="1216" y="621" type="qcurve"/>
      <point x="1242" y="621" type="line"/>
      <point x="1242" y="482" type="line" smooth="yes"/>
      <point x="1242" y="391"/>
      <point x="1195" y="213"/>
      <point x="1088" y="67"/>
      <point x="907" y="-20"/>
    </contour>
    <contour>
      <point x="1251" y="0" type="line"/>
      <point x="1220" y="373" type="line"/>
      <point x="1220" y="583" type="line"/>
      <point x="827" y="583" type="line"/>
      <point x="827" y="749" type="line"/>
      <point x="1400" y="749" type="line"/>
      <point x="1400" y="0" type="line"/>
    </contour>
  </outline>
</glyph>
<glyph name="H" format="2">
  <advance width="1514"/>
  <unicode hex="0048"/>
  <outline>
    <contour>
      <point x="180" y="0" type="line"/>
      <point x="180" y="1490" type="line"/>
      <point x="360" y="1490" type="line"/>
      <point x="360" y="842" type="line"/>
      <point x="1154" y="842" type="line"/>
      <point x="1154" y="1490" type="line"/>
      <point x="1334" y="1490" type="line"/>
      <point x="1334" y="0" type="line"/>
      <point x="1154" y="0" type="line"/>
      <point x="1154" y="682" type="line"/>
      <point x="360" y="682" type="line"/>
      <point x="360" y="0" type="line"/>
    </contour>
  </outline>
</glyph>
<glyph name="I" format="2">
  <advance width="540"/>
  <unicode hex="0049"/>
  <outline>
    <contour>
      <point x="360" y="1490" type="line"/>
      <point x="360" y="0" type="line"/>
      <point x="180" y="0" type="line"/>
      <point x="180" y="1490" type="line"/>
    </contour>
  </outline>
</glyph>
<glyph name="J" format="2">
  <advance width="1169"/>
  <unicode hex="004A"/>
  <anchor x="999" y="1490" name="m.uni030F_1"/>
  <outline>
    <contour>
      <point x="545" y="-20" type="curve" smooth="yes"/>
      <point x="414" y="-20"/>
      <point x="307" y="19"/>
      <point x="224" y="96" type="curve" smooth="yes"/>
      <point x="141" y="173"/>
      <point x="100" y="283"/>
      <point x="100" y="426" type="curve" smooth="yes"/>
      <point x="100" y="506" type="line"/>
      <point x="290" y="506" type="line"/>
      <point x="290" y="426" type="line" smooth="yes"/>
      <point x="290" y="335"/>
      <point x="313" y="266"/>
      <point x="360" y="219" type="curve" smooth="yes"/>
      <point x="407" y="171"/>
      <point x="468" y="147"/>
      <point x="545" y="147" type="curve" smooth="yes"/>
      <point x="621" y="147"/>
      <point x="682" y="171"/>
      <point x="729" y="219" type="curve" smooth="yes"/>
      <point x="776" y="266"/>
      <point x="799" y="335"/>
      <point x="799" y="426" type="curve" smooth="yes"/>
      <point x="799" y="1490" type="line"/>
      <point x="989" y="1490" type="line"/>
      <point x="989" y="426" type="line" smooth="yes"/>
      <point x="989" y="283"/>
      <point x="948" y="173"/>
      <point x="866" y="96" type="curve" smooth="yes"/>
      <point x="783" y="19"/>
      <point x="676" y="-20"/>
    </contour>
  </outline>
</glyph>
<glyph name="K" format="2">
  <advance width="1376"/>
  <unicode hex="004B"/>
  <anchor x="860" y="0" name="m.uni0326"/>
  <anchor x="860" y="1490" name="m.uni030F_1"/>
  <outline>
    <contour>
      <point x="310" y="426" type="line"/>
      <point x="310" y="629" type="line"/>
      <point x="344" y="676"/>
      <point x="378" y="720"/>
      <point x="412" y="763" type="curve" smooth="yes"/>
      <point x="445" y="806"/>
      <point x="480" y="847"/>
      <point x="515" y="888" type="curve" smooth="yes"/>
      <point x="550" y="929"/>
      <point x="587" y="969"/>
      <point x="624" y="1009" type="curve" smooth="yes"/>
      <point x="1069" y="1490" type="line"/>
      <point x="1318" y="1490" type="line"/>
      <point x="682" y="808" type="line"/>
      <point x="672" y="809" type="line"/>
    </contour>
    <contour>
      <point x="180" y="0" type="line"/>
      <point x="180" y="1490" type="line"/>
      <point x="370" y="1490" type="line"/>
      <point x="370" y="980" type="line"/>
      <point x="367" y="659" type="line"/>
      <point x="370" y="566" type="line"/>
      <point x="370" y="0" type="line"/>
    </contour>
    <contour>
      <point x="1094" y="0" type="line"/>
      <point x="555" y="758" type="line"/>
      <point x="673" y="906" type="line"/>
      <point x="1319" y="0" type="line"/>
    </contour>
  </outline>
</glyph>
<glyph name="L" format="2">
  <advance width="1152"/>
  <unicode hex="004C"/>
  <anchor x="616" y="0" name="m.uni0326"/>
  <anchor x="330" y="1490" name="m.uni030F_1"/>
  <outline>
    <contour>
      <point x="180" y="0" type="line"/>
      <point x="180" y="1490" type="line"/>
      <point x="360" y="1490" type="line"/>
      <point x="360" y="160" type="line"/>
      <point x="1054" y="160" type="line"/>
      <point x="1054" y="0" type="line"/>
    </contour>
  </outline>
</glyph>
<glyph name="M" format="2">
  <advance width="1837"/>
  <unicode hex="004D"/>
  <anchor x="1058" y="0" name="m.uni0326"/>
  <anchor x="1058" y="1490" name="m.uni030F_1"/>
  <outline>
    <contour>
      <point x="180" y="0" type="line"/>
      <point x="180" y="1490" type="line"/>
      <point x="433" y="1490" type="line"/>
      <point x="811" y="528" type="line" smooth="yes"/>
      <point x="824" y="496"/>
      <point x="857" y="399"/>
      <point x="894" y="288"/>
      <point x="927" y="178"/>
      <point x="940" y="132" type="qcurve"/>
      <point x="899" y="132" type="line"/>
      <point x="913" y="178"/>
      <point x="948" y="288"/>
      <point x="985" y="399"/>
      <point x="1018" y="496"/>
      <point x="1030" y="528" type="qcurve" smooth="yes"/>
      <point x="1403" y="1490" type="line"/>
      <point x="1657" y="1490" type="line"/>
      <point x="1657" y="0" type="line"/>
      <point x="1480" y="0" type="line"/>
      <point x="1480" y="864" type="line" smooth="yes"/>
      <point x="1480" y="912"/>
      <point x="1481" y="1031"/>
      <point x="1484" y="1161"/>
      <point x="1487" y="1288"/>
      <point x="1488" y="1344" type="qcurve"/>
      <point x="1504" y="1344" type="line"/>
      <point x="1482" y="1274"/>
      <point x="1434" y="1132"/>
      <point x="1389" y="1004"/>
      <point x="1351" y="899"/>
      <point x="1337" y="864" type="qcurve" smooth="yes"/>
      <point x="996" y="0" type="line"/>
      <point x="840" y="0" type="line"/>
      <point x="494" y="864" type="line" smooth="yes"/>
      <point x="480" y="899"/>
      <point x="442" y="1004"/>
      <point x="397" y="1132"/>
      <point x="349" y="1274"/>
      <point x="324" y="1344" type="qcurve"/>
      <point x="342" y="1344" type="line"/>
      <point x="344" y="1288"/>
      <point x="346" y="1161"/>
      <point x="349" y="1031"/>
      <point x="350" y="912"/>
      <point x="350" y="864" type="qcurve" smooth="yes"/>
      <point x="350" y="0" type="line"/>
    </contour>
  </outline>
</glyph>
<glyph name="N" format="2">
  <advance width="1534"/>
  <unicode hex="004E"/>
  <outline>
    <contour>
      <point x="180" y="0" type="line"/>
      <point x="180" y="1490" type="line"/>
      <point x="394" y="1490" type="line"/>
      <point x="1012" y="520" type="line" smooth="yes"/>
      <point x="1032" y="489"/>
      <point x="1099" y="376"/>
      <point x="1180" y="229"/>
      <point x="1219" y="145" type="qcurve"/>
      <point x="1193" y="145" type="line"/>
      <point x="1184" y="232"/>
      <point x="1176" y="387"/>
      <point x="1174" y="514"/>
      <point x="1174" y="559" type="qcurve" smooth="yes"/>
      <point x="1174" y="1490" type="line"/>
      <point x="1354" y="1490" type="line"/>
      <point x="1354" y="0" type="line"/>
      <point x="1138" y="0" type="line"/>
      <point x="588" y="862" type="line" smooth="yes"/>
      <point x="553" y="918"/>
      <point x="479" y="1041"/>
      <point x="381" y="1213"/>
      <point x="309" y="1340" type="qcurve"/>
      <point x="343" y="1340" type="line"/>
      <point x="348" y="1224"/>
      <point x="355" y="1037"/>
      <point x="360" y="902"/>
      <point x="360" y="864" type="qcurve" smooth="yes"/>
      <point x="360" y="0" type="line"/>
    </contour>
  </outline>
</glyph>
<glyph name="P" format="2">
  <advance width="1308"/>
  <unicode hex="0050"/>
  <anchor x="732" y="1490" name="m.uni030F_1"/>
  <outline>
    <contour>
      <point x="180" y="0" type="line"/>
      <point x="180" y="1490" type="line"/>
      <point x="690" y="1490" type="line" smooth="yes"/>
      <point x="806" y="1490"/>
      <point x="902" y="1469"/>
      <point x="977" y="1427" type="curve" smooth="yes"/>
      <point x="1127" y="1342"/>
      <point x="1198" y="1193"/>
      <point x="1198" y="1016" type="curve" smooth="yes"/>
      <point x="1198" y="927"/>
      <point x="1180" y="847"/>
      <point x="1144" y="775" type="curve" smooth="yes"/>
      <point x="1071" y="631"/>
      <point x="923" y="539"/>
      <point x="691" y="539" type="curve" smooth="yes"/>
      <point x="330" y="539" type="line"/>
      <point x="330" y="706" type="line"/>
      <point x="682" y="706" type="line" smooth="yes"/>
      <point x="761" y="706"/>
      <point x="824" y="720"/>
      <point x="872" y="747" type="curve" smooth="yes"/>
      <point x="968" y="801"/>
      <point x="1009" y="899"/>
      <point x="1009" y="1016" type="curve" smooth="yes"/>
      <point x="1009" y="1075"/>
      <point x="998" y="1127"/>
      <point x="977" y="1174" type="curve"/>
      <point x="933" y="1266"/>
      <point x="839" y="1323"/>
      <point x="680" y="1323" type="curve" smooth="yes"/>
      <point x="370" y="1323" type="line"/>
      <point x="370" y="0" type="line"/>
    </contour>
  </outline>
</glyph>
<glyph name="Q" format="2">
  <advance width="1560"/>
  <unicode hex="0051"/>
  <outline>
    <contour>
      <point x="722" y="466" type="line"/>
      <point x="920" y="466" type="line"/>
      <point x="1086" y="248" type="line"/>
      <point x="1128" y="190" type="line"/>
      <point x="1376" y="-140" type="line"/>
      <point x="1178" y="-140" type="line"/>
      <point x="1016" y="78" type="line"/>
      <point x="974" y="134" type="line"/>
    </contour>
    <contour>
      <point x="781" y="-20" type="qcurve" smooth="yes"/>
      <point x="591" y="-20"/>
      <point x="293" y="166"/>
      <point x="122" y="509"/>
      <point x="122" y="744" type="qcurve" smooth="yes"/>
      <point x="122" y="980"/>
      <point x="293" y="1324"/>
      <point x="591" y="1510"/>
      <point x="781" y="1510" type="qcurve" smooth="yes"/>
      <point x="972" y="1510"/>
      <point x="1268" y="1324"/>
      <point x="1438" y="980"/>
      <point x="1438" y="744" type="qcurve" smooth="yes"/>
      <point x="1438" y="509"/>
      <point x="1268" y="166"/>
      <point x="972" y="-20"/>
    </contour>
    <contour>
      <point x="781" y="148" type="qcurve" smooth="yes"/>
      <point x="916" y="148"/>
      <point x="1135" y="285"/>
      <point x="1264" y="551"/>
      <point x="1264" y="744" type="qcurve" smooth="yes"/>
      <point x="1264" y="938"/>
      <point x="1135" y="1205"/>
      <point x="916" y="1342"/>
      <point x="781" y="1342" type="qcurve" smooth="yes"/>
      <point x="646" y="1342"/>
      <point x="426" y="1205"/>
      <point x="296" y="938"/>
      <point x="296" y="744" type="qcurve" smooth="yes"/>
      <point x="296" y="551"/>
      <point x="426" y="285"/>
      <point x="646" y="148"/>
    </contour>
  </outline>
</glyph>
<glyph name="R" format="2">
  <advance width="1318"/>
  <unicode hex="0052"/>
  <anchor x="761" y="0" name="m.uni0326"/>
  <anchor x="721" y="1490" name="m.uni030F_1"/>
  <outline>
    <contour>
      <point x="180" y="0" type="line"/>
      <point x="180" y="1490" type="line"/>
      <point x="690" y="1490" type="line" smooth="yes"/>
      <point x="806" y="1490"/>
      <point x="902" y="1470"/>
      <point x="977" y="1431" type="curve" smooth="yes"/>
      <point x="1127" y="1351"/>
      <point x="1198" y="1207"/>
      <point x="1198" y="1030" type="curve" smooth="yes"/>
      <point x="1198" y="941"/>
      <point x="1180" y="863"/>
      <point x="1144" y="795" type="curve" smooth="yes"/>
      <point x="1071" y="659"/>
      <point x="923" y="578"/>
      <point x="691" y="578" type="curve" smooth="yes"/>
      <point x="286" y="578" type="line"/>
      <point x="286" y="747" type="line"/>
      <point x="682" y="747" type="line" smooth="yes"/>
      <point x="761" y="747"/>
      <point x="824" y="759"/>
      <point x="872" y="782" type="curve" smooth="yes"/>
      <point x="967" y="828"/>
      <point x="1009" y="914"/>
      <point x="1009" y="1030" type="curve" smooth="yes"/>
      <point x="1009" y="1089"/>
      <point x="998" y="1141"/>
      <point x="976" y="1185" type="curve" smooth="yes"/>
      <point x="932" y="1272"/>
      <point x="839" y="1323"/>
      <point x="680" y="1323" type="curve" smooth="yes"/>
      <point x="370" y="1323" type="line"/>
      <point x="370" y="0" type="line"/>
    </contour>
    <contour>
      <point x="1036" y="0" type="line"/>
      <point x="676" y="671" type="line"/>
      <point x="890" y="671" type="line"/>
      <point x="1256" y="0" type="line"/>
    </contour>
  </outline>
</glyph>
<glyph name="S" format="2">
  <advance width="1314"/>
  <unicode hex="0053"/>
  <anchor x="786" y="0" name="m.uni0326"/>
  <anchor x="793" y="1490" name="m.uni030F_1"/>
  <anchor x="779" y="0" name="m.uni0327_3"/>
  <outline>
    <contour>
      <point x="657" y="-26" type="qcurve" smooth="yes"/>
      <point x="496" y="-26"/>
      <point x="259" y="78"/>
      <point x="125" y="265"/>
      <point x="116" y="390" type="qcurve"/>
      <point x="311" y="390" type="line"/>
      <point x="319" y="306"/>
      <point x="417" y="197"/>
      <point x="570" y="144"/>
      <point x="657" y="144" type="qcurve" smooth="yes"/>
      <point x="758" y="144"/>
      <point x="919" y="210"/>
      <point x="1013" y="330"/>
      <point x="1013" y="409" type="qcurve" smooth="yes"/>
      <point x="1013" y="481"/>
      <point x="932" y="571"/>
      <point x="798" y="629"/>
      <point x="718" y="651" type="qcurve" smooth="yes"/>
      <point x="538" y="702" type="line" smooth="yes"/>
      <point x="358" y="753"/>
      <point x="158" y="943"/>
      <point x="158" y="1091" type="qcurve" smooth="yes"/>
      <point x="158" y="1217"/>
      <point x="294" y="1406"/>
      <point x="526" y="1510"/>
      <point x="670" y="1510" type="qcurve" smooth="yes"/>
      <point x="817" y="1510"/>
      <point x="1043" y="1406"/>
      <point x="1174" y="1227"/>
      <point x="1178" y="1114" type="qcurve"/>
      <point x="992" y="1114" type="line"/>
      <point x="979" y="1223"/>
      <point x="797" y="1342"/>
      <point x="664" y="1342" type="qcurve" smooth="yes"/>
      <point x="568" y="1342"/>
      <point x="423" y="1279"/>
      <point x="343" y="1170"/>
      <point x="343" y="1100" type="qcurve" smooth="yes"/>
      <point x="343" y="1022"/>
      <point x="440" y="927"/>
      <point x="573" y="874"/>
      <point x="627" y="859" type="qcurve" smooth="yes"/>
      <point x="776" y="818" type="line" smooth="yes"/>
      <point x="836" y="802"/>
      <point x="981" y="746"/>
      <point x="1113" y="653"/>
      <point x="1198" y="510"/>
      <point x="1198" y="406" type="qcurve" smooth="yes"/>
      <point x="1198" y="284"/>
      <point x="1071" y="88"/>
      <point x="829" y="-26"/>
    </contour>
  </outline>
</glyph>
<glyph name="T" format="2">
  <advance width="1322"/>
  <unicode hex="0054"/>
  <anchor x="784" y="0" name="m.uni0326"/>
  <anchor x="786" y="1490" name="m.uni030F_1"/>
  <anchor x="786" y="0" name="m.uni0327_3"/>
  <outline>
    <contour>
      <point x="98" y="1322" type="line"/>
      <point x="98" y="1490" type="line"/>
      <point x="1224" y="1490" type="line"/>
      <point x="1224" y="1322" type="line"/>
      <point x="757" y="1322" type="line"/>
      <point x="757" y="0" type="line"/>
      <point x="567" y="0" type="line"/>
      <point x="567" y="1322" type="line"/>
    </contour>
  </outline>
</glyph>
<glyph name="V" format="2">
  <advance width="1402"/>
  <unicode hex="0056"/>
  <outline>
    <contour>
      <point x="602" y="0" type="line"/>
      <point x="52" y="1490" type="line"/>
      <point x="240" y="1490" type="line"/>
      <point x="562" y="592" type="line" smooth="yes"/>
      <point x="588" y="519"/>
      <point x="667" y="274"/>
      <point x="722" y="88" type="qcurve"/>
      <point x="688" y="88" type="line"/>
      <point x="741" y="274"/>
      <point x="821" y="519"/>
      <point x="846" y="592" type="qcurve" smooth="yes"/>
      <point x="1160" y="1490" type="line"/>
      <point x="1350" y="1490" type="line"/>
      <point x="806" y="0" type="line"/>
    </contour>
  </outline>
</glyph>
<glyph name="W" format="2">
  <advance width="2008"/>
  <unicode hex="0057"/>
  <anchor x="1163" y="0" name="m.uni0326"/>
  <anchor x="1163" y="1490" name="m.uni030F_1"/>
  <outline>
    <contour>
      <point x="458" y="0" type="line"/>
      <point x="52" y="1490" type="line"/>
      <point x="234" y="1490" type="line"/>
      <point x="475" y="560" type="line" smooth="yes"/>
      <point x="494" y="488"/>
      <point x="528" y="343"/>
      <point x="560" y="192"/>
      <point x="574" y="112" type="qcurve"/>
      <point x="553" y="112" type="line"/>
      <point x="568" y="192"/>
      <point x="600" y="343"/>
      <point x="635" y="488"/>
      <point x="654" y="560" type="qcurve" smooth="yes"/>
      <point x="900" y="1490" type="line"/>
      <point x="1108" y="1490" type="line"/>
      <point x="1352" y="560" type="line" smooth="yes"/>
      <point x="1371" y="488"/>
      <point x="1407" y="343"/>
      <point x="1440" y="192"/>
      <point x="1455" y="112" type="qcurve"/>
      <point x="1431" y="112" type="line"/>
      <point x="1446" y="192"/>
      <point x="1478" y="343"/>
      <point x="1514" y="488"/>
      <point x="1532" y="560" type="qcurve" smooth="yes"/>
      <point x="1772" y="1490" type="line"/>
      <point x="1956" y="1490" type="line"/>
      <point x="1548" y="0" type="line"/>
      <point x="1338" y="0" type="line"/>
      <point x="1077" y="960" type="line" smooth="yes"/>
      <point x="1050" y="1060"/>
      <point x="1006" y="1264"/>
      <point x="985" y="1400" type="qcurve"/>
      <point x="1021" y="1400" type="line"/>
      <point x="1000" y="1264"/>
      <point x="957" y="1060"/>
      <point x="930" y="960" type="qcurve" smooth="yes"/>
      <point x="670" y="0" type="line"/>
    </contour>
  </outline>
</glyph>
<glyph name="X" format="2">
  <advance width="1397"/>
  <unicode hex="0058"/>
  <anchor x="938" y="-6" name="m.uni0326"/>
  <anchor x="938" y="1490" name="m.uni030F_1"/>
  <outline>
    <contour>
      <point x="57" y="0" type="line"/>
      <point x="640" y="833" type="line"/>
      <point x="640" y="692" type="line"/>
      <point x="90" y="1490" type="line"/>
      <point x="310" y="1490" type="line"/>
      <point x="525" y="1174" type="line" smooth="yes"/>
      <point x="557" y="1127"/>
      <point x="583" y="1088"/>
      <point x="604" y="1056" type="curve" smooth="yes"/>
      <point x="624" y="1024"/>
      <point x="643" y="993"/>
      <point x="660" y="962" type="curve" smooth="yes"/>
      <point x="677" y="931"/>
      <point x="696" y="895"/>
      <point x="717" y="852" type="curve"/>
      <point x="684" y="852" type="line"/>
      <point x="705" y="894"/>
      <point x="725" y="930"/>
      <point x="742" y="961" type="curve" smooth="yes"/>
      <point x="776" y="1022"/>
      <point x="814" y="1081"/>
      <point x="878" y="1174" type="curve" smooth="yes"/>
      <point x="1097" y="1490" type="line"/>
      <point x="1312" y="1490" type="line"/>
      <point x="763" y="700" type="line"/>
      <point x="763" y="840" type="line"/>
      <point x="1340" y="0" type="line"/>
      <point x="1121" y="0" type="line"/>
      <point x="860" y="378" type="line" smooth="yes"/>
      <point x="832" y="419"/>
      <point x="808" y="455"/>
      <point x="789" y="485" type="curve" smooth="yes"/>
      <point x="750" y="544"/>
      <point x="720" y="597"/>
      <point x="679" y="680" type="curve"/>
      <point x="720" y="680" type="line"/>
      <point x="700" y="641"/>
      <point x="682" y="606"/>
      <point x="665" y="577" type="curve" smooth="yes"/>
      <point x="631" y="517"/>
      <point x="595" y="462"/>
      <point x="536" y="378" type="curve" smooth="yes"/>
      <point x="273" y="0" type="line"/>
    </contour>
  </outline>
</glyph>
<glyph name="Y" format="2">
  <advance width="1390"/>
  <unicode hex="0059"/>
  <anchor x="932" y="0" name="m.uni0326"/>
  <anchor x="921" y="1490" name="m.uni030F_1"/>
  <anchor x="1253" y="0" name="m.uni0328_4"/>
  <outline>
    <contour>
      <point x="600" y="0" type="line"/>
      <point x="600" y="610" type="line"/>
      <point x="52" y="1490" type="line"/>
      <point x="272" y="1490" type="line"/>
      <point x="567" y="1009" type="line" smooth="yes"/>
      <point x="600" y="955"/>
      <point x="630" y="904"/>
      <point x="656" y="855" type="curve" smooth="yes"/>
      <point x="681" y="806"/>
      <point x="708" y="744"/>
      <point x="735" y="669" type="curve"/>
      <point x="659" y="669" type="line"/>
      <point x="686" y="745"/>
      <point x="713" y="808"/>
      <point x="739" y="858" type="curve" smooth="yes"/>
      <point x="765" y="907"/>
      <point x="794" y="958"/>
      <point x="825" y="1009" type="curve" smooth="yes"/>
      <point x="1119" y="1490" type="line"/>
      <point x="1338" y="1490" type="line"/>
      <point x="790" y="610" type="line"/>
      <point x="790" y="0" type="line"/>
    </contour>
  </outline>
</glyph>
<glyph name="Z" format="2">
  <advance width="1288"/>
  <unicode hex="005A"/>
  <anchor x="762" y="0" name="m.uni0326"/>
  <anchor x="772" y="1490" name="m.uni030F_1"/>
  <outline>
    <contour>
      <point x="130" y="0" type="line"/>
      <point x="130" y="134" type="line"/>
      <point x="796" y="1125" type="line" smooth="yes"/>
      <point x="856" y="1214"/>
      <point x="926" y="1305"/>
      <point x="994" y="1393" type="curve"/>
      <point x="1015" y="1331" type="line"/>
      <point x="892" y="1323"/>
      <point x="768" y="1322"/>
      <point x="645" y="1322" type="curve" smooth="yes"/>
      <point x="122" y="1322" type="line"/>
      <point x="122" y="1490" type="line"/>
      <point x="1158" y="1490" type="line"/>
      <point x="1158" y="1354" type="line"/>
      <point x="502" y="379" type="line" smooth="yes"/>
      <point x="438" y="284"/>
      <point x="365" y="189"/>
      <point x="294" y="97" type="curve"/>
      <point x="273" y="159" type="line"/>
      <point x="396" y="167"/>
      <point x="517" y="168"/>
      <point x="640" y="168" type="curve" smooth="yes"/>
      <point x="1166" y="168" type="line"/>
      <point x="1166" y="0" type="line"/>
    </contour>
  </outline>
</glyph>
<glyph name="bracketleft" format="2">
  <advance width="738"/>
  <unicode hex="005B"/>
  <outline>
    <contour>
      <point x="226" y="-279" type="line"/>
      <point x="226" y="1581" type="line"/>
      <point x="616" y="1581" type="line"/>
      <point x="616" y="1435" type="line"/>
      <point x="388" y="1435" type="line"/>
      <point x="388" y="-133" type="line"/>
      <point x="616" y="-133" type="line"/>
      <point x="616" y="-279" type="line"/>
    </contour>
  </outline>
</glyph>
<glyph name="backslash" format="2">
  <advance width="730"/>
  <unicode hex="005C"/>
  <outline>
    <contour>
      <point x="526" y="-224" type="line"/>
      <point x="46" y="1560" type="line"/>
      <point x="204" y="1560" type="line"/>
      <point x="684" y="-224" type="line"/>
    </contour>
  </outline>
</glyph>
<glyph name="bracketright" format="2">
  <advance width="738"/>
  <unicode hex="005D"/>
  <outline>
    <contour>
      <point x="122" y="-279" type="line"/>
      <point x="122" y="-133" type="line"/>
      <point x="350" y="-133" type="line"/>
      <point x="350" y="1435" type="line"/>
      <point x="122" y="1435" type="line"/>
      <point x="122" y="1581" type="line"/>
      <point x="512" y="1581" type="line"/>
      <point x="512" y="-279" type="line"/>
    </contour>
  </outline>
</glyph>
<glyph name="asciicircum" format="2">
  <advance width="960"/>
  <unicode hex="005E"/>
  <outline>
    <contour>
      <point x="454" y="1362" type="line"/>
      <point x="506" y="1362" type="line"/>
      <point x="506" y="1288" type="line"/>
      <point x="454" y="1288" type="line"/>
    </contour>
    <contour>
      <point x="82" y="814" type="line"/>
      <point x="382" y="1442" type="line"/>
      <point x="578" y="1442" type="line"/>
      <point x="878" y="814" type="line"/>
      <point x="706" y="814" type="line"/>
      <point x="472" y="1318" type="line"/>
      <point x="488" y="1318" type="line"/>
      <point x="256" y="814" type="line"/>
    </contour>
  </outline>
</glyph>
<glyph name="underscore" format="2">
  <advance width="930"/>
  <unicode hex="005F"/>
  <outline>
    <contour>
      <point x="930" y="0" type="line"/>
      <point x="930" y="-160" type="line"/>
      <point x="0" y="-160" type="line"/>
      <point x="0" y="0" type="line"/>
    </contour>
  </outline>
</glyph>
<glyph name="a" format="2">
  <advance width="1142"/>
  <unicode hex="0061"/>
  <outline>
    <contour>
      <point x="472" y="-26" type="curve" smooth="yes"/>
      <point x="401" y="-26"/>
      <point x="337" y="-13"/>
      <point x="279" y="15" type="curve" smooth="yes"/>
      <point x="163" y="69"/>
      <point x="90" y="173"/>
      <point x="90" y="318" type="curve" smooth="yes"/>
      <point x="90" y="446"/>
      <point x="145" y="522"/>
      <point x="230" y="568" type="curve" smooth="yes"/>
      <point x="314" y="614"/>
      <point x="420" y="634"/>
      <point x="524" y="645" type="curve" smooth="yes"/>
      <point x="814" y="674" type="line"/>
      <point x="814" y="754" type="line" smooth="yes"/>
      <point x="814" y="802"/>
      <point x="805" y="843"/>
      <point x="788" y="877" type="curve"/>
      <point x="752" y="944"/>
      <point x="681" y="980"/>
      <point x="576" y="980" type="curve" smooth="yes"/>
      <point x="521" y="980"/>
      <point x="475" y="972"/>
      <point x="437" y="955" type="curve" smooth="yes"/>
      <point x="360" y="922"/>
      <point x="311" y="867"/>
      <point x="286" y="812" type="curve"/>
      <point x="122" y="870" type="line"/>
      <point x="151" y="938"/>
      <point x="191" y="991"/>
      <point x="240" y="1029" type="curve" smooth="yes"/>
      <point x="338" y="1105"/>
      <point x="458" y="1132"/>
      <point x="570" y="1132" type="curve" smooth="yes"/>
      <point x="606" y="1132"/>
      <point x="647" y="1128"/>
      <point x="694" y="1120" type="curve" smooth="yes"/>
      <point x="741" y="1111"/>
      <point x="786" y="1094"/>
      <point x="831" y="1068" type="curve"/>
      <point x="875" y="1041"/>
      <point x="912" y="1002"/>
      <point x="941" y="949" type="curve" smooth="yes"/>
      <point x="970" y="896"/>
      <point x="984" y="825"/>
      <point x="984" y="736" type="curve" smooth="yes"/>
      <point x="984" y="250" type="line" smooth="yes"/>
      <point x="984" y="191"/>
      <point x="1009" y="150"/>
      <point x="1068" y="150" type="curve" smooth="yes"/>
      <point x="1087" y="150" type="line"/>
      <point x="1087" y="0" type="line"/>
      <point x="1018" y="0" type="line" smooth="yes"/>
      <point x="891" y="0"/>
      <point x="816" y="98"/>
      <point x="816" y="144" type="curve" smooth="yes"/>
      <point x="816" y="152" type="line"/>
      <point x="804" y="152" type="line"/>
      <point x="793" y="128"/>
      <point x="773" y="102"/>
      <point x="746" y="75" type="curve" smooth="yes"/>
      <point x="691" y="19"/>
      <point x="603" y="-26"/>
    </contour>
    <contour>
      <point x="498" y="128" type="curve" smooth="yes"/>
      <point x="566" y="128"/>
      <point x="624" y="141"/>
      <point x="671" y="168" type="curve" smooth="yes"/>
      <point x="765" y="221"/>
      <point x="814" y="312"/>
      <point x="814" y="404" type="curve" smooth="yes"/>
      <point x="814" y="537" type="line"/>
      <point x="516" y="498" type="line" smooth="yes"/>
      <point x="471" y="492"/>
      <point x="430" y="483"/>
      <point x="391" y="470" type="curve" smooth="yes"/>
      <point x="314" y="444"/>
      <point x="262" y="396"/>
      <point x="262" y="308" type="curve" smooth="yes"/>
      <point x="262" y="268"/>
      <point x="272" y="235"/>
      <point x="293" y="208" type="curve" smooth="yes"/>
      <point x="333" y="155"/>
      <point x="407" y="128"/>
    </contour>
  </outline>
</glyph>
<glyph name="b" format="2">
  <advance width="1246"/>
  <unicode hex="0062"/>
  <outline>
    <contour>
      <point x="668" y="-24" type="qcurve" smooth="yes"/>
      <point x="561" y="-24"/>
      <point x="431" y="49"/>
      <point x="361" y="142"/>
      <point x="342" y="172" type="qcurve"/>
      <point x="322" y="172" type="line"/>
      <point x="322" y="0" type="line"/>
      <point x="158" y="0" type="line"/>
      <point x="158" y="1490" type="line"/>
      <point x="328" y="1490" type="line"/>
      <point x="328" y="940" type="line"/>
      <point x="342" y="940" type="line"/>
      <point x="361" y="969"/>
      <point x="429" y="1060"/>
      <point x="557" y="1132"/>
      <point x="666" y="1132" type="qcurve" smooth="yes"/>
      <point x="807" y="1132"/>
      <point x="1021" y="991"/>
      <point x="1142" y="732"/>
      <point x="1142" y="556" type="qcurve" smooth="yes"/>
      <point x="1142" y="379"/>
      <point x="1022" y="118"/>
      <point x="808" y="-24"/>
    </contour>
    <contour>
      <point x="646" y="130" type="qcurve" smooth="yes"/>
      <point x="753" y="130"/>
      <point x="897" y="245"/>
      <point x="970" y="439"/>
      <point x="970" y="558" type="qcurve" smooth="yes"/>
      <point x="970" y="676"/>
      <point x="898" y="866"/>
      <point x="755" y="978"/>
      <point x="646" y="978" type="qcurve" smooth="yes"/>
      <point x="541" y="978"/>
      <point x="399" y="873"/>
      <point x="326" y="684"/>
      <point x="326" y="558" type="qcurve" smooth="yes"/>
      <point x="326" y="432"/>
      <point x="400" y="239"/>
      <point x="543" y="130"/>
    </contour>
  </outline>
</glyph>
<glyph name="c" format="2">
  <advance width="1170"/>
  <unicode hex="0063"/>
  <anchor x="739" y="0" name="m.uni0326"/>
  <anchor x="739" y="1180" name="m.uni030F_1"/>
  <anchor x="739" y="0" name="m.uni0327_3"/>
  <outline>
    <contour>
      <point x="613" y="-24" type="curve" smooth="yes"/>
      <point x="512" y="-24"/>
      <point x="423" y="0"/>
      <point x="347" y="48" type="curve" smooth="yes"/>
      <point x="270" y="96"/>
      <point x="211" y="163"/>
      <point x="168" y="250" type="curve" smooth="yes"/>
      <point x="125" y="337"/>
      <point x="104" y="437"/>
      <point x="104" y="552" type="curve" smooth="yes"/>
      <point x="104" y="669"/>
      <point x="125" y="771"/>
      <point x="168" y="858" type="curve" smooth="yes"/>
      <point x="211" y="945"/>
      <point x="270" y="1012"/>
      <point x="347" y="1060" type="curve" smooth="yes"/>
      <point x="423" y="1108"/>
      <point x="512" y="1132"/>
      <point x="613" y="1132" type="curve" smooth="yes"/>
      <point x="721" y="1132"/>
      <point x="818" y="1103"/>
      <point x="898" y="1051" type="curve" smooth="yes"/>
      <point x="977" y="998"/>
      <point x="1035" y="920"/>
      <point x="1066" y="823" type="curve"/>
      <point x="893" y="774" type="line"/>
      <point x="877" y="831"/>
      <point x="843" y="880"/>
      <point x="796" y="916" type="curve" smooth="yes"/>
      <point x="748" y="951"/>
      <point x="686" y="971"/>
      <point x="613" y="971" type="curve" smooth="yes"/>
      <point x="538" y="971"/>
      <point x="477" y="952"/>
      <point x="429" y="913" type="curve" smooth="yes"/>
      <point x="381" y="874"/>
      <point x="345" y="822"/>
      <point x="322" y="759" type="curve" smooth="yes"/>
      <point x="299" y="696"/>
      <point x="287" y="627"/>
      <point x="287" y="552" type="curve" smooth="yes"/>
      <point x="287" y="479"/>
      <point x="299" y="411"/>
      <point x="322" y="348" type="curve" smooth="yes"/>
      <point x="345" y="285"/>
      <point x="381" y="234"/>
      <point x="429" y="195" type="curve" smooth="yes"/>
      <point x="477" y="156"/>
      <point x="538" y="137"/>
      <point x="613" y="137" type="curve" smooth="yes"/>
      <point x="688" y="137"/>
      <point x="751" y="158"/>
      <point x="800" y="195" type="curve" smooth="yes"/>
      <point x="848" y="231"/>
      <point x="882" y="283"/>
      <point x="898" y="343" type="curve"/>
      <point x="1070" y="294" type="line"/>
      <point x="1041" y="194"/>
      <point x="981" y="116"/>
      <point x="901" y="61" type="curve" smooth="yes"/>
      <point x="821" y="5"/>
      <point x="722" y="-24"/>
    </contour>
  </outline>
</glyph>
<glyph name="f" format="2">
  <advance width="758"/>
  <unicode hex="0066"/>
  <anchor x="484" y="0" name="m.uni0326"/>
  <anchor x="518" y="1614" name="m.uni030F_1"/>
  <outline>
    <contour>
      <point x="678" y="1118" type="line"/>
      <point x="678" y="972" type="line"/>
      <point x="20" y="972" type="line"/>
      <point x="20" y="1118" type="line"/>
    </contour>
    <contour>
      <point x="240" y="0" type="line"/>
      <point x="240" y="1272" type="line" smooth="yes"/>
      <point x="240" y="1368"/>
      <point x="331" y="1496"/>
      <point x="475" y="1560"/>
      <point x="554" y="1560" type="qcurve" smooth="yes"/>
      <point x="618" y="1560"/>
      <point x="699" y="1539"/>
      <point x="718" y="1530" type="qcurve"/>
      <point x="668" y="1382" type="line"/>
      <point x="655" y="1387"/>
      <point x="610" y="1400"/>
      <point x="572" y="1400" type="qcurve" smooth="yes"/>
      <point x="487" y="1400"/>
      <point x="410" y="1313"/>
      <point x="410" y="1230" type="qcurve" smooth="yes"/>
      <point x="410" y="0" type="line"/>
    </contour>
  </outline>
</glyph>
<glyph name="g" format="2">
  <advance width="1256"/>
  <unicode hex="0067"/>
  <anchor x="762" y="-411" name="m.uni0326"/>
  <anchor x="768" y="1180" name="m.uni030F_1"/>
  <outline>
    <contour>
      <point x="611" y="-442" type="curve" smooth="yes"/>
      <point x="528" y="-442"/>
      <point x="457" y="-432"/>
      <point x="397" y="-411" type="curve" smooth="yes"/>
      <point x="276" y="-369"/>
      <point x="198" y="-295"/>
      <point x="151" y="-214" type="curve"/>
      <point x="297" y="-120" type="line"/>
      <point x="313" y="-141"/>
      <point x="333" y="-165"/>
      <point x="357" y="-191" type="curve" smooth="yes"/>
      <point x="404" y="-243"/>
      <point x="480" y="-285"/>
      <point x="611" y="-285" type="curve" smooth="yes"/>
      <point x="700" y="-285"/>
      <point x="774" y="-264"/>
      <point x="832" y="-221" type="curve" smooth="yes"/>
      <point x="889" y="-178"/>
      <point x="918" y="-111"/>
      <point x="918" y="-19" type="curve" smooth="yes"/>
      <point x="918" y="205" type="line"/>
      <point x="901" y="205" type="line"/>
      <point x="888" y="184"/>
      <point x="871" y="158"/>
      <point x="848" y="129" type="curve" smooth="yes"/>
      <point x="825" y="100"/>
      <point x="792" y="74"/>
      <point x="749" y="52" type="curve" smooth="yes"/>
      <point x="706" y="29"/>
      <point x="648" y="18"/>
      <point x="576" y="18" type="curve" smooth="yes"/>
      <point x="487" y="18"/>
      <point x="406" y="39"/>
      <point x="335" y="82" type="curve" smooth="yes"/>
      <point x="264" y="124"/>
      <point x="207" y="186"/>
      <point x="166" y="267" type="curve" smooth="yes"/>
      <point x="125" y="348"/>
      <point x="104" y="447"/>
      <point x="104" y="564" type="curve" smooth="yes"/>
      <point x="104" y="679"/>
      <point x="124" y="780"/>
      <point x="165" y="865" type="curve" smooth="yes"/>
      <point x="206" y="950"/>
      <point x="262" y="1015"/>
      <point x="334" y="1062" type="curve" smooth="yes"/>
      <point x="405" y="1109"/>
      <point x="487" y="1132"/>
      <point x="580" y="1132" type="curve" smooth="yes"/>
      <point x="652" y="1132"/>
      <point x="710" y="1120"/>
      <point x="753" y="1097" type="curve" smooth="yes"/>
      <point x="796" y="1073"/>
      <point x="829" y="1046"/>
      <point x="852" y="1015" type="curve" smooth="yes"/>
      <point x="875" y="984"/>
      <point x="893" y="959"/>
      <point x="906" y="939" type="curve"/>
      <point x="923" y="939" type="line"/>
      <point x="923" y="1118" type="line"/>
      <point x="1098" y="1118" type="line"/>
      <point x="1098" y="-29" type="line" smooth="yes"/>
      <point x="1098" y="-125"/>
      <point x="1076" y="-204"/>
      <point x="1033" y="-265" type="curve" smooth="yes"/>
      <point x="946" y="-387"/>
      <point x="792" y="-442"/>
    </contour>
    <contour>
      <point x="606" y="178" type="curve" smooth="yes"/>
      <point x="674" y="178"/>
      <point x="731" y="194"/>
      <point x="778" y="225" type="curve" smooth="yes"/>
      <point x="871" y="287"/>
      <point x="920" y="405"/>
      <point x="920" y="568" type="curve" smooth="yes"/>
      <point x="920" y="647"/>
      <point x="908" y="717"/>
      <point x="885" y="778" type="curve"/>
      <point x="837" y="898"/>
      <point x="743" y="971"/>
      <point x="606" y="971" type="curve" smooth="yes"/>
      <point x="535" y="971"/>
      <point x="476" y="953"/>
      <point x="429" y="917" type="curve" smooth="yes"/>
      <point x="334" y="844"/>
      <point x="287" y="717"/>
      <point x="287" y="568" type="curve" smooth="yes"/>
      <point x="287" y="491"/>
      <point x="299" y="424"/>
      <point x="323" y="365" type="curve" smooth="yes"/>
      <point x="371" y="248"/>
      <point x="466" y="178"/>
    </contour>
  </outline>
</glyph>
<glyph name="h" format="2">
  <advance width="1211"/>
  <unicode hex="0068"/>
  <anchor x="782" y="0" name="m.uni0326"/>
  <anchor x="407" y="1490" name="m.uni030F_1"/>
  <anchor x="413" y="0" name="m.uni0327_3"/>
  <outline>
    <contour>
      <point x="338" y="670" type="curve" smooth="yes"/>
      <point x="338" y="0" type="line"/>
      <point x="158" y="0" type="line"/>
      <point x="158" y="1490" type="line"/>
      <point x="338" y="1490" type="line"/>
      <point x="338" y="847" type="line"/>
      <point x="307" y="847" type="line"/>
      <point x="341" y="950"/>
      <point x="390" y="1024"/>
      <point x="453" y="1067" type="curve" smooth="yes"/>
      <point x="516" y="1110"/>
      <point x="589" y="1132"/>
      <point x="674" y="1132" type="curve" smooth="yes"/>
      <point x="749" y="1132"/>
      <point x="816" y="1117"/>
      <point x="873" y="1086" type="curve" smooth="yes"/>
      <point x="987" y="1024"/>
      <point x="1053" y="899"/>
      <point x="1053" y="710" type="curve" smooth="yes"/>
      <point x="1053" y="0" type="line"/>
      <point x="872" y="0" type="line"/>
      <point x="872" y="695" type="line" smooth="yes"/>
      <point x="872" y="781"/>
      <point x="850" y="848"/>
      <point x="805" y="897" type="curve" smooth="yes"/>
      <point x="760" y="946"/>
      <point x="698" y="970"/>
      <point x="620" y="970" type="curve" smooth="yes"/>
      <point x="567" y="970"/>
      <point x="519" y="958"/>
      <point x="476" y="935" type="curve" smooth="yes"/>
      <point x="391" y="888"/>
      <point x="338" y="798"/>
    </contour>
  </outline>
</glyph>
<glyph name="l" format="2">
  <advance width="486"/>
  <unicode hex="006C"/>
  <anchor x="357" y="0" name="m.uni0326"/>
  <anchor x="356" y="1490" name="m.uni030F_1"/>
  <outline>
    <contour>
      <point x="328" y="1490" type="line"/>
      <point x="328" y="0" type="line"/>
      <point x="158" y="0" type="line"/>
      <point x="158" y="1490" type="line"/>
    </contour>
  </outline>
</glyph>
<glyph name="l.ss02" format="2">
  <advance width="564"/>
  <unicode hex="006C"/>
  <unicode hex="E050"/>
  <anchor x="459" y="0" name="m.uni0326"/>
  <anchor x="415" y="1490" name="m.uni030F_1"/>
  <outline>
    <contour>
      <point x="409" y="-8" type="curve" smooth="yes"/>
      <point x="325" y="-8"/>
      <point x="262" y="15"/>
      <point x="221" y="60" type="curve" smooth="yes"/>
      <point x="179" y="105"/>
      <point x="158" y="167"/>
      <point x="158" y="248" type="curve" smooth="yes"/>
      <point x="158" y="1490" type="line"/>
      <point x="338" y="1490" type="line"/>
      <point x="338" y="293" type="line" smooth="yes"/>
      <point x="338" y="242"/>
      <point x="344" y="206"/>
      <point x="357" y="185" type="curve"/>
      <point x="369" y="164"/>
      <point x="394" y="153"/>
      <point x="431" y="153" type="curve" smooth="yes"/>
      <point x="470" y="153"/>
      <point x="486" y="156"/>
      <point x="503" y="161" type="curve"/>
      <point x="539" y="9" type="line"/>
      <point x="507" y="0"/>
      <point x="457" y="-8"/>
    </contour>
  </outline>
</glyph>
<glyph name="m" format="2">
  <advance width="1794"/>
  <unicode hex="006D"/>
  <anchor x="1088" y="0" name="m.uni0326"/>
  <anchor x="1086" y="1180" name="m.uni030F_1"/>
  <outline>
    <contour>
      <point x="158" y="0" type="line"/>
      <point x="158" y="1118" type="line"/>
      <point x="333" y="1118" type="line"/>
      <point x="334" y="868" type="line"/>
      <point x="320" y="868" type="line"/>
      <point x="343" y="959"/>
      <point x="442" y="1078"/>
      <point x="575" y="1138"/>
      <point x="647" y="1138" type="qcurve" smooth="yes"/>
      <point x="769" y="1138"/>
      <point x="920" y="988"/>
      <point x="942" y="866" type="qcurve"/>
      <point x="918" y="866" type="line"/>
      <point x="938" y="950"/>
      <point x="1044" y="1072"/>
      <point x="1195" y="1138"/>
      <point x="1284" y="1138" type="qcurve" smooth="yes"/>
      <point x="1381" y="1138"/>
      <point x="1541" y="1054"/>
      <point x="1636" y="884"/>
      <point x="1636" y="754" type="qcurve" smooth="yes"/>
      <point x="1636" y="0" type="line"/>
      <point x="1455" y="0" type="line"/>
      <point x="1455" y="749" type="line" smooth="yes"/>
      <point x="1455" y="870"/>
      <point x="1320" y="974"/>
      <point x="1230" y="974" type="qcurve" smooth="yes"/>
      <point x="1155" y="974"/>
      <point x="1046" y="911"/>
      <point x="987" y="801"/>
      <point x="987" y="730" type="qcurve" smooth="yes"/>
      <point x="987" y="0" type="line"/>
      <point x="807" y="0" type="line"/>
      <point x="807" y="767" type="line" smooth="yes"/>
      <point x="807" y="860"/>
      <point x="683" y="974"/>
      <point x="588" y="974" type="qcurve" smooth="yes"/>
      <point x="523" y="974"/>
      <point x="408" y="913"/>
      <point x="338" y="793"/>
      <point x="338" y="704" type="qcurve" smooth="yes"/>
      <point x="338" y="0" type="line"/>
    </contour>
  </outline>
</glyph>
<glyph name="o" format="2">
  <advance width="1228"/>
  <unicode hex="006F"/>
  <anchor x="751" y="0" name="m.uni0326"/>
  <anchor x="751" y="1180" name="m.uni030F_1"/>
  <anchor x="1436" y="584" name="m.uni0328_4"/>
  <outline>
    <contour>
      <point x="613" y="-24" type="qcurve" smooth="yes"/>
      <point x="461" y="-24"/>
      <point x="232" y="120"/>
      <point x="104" y="380"/>
      <point x="104" y="552" type="qcurve" smooth="yes"/>
      <point x="104" y="727"/>
      <point x="232" y="988"/>
      <point x="461" y="1132"/>
      <point x="613" y="1132" type="qcurve" smooth="yes"/>
      <point x="766" y="1132"/>
      <point x="996" y="988"/>
      <point x="1124" y="727"/>
      <point x="1124" y="552" type="qcurve" smooth="yes"/>
      <point x="1124" y="380"/>
      <point x="996" y="120"/>
      <point x="766" y="-24"/>
    </contour>
    <contour>
      <point x="613" y="137" type="qcurve" smooth="yes"/>
      <point x="726" y="137"/>
      <point x="872" y="253"/>
      <point x="942" y="442"/>
      <point x="942" y="552" type="qcurve" smooth="yes"/>
      <point x="942" y="663"/>
      <point x="872" y="854"/>
      <point x="726" y="971"/>
      <point x="613" y="971" type="qcurve" smooth="yes"/>
      <point x="501" y="971"/>
      <point x="357" y="854"/>
      <point x="287" y="664"/>
      <point x="287" y="552" type="qcurve" smooth="yes"/>
      <point x="287" y="442"/>
      <point x="357" y="253"/>
      <point x="501" y="137"/>
    </contour>
  </outline>
</glyph>
<glyph name="q" format="2">
  <advance width="1254"/>
  <unicode hex="0071"/>
  <anchor x="1121" y="-401" name="m.uni0326"/>
  <anchor x="764" y="1180" name="m.uni030F_1"/>
  <outline>
    <contour>
      <point x="1096" y="-418" type="line"/>
      <point x="916" y="-418" type="line"/>
      <point x="916" y="173" type="line"/>
      <point x="902" y="173" type="line"/>
      <point x="884" y="142"/>
      <point x="813" y="49"/>
      <point x="684" y="-24"/>
      <point x="577" y="-24" type="qcurve" smooth="yes"/>
      <point x="438" y="-24"/>
      <point x="224" y="118"/>
      <point x="104" y="378"/>
      <point x="104" y="556" type="qcurve" smooth="yes"/>
      <point x="104" y="733"/>
      <point x="225" y="992"/>
      <point x="439" y="1132"/>
      <point x="578" y="1132" type="qcurve" smooth="yes"/>
      <point x="687" y="1132"/>
      <point x="815" y="1060"/>
      <point x="884" y="969"/>
      <point x="902" y="939" type="qcurve"/>
      <point x="922" y="939" type="line"/>
      <point x="922" y="1118" type="line"/>
      <point x="1096" y="1118" type="line"/>
    </contour>
    <contour>
      <point x="604" y="137" type="qcurve" smooth="yes"/>
      <point x="706" y="137"/>
      <point x="846" y="244"/>
      <point x="918" y="434"/>
      <point x="918" y="558" type="qcurve" smooth="yes"/>
      <point x="918" y="682"/>
      <point x="847" y="867"/>
      <point x="707" y="971"/>
      <point x="604" y="971" type="qcurve" smooth="yes"/>
      <point x="498" y="971"/>
      <point x="357" y="861"/>
      <point x="287" y="674"/>
      <point x="287" y="558" type="qcurve" smooth="yes"/>
      <point x="287" y="441"/>
      <point x="358" y="250"/>
      <point x="500" y="137"/>
    </contour>
  </outline>
</glyph>
<glyph name="r" format="2">
  <advance width="762"/>
  <unicode hex="0072"/>
  <anchor x="362" y="0" name="m.uni0326"/>
  <anchor x="633" y="1180" name="m.uni030F_1"/>
  <outline>
    <contour>
      <point x="158" y="0" type="line"/>
      <point x="158" y="1118" type="line"/>
      <point x="322" y="1118" type="line"/>
      <point x="322" y="948" type="line"/>
      <point x="334" y="948" type="line"/>
      <point x="365" y="1031"/>
      <point x="526" y="1134"/>
      <point x="626" y="1134" type="qcurve" smooth="yes"/>
      <point x="645" y="1134"/>
      <point x="701" y="1132"/>
      <point x="716" y="1132" type="qcurve"/>
      <point x="716" y="958" type="line"/>
      <point x="707" y="960"/>
      <point x="645" y="968"/>
      <point x="610" y="968" type="qcurve" smooth="yes"/>
      <point x="529" y="968"/>
      <point x="401" y="900"/>
      <point x="328" y="782"/>
      <point x="328" y="706" type="qcurve" smooth="yes"/>
      <point x="328" y="0" type="line"/>
    </contour>
  </outline>
</glyph>
<glyph name="s" format="2">
  <advance width="1070"/>
  <unicode hex="0073"/>
  <anchor x="725" y="0" name="m.uni0326"/>
  <anchor x="721" y="1180" name="m.uni030F_1"/>
  <anchor x="697" y="0" name="m.uni0327_3"/>
  <outline>
    <contour>
      <point x="532" y="-24" type="qcurve" smooth="yes"/>
      <point x="418" y="-24"/>
      <point x="242" y="43"/>
      <point x="128" y="173"/>
      <point x="108" y="268" type="qcurve"/>
      <point x="270" y="308" type="line"/>
      <point x="293" y="218"/>
      <point x="424" y="128"/>
      <point x="530" y="128" type="qcurve" smooth="yes"/>
      <point x="649" y="128"/>
      <point x="792" y="231"/>
      <point x="792" y="302" type="qcurve" smooth="yes"/>
      <point x="792" y="361"/>
      <point x="710" y="440"/>
      <point x="626" y="460" type="qcurve" smooth="yes"/>
      <point x="440" y="504" type="line" smooth="yes"/>
      <point x="286" y="541"/>
      <point x="142" y="693"/>
      <point x="142" y="808" type="qcurve" smooth="yes"/>
      <point x="142" y="903"/>
      <point x="249" y="1049"/>
      <point x="435" y="1132"/>
      <point x="552" y="1132" type="qcurve" smooth="yes"/>
      <point x="663" y="1132"/>
      <point x="820" y="1065"/>
      <point x="922" y="946"/>
      <point x="948" y="866" type="qcurve"/>
      <point x="794" y="824" type="line"/>
      <point x="772" y="881"/>
      <point x="665" y="984"/>
      <point x="552" y="984" type="qcurve" smooth="yes"/>
      <point x="450" y="984"/>
      <point x="314" y="889"/>
      <point x="314" y="818" type="qcurve" smooth="yes"/>
      <point x="314" y="754"/>
      <point x="407" y="678"/>
      <point x="506" y="654" type="qcurve" smooth="yes"/>
      <point x="672" y="614" type="line" smooth="yes"/>
      <point x="821" y="578"/>
      <point x="968" y="428"/>
      <point x="968" y="312" type="qcurve" smooth="yes"/>
      <point x="968" y="216"/>
      <point x="858" y="64"/>
      <point x="662" y="-24"/>
    </contour>
  </outline>
</glyph>
<glyph name="t" format="2">
  <advance width="670"/>
  <unicode hex="0074"/>
  <anchor x="543" y="0" name="m.uni0326"/>
  <anchor x="463" y="1424" name="m.uni030F_1"/>
  <anchor x="664" y="0" name="m.uni0327_3"/>
  <outline>
    <contour>
      <point x="598" y="1118" type="line"/>
      <point x="598" y="964" type="line"/>
      <point x="20" y="964" type="line"/>
      <point x="20" y="1118" type="line"/>
    </contour>
    <contour>
      <point x="188" y="1384" type="line"/>
      <point x="368" y="1384" type="line"/>
      <point x="368" y="290" type="line" smooth="yes"/>
      <point x="368" y="240"/>
      <point x="378" y="204"/>
      <point x="399" y="181" type="curve" smooth="yes"/>
      <point x="419" y="158"/>
      <point x="453" y="146"/>
      <point x="500" y="146" type="curve" smooth="yes"/>
      <point x="511" y="146"/>
      <point x="526" y="147"/>
      <point x="544" y="150" type="curve" smooth="yes"/>
      <point x="561" y="153"/>
      <point x="577" y="155"/>
      <point x="592" y="158" type="curve"/>
      <point x="629" y="6" type="line"/>
      <point x="592" y="-7"/>
      <point x="542" y="-14"/>
      <point x="495" y="-14" type="curve" smooth="yes"/>
      <point x="398" y="-14"/>
      <point x="323" y="12"/>
      <point x="269" y="63" type="curve" smooth="yes"/>
      <point x="215" y="114"/>
      <point x="188" y="185"/>
      <point x="188" y="276" type="curve" smooth="yes"/>
    </contour>
  </outline>
</glyph>
<glyph name="u" format="2">
  <advance width="1211"/>
  <unicode hex="0075"/>
  <anchor x="808" y="0" name="m.uni0326"/>
  <anchor x="784" y="1180" name="m.uni030F_1"/>
  <anchor x="1473" y="0" name="m.uni0328_4"/>
  <outline>
    <contour>
      <point x="537" y="-14" type="curve" smooth="yes"/>
      <point x="462" y="-14"/>
      <point x="396" y="2"/>
      <point x="339" y="33" type="curve" smooth="yes"/>
      <point x="225" y="95"/>
      <point x="158" y="220"/>
      <point x="158" y="408" type="curve" smooth="yes"/>
      <point x="158" y="1118" type="line"/>
      <point x="338" y="1118" type="line"/>
      <point x="338" y="423" type="line" smooth="yes"/>
      <point x="338" y="337"/>
      <point x="361" y="270"/>
      <point x="406" y="221" type="curve" smooth="yes"/>
      <point x="451" y="172"/>
      <point x="513" y="148"/>
      <point x="591" y="148" type="curve" smooth="yes"/>
      <point x="644" y="148"/>
      <point x="692" y="160"/>
      <point x="735" y="183" type="curve" smooth="yes"/>
      <point x="819" y="230"/>
      <point x="872" y="321"/>
      <point x="872" y="448" type="curve" smooth="yes"/>
      <point x="872" y="1118" type="line"/>
      <point x="1053" y="1118" type="line"/>
      <point x="1053" y="0" type="line"/>
      <point x="879" y="0" type="line"/>
      <point x="879" y="271" type="line"/>
      <point x="903" y="271" type="line"/>
      <point x="868" y="166"/>
      <point x="819" y="93"/>
      <point x="756" y="50" type="curve" smooth="yes"/>
      <point x="692" y="7"/>
      <point x="619" y="-14"/>
    </contour>
  </outline>
</glyph>
<glyph name="v" format="2">
  <advance width="1151"/>
  <unicode hex="0076"/>
  <anchor x="778" y="0" name="m.uni0326"/>
  <anchor x="778" y="1180" name="m.uni030F_1"/>
  <outline>
    <contour>
      <point x="481" y="0" type="line"/>
      <point x="54" y="1118" type="line"/>
      <point x="251" y="1118" type="line"/>
      <point x="489" y="455" type="line" smooth="yes"/>
      <point x="540" y="318"/>
      <point x="570" y="179"/>
      <point x="609" y="51" type="curve"/>
      <point x="543" y="51" type="line"/>
      <point x="582" y="179"/>
      <point x="613" y="318"/>
      <point x="662" y="455" type="curve" smooth="yes"/>
      <point x="900" y="1118" type="line"/>
      <point x="1097" y="1118" type="line"/>
      <point x="670" y="0" type="line"/>
    </contour>
  </outline>
</glyph>
<glyph name="w" format="2">
  <advance width="1676"/>
  <unicode hex="0077"/>
  <anchor x="1082" y="0" name="m.uni0326"/>
  <anchor x="1090" y="1180" name="m.uni030F_1"/>
  <outline>
    <contour>
      <point x="409" y="0" type="line"/>
      <point x="70" y="1118" type="line"/>
      <point x="261" y="1118" type="line"/>
      <point x="397" y="630" type="line" smooth="yes"/>
      <point x="434" y="497"/>
      <point x="479" y="330"/>
      <point x="520" y="117" type="curve"/>
      <point x="489" y="117" type="line"/>
      <point x="529" y="321"/>
      <point x="571" y="489"/>
      <point x="610" y="630" type="curve" smooth="yes"/>
      <point x="744" y="1118" type="line"/>
      <point x="936" y="1118" type="line"/>
      <point x="1068" y="630" type="line" smooth="yes"/>
      <point x="1105" y="493"/>
      <point x="1147" y="326"/>
      <point x="1187" y="117" type="curve"/>
      <point x="1155" y="117" type="line"/>
      <point x="1198" y="324"/>
      <point x="1240" y="490"/>
      <point x="1279" y="630" type="curve" smooth="yes"/>
      <point x="1415" y="1118" type="line"/>
      <point x="1606" y="1118" type="line"/>
      <point x="1267" y="0" type="line"/>
      <point x="1088" y="0" type="line"/>
      <point x="943" y="506" type="line" smooth="yes"/>
      <point x="928" y="557"/>
      <point x="914" y="610"/>
      <point x="900" y="663" type="curve" smooth="yes"/>
      <point x="886" y="716"/>
      <point x="872" y="771"/>
      <point x="859" y="827" type="curve" smooth="yes"/>
      <point x="846" y="883"/>
      <point x="832" y="940"/>
      <point x="818" y="998" type="curve"/>
      <point x="858" y="998" type="line"/>
      <point x="845" y="941"/>
      <point x="831" y="884"/>
      <point x="818" y="828" type="curve" smooth="yes"/>
      <point x="790" y="715"/>
      <point x="762" y="606"/>
      <point x="733" y="506" type="curve" smooth="yes"/>
      <point x="588" y="0" type="line"/>
    </contour>
  </outline>
</glyph>
<glyph name="y" format="2">
  <advance width="1151"/>
  <unicode hex="0079"/>
  <anchor x="1278" y="0" name="m.uni0326"/>
  <anchor x="755" y="1180" name="m.uni030F_1"/>
  <anchor x="1134" y="0" name="m.uni0328_4"/>
  <outline>
    <contour>
      <point x="140" y="-405" type="curve"/>
      <point x="186" y="-249" type="line"/>
      <point x="205" y="-254" type="line" smooth="yes"/>
      <point x="242" y="-263"/>
      <point x="275" y="-266"/>
      <point x="305" y="-262" type="curve" smooth="yes"/>
      <point x="365" y="-253"/>
      <point x="413" y="-206"/>
      <point x="449" y="-99" type="curve" smooth="yes"/>
      <point x="481" y="-6" type="line"/>
      <point x="54" y="1118" type="line"/>
      <point x="251" y="1118" type="line"/>
      <point x="489" y="455" type="line" smooth="yes"/>
      <point x="514" y="386"/>
      <point x="536" y="317"/>
      <point x="553" y="249" type="curve" smooth="yes"/>
      <point x="570" y="181"/>
      <point x="589" y="115"/>
      <point x="608" y="51" type="curve"/>
      <point x="542" y="51" type="line"/>
      <point x="581" y="179"/>
      <point x="612" y="318"/>
      <point x="661" y="455" type="curve" smooth="yes"/>
      <point x="901" y="1118" type="line"/>
      <point x="1097" y="1118" type="line"/>
      <point x="606" y="-167" type="line" smooth="yes"/>
      <point x="583" y="-226"/>
      <point x="556" y="-275"/>
      <point x="525" y="-314" type="curve"/>
      <point x="461" y="-390"/>
      <point x="377" y="-426"/>
      <point x="272" y="-426" type="curve" smooth="yes"/>
      <point x="208" y="-426"/>
      <point x="159" y="-414"/>
    </contour>
  </outline>
</glyph>
<glyph name="z" format="2">
  <advance width="1126"/>
  <unicode hex="007A"/>
  <anchor x="720" y="0" name="m.uni0326"/>
  <anchor x="725" y="1180" name="m.uni030F_1"/>
  <outline>
    <contour>
      <point x="126" y="0" type="line"/>
      <point x="126" y="130" type="line"/>
      <point x="760" y="946" type="line"/>
      <point x="760" y="958" type="line"/>
      <point x="146" y="958" type="line"/>
      <point x="146" y="1118" type="line"/>
      <point x="980" y="1118" type="line"/>
      <point x="980" y="980" type="line"/>
      <point x="364" y="172" type="line"/>
      <point x="364" y="160" type="line"/>
      <point x="1000" y="160" type="line"/>
      <point x="1000" y="0" type="line"/>
    </contour>
  </outline>
</glyph>
<glyph name="braceleft" format="2">
  <advance width="873"/>
  <unicode hex="007B"/>
  <outline>
    <contour>
      <point x="144" y="646" type="curve"/>
      <point x="144" y="741" type="line"/>
      <point x="225" y="741"/>
      <point x="282" y="758"/>
      <point x="314" y="792" type="curve" smooth="yes"/>
      <point x="346" y="825"/>
      <point x="362" y="881"/>
      <point x="362" y="960" type="curve" smooth="yes"/>
      <point x="362" y="1190" type="line" smooth="yes"/>
      <point x="362" y="1258"/>
      <point x="369" y="1317"/>
      <point x="383" y="1366" type="curve" smooth="yes"/>
      <point x="396" y="1415"/>
      <point x="418" y="1456"/>
      <point x="449" y="1488" type="curve" smooth="yes"/>
      <point x="479" y="1519"/>
      <point x="519" y="1543"/>
      <point x="569" y="1558" type="curve" smooth="yes"/>
      <point x="618" y="1573"/>
      <point x="679" y="1581"/>
      <point x="750" y="1581" type="curve"/>
      <point x="750" y="1430" type="line"/>
      <point x="665" y="1431"/>
      <point x="607" y="1412"/>
      <point x="576" y="1373" type="curve" smooth="yes"/>
      <point x="544" y="1334"/>
      <point x="528" y="1272"/>
      <point x="528" y="1187" type="curve" smooth="yes"/>
      <point x="528" y="901" type="line" smooth="yes"/>
      <point x="528" y="825"/>
      <point x="512" y="762"/>
      <point x="457" y="717" type="curve" smooth="yes"/>
      <point x="430" y="694"/>
      <point x="391" y="677"/>
      <point x="341" y="665" type="curve" smooth="yes"/>
      <point x="290" y="652"/>
      <point x="225" y="646"/>
    </contour>
    <contour>
      <point x="750" y="-279" type="line"/>
      <point x="679" y="-279"/>
      <point x="618" y="-272"/>
      <point x="569" y="-257" type="curve" smooth="yes"/>
      <point x="519" y="-242"/>
      <point x="479" y="-218"/>
      <point x="449" y="-187" type="curve" smooth="yes"/>
      <point x="418" y="-155"/>
      <point x="396" y="-114"/>
      <point x="383" y="-65" type="curve" smooth="yes"/>
      <point x="369" y="-16"/>
      <point x="362" y="43"/>
      <point x="362" y="112" type="curve" smooth="yes"/>
      <point x="362" y="340" type="line" smooth="yes"/>
      <point x="362" y="419"/>
      <point x="346" y="476"/>
      <point x="314" y="510" type="curve" smooth="yes"/>
      <point x="282" y="544"/>
      <point x="225" y="561"/>
      <point x="144" y="561" type="curve"/>
      <point x="144" y="656" type="line"/>
      <point x="225" y="656"/>
      <point x="290" y="650"/>
      <point x="341" y="637" type="curve" smooth="yes"/>
      <point x="391" y="624"/>
      <point x="430" y="607"/>
      <point x="457" y="584" type="curve" smooth="yes"/>
      <point x="512" y="538"/>
      <point x="528" y="474"/>
      <point x="528" y="399" type="curve" smooth="yes"/>
      <point x="528" y="115" type="line" smooth="yes"/>
      <point x="528" y="30"/>
      <point x="544" y="-32"/>
      <point x="576" y="-71" type="curve" smooth="yes"/>
      <point x="607" y="-110"/>
      <point x="665" y="-130"/>
      <point x="750" y="-130" type="curve"/>
    </contour>
    <contour>
      <point x="144" y="560" type="line"/>
      <point x="144" y="742" type="line"/>
      <point x="323" y="742" type="line"/>
      <point x="323" y="560" type="line"/>
    </contour>
  </outline>
</glyph>
<glyph name="bar" format="2">
  <advance width="670"/>
  <unicode hex="007C"/>
  <outline>
    <contour>
      <point x="408" y="1970" type="line"/>
      <point x="408" y="-480" type="line"/>
      <point x="262" y="-480" type="line"/>
      <point x="262" y="1970" type="line"/>
    </contour>
  </outline>
</glyph>
<glyph name="braceright" format="2">
  <advance width="873"/>
  <unicode hex="007D"/>
  <outline>
    <contour>
      <point x="729" y="646" type="line"/>
      <point x="568" y="646"/>
      <point x="471" y="672"/>
      <point x="416" y="717" type="curve" smooth="yes"/>
      <point x="361" y="762"/>
      <point x="345" y="825"/>
      <point x="345" y="901" type="curve" smooth="yes"/>
      <point x="345" y="1187" type="line" smooth="yes"/>
      <point x="345" y="1271"/>
      <point x="329" y="1333"/>
      <point x="298" y="1372" type="curve" smooth="yes"/>
      <point x="267" y="1411"/>
      <point x="208" y="1430"/>
      <point x="123" y="1430" type="curve"/>
      <point x="123" y="1581" type="line"/>
      <point x="194" y="1581"/>
      <point x="255" y="1573"/>
      <point x="304" y="1558" type="curve" smooth="yes"/>
      <point x="353" y="1543"/>
      <point x="393" y="1519"/>
      <point x="424" y="1488" type="curve"/>
      <point x="454" y="1456"/>
      <point x="476" y="1415"/>
      <point x="490" y="1366" type="curve" smooth="yes"/>
      <point x="503" y="1317"/>
      <point x="510" y="1258"/>
      <point x="510" y="1190" type="curve" smooth="yes"/>
      <point x="510" y="960" type="line" smooth="yes"/>
      <point x="510" y="881"/>
      <point x="526" y="825"/>
      <point x="559" y="792" type="curve"/>
      <point x="591" y="758"/>
      <point x="648" y="741"/>
      <point x="729" y="741" type="curve"/>
    </contour>
    <contour>
      <point x="123" y="-279" type="curve"/>
      <point x="123" y="-130" type="line"/>
      <point x="208" y="-130"/>
      <point x="267" y="-110"/>
      <point x="298" y="-71" type="curve" smooth="yes"/>
      <point x="329" y="-32"/>
      <point x="345" y="30"/>
      <point x="345" y="115" type="curve" smooth="yes"/>
      <point x="345" y="399" type="line" smooth="yes"/>
      <point x="345" y="474"/>
      <point x="361" y="538"/>
      <point x="416" y="584" type="curve" smooth="yes"/>
      <point x="471" y="630"/>
      <point x="568" y="656"/>
      <point x="729" y="656" type="curve"/>
      <point x="729" y="561" type="line"/>
      <point x="647" y="560"/>
      <point x="590" y="543"/>
      <point x="558" y="509" type="curve" smooth="yes"/>
      <point x="526" y="475"/>
      <point x="510" y="419"/>
      <point x="510" y="340" type="curve" smooth="yes"/>
      <point x="510" y="112" type="line" smooth="yes"/>
      <point x="510" y="43"/>
      <point x="503" y="-16"/>
      <point x="490" y="-65" type="curve" smooth="yes"/>
      <point x="476" y="-114"/>
      <point x="454" y="-155"/>
      <point x="424" y="-187" type="curve"/>
      <point x="393" y="-218"/>
      <point x="353" y="-242"/>
      <point x="304" y="-257" type="curve" smooth="yes"/>
      <point x="255" y="-272"/>
      <point x="194" y="-279"/>
    </contour>
    <contour>
      <point x="729" y="561" type="line"/>
      <point x="549" y="560" type="line"/>
      <point x="549" y="742" type="line"/>
      <point x="729" y="741" type="line"/>
    </contour>
  </outline>
</glyph>
<glyph name="asciitilde" format="2">
  <advance width="1350"/>
  <unicode hex="007E"/>
  <outline>
    <contour>
      <point x="168" y="442" type="line"/>
      <point x="166" y="563"/>
      <point x="249" y="710"/>
      <point x="382" y="776"/>
      <point x="456" y="776" type="qcurve" smooth="yes"/>
      <point x="531" y="776"/>
      <point x="654" y="712"/>
      <point x="734" y="642" type="qcurve" smooth="yes"/>
      <point x="787" y="596"/>
      <point x="852" y="558"/>
      <point x="890" y="558" type="qcurve" smooth="yes"/>
      <point x="952" y="558"/>
      <point x="1024" y="649"/>
      <point x="1024" y="736" type="qcurve"/>
      <point x="1182" y="736" type="line"/>
      <point x="1184" y="616"/>
      <point x="1101" y="469"/>
      <point x="968" y="402"/>
      <point x="894" y="402" type="qcurve" smooth="yes"/>
      <point x="819" y="402"/>
      <point x="696" y="466"/>
      <point x="616" y="536" type="qcurve" smooth="yes"/>
      <point x="563" y="582"/>
      <point x="498" y="620"/>
      <point x="460" y="620" type="qcurve" smooth="yes"/>
      <point x="401" y="620"/>
      <point x="325" y="537"/>
      <point x="326" y="442" type="qcurve"/>
    </contour>
  </outline>
</glyph>
<glyph name="exclamdown" format="2">
  <advance width="589"/>
  <unicode hex="00A1"/>
  <outline>
    <contour>
      <point x="385" y="650" type="line"/>
      <point x="397" y="-361" type="line"/>
      <point x="193" y="-361" type="line"/>
      <point x="206" y="650" type="line"/>
    </contour>
    <contour>
      <point x="294" y="1142" type="qcurve" smooth="yes"/>
      <point x="350" y="1142"/>
      <point x="429" y="1064"/>
      <point x="429" y="1008" type="qcurve" smooth="yes"/>
      <point x="429" y="952"/>
      <point x="350" y="873"/>
      <point x="294" y="873" type="qcurve" smooth="yes"/>
      <point x="239" y="873"/>
      <point x="160" y="952"/>
      <point x="160" y="1008" type="qcurve" smooth="yes"/>
      <point x="160" y="1064"/>
      <point x="239" y="1142"/>
    </contour>
  </outline>
</glyph>
<glyph name="cent" format="2">
  <advance width="1170"/>
  <unicode hex="00A2"/>
  <anchor x="739" y="165" name="m.uni0326"/>
  <anchor x="739" y="1345" name="m.uni030F_1"/>
  <anchor x="739" y="165" name="m.uni0327_3"/>
  <outline>
    <contour>
      <point x="543" y="0" type="line"/>
      <point x="543" y="1490" type="line"/>
      <point x="661" y="1490" type="line"/>
      <point x="661" y="0" type="line"/>
    </contour>
    <contour>
      <point x="613" y="166" type="curve" smooth="yes"/>
      <point x="512" y="166"/>
      <point x="423" y="190"/>
      <point x="347" y="238" type="curve" smooth="yes"/>
      <point x="270" y="286"/>
      <point x="211" y="353"/>
      <point x="168" y="440" type="curve" smooth="yes"/>
      <point x="125" y="527"/>
      <point x="104" y="627"/>
      <point x="104" y="742" type="curve" smooth="yes"/>
      <point x="104" y="859"/>
      <point x="125" y="961"/>
      <point x="168" y="1048" type="curve" smooth="yes"/>
      <point x="211" y="1135"/>
      <point x="270" y="1202"/>
      <point x="347" y="1250" type="curve" smooth="yes"/>
      <point x="423" y="1298"/>
      <point x="512" y="1322"/>
      <point x="613" y="1322" type="curve" smooth="yes"/>
      <point x="721" y="1322"/>
      <point x="818" y="1293"/>
      <point x="898" y="1241" type="curve" smooth="yes"/>
      <point x="977" y="1188"/>
      <point x="1035" y="1110"/>
      <point x="1066" y="1013" type="curve"/>
      <point x="893" y="964" type="line"/>
      <point x="877" y="1021"/>
      <point x="843" y="1070"/>
      <point x="796" y="1106" type="curve" smooth="yes"/>
      <point x="748" y="1141"/>
      <point x="686" y="1161"/>
      <point x="613" y="1161" type="curve" smooth="yes"/>
      <point x="538" y="1161"/>
      <point x="477" y="1142"/>
      <point x="429" y="1103" type="curve" smooth="yes"/>
      <point x="381" y="1064"/>
      <point x="345" y="1012"/>
      <point x="322" y="949" type="curve" smooth="yes"/>
      <point x="299" y="886"/>
      <point x="287" y="817"/>
      <point x="287" y="742" type="curve" smooth="yes"/>
      <point x="287" y="669"/>
      <point x="299" y="601"/>
      <point x="322" y="538" type="curve" smooth="yes"/>
      <point x="345" y="475"/>
      <point x="381" y="424"/>
      <point x="429" y="385" type="curve" smooth="yes"/>
      <point x="477" y="346"/>
      <point x="538" y="327"/>
      <point x="613" y="327" type="curve" smooth="yes"/>
      <point x="688" y="327"/>
      <point x="751" y="348"/>
      <point x="800" y="385" type="curve" smooth="yes"/>
      <point x="848" y="421"/>
      <point x="882" y="473"/>
      <point x="898" y="533" type="curve"/>
      <point x="1070" y="484" type="line"/>
      <point x="1041" y="384"/>
      <point x="981" y="306"/>
      <point x="901" y="251" type="curve" smooth="yes"/>
      <point x="821" y="195"/>
      <point x="722" y="166"/>
    </contour>
  </outline>
</glyph>
<glyph name="sterling" format="2">
  <advance width="1243"/>
  <unicode hex="00A3"/>
  <outline>
    <contour>
      <point x="110" y="112" type="curve"/>
      <point x="110" y="160" type="line"/>
      <point x="163" y="160"/>
      <point x="204" y="176"/>
      <point x="233" y="207" type="curve" smooth="yes"/>
      <point x="262" y="238"/>
      <point x="275" y="289"/>
      <point x="273" y="362" type="curve" smooth="yes"/>
      <point x="252" y="1054" type="line" smooth="yes"/>
      <point x="249" y="1143"/>
      <point x="267" y="1222"/>
      <point x="304" y="1291" type="curve" smooth="yes"/>
      <point x="341" y="1360"/>
      <point x="394" y="1413"/>
      <point x="463" y="1452" type="curve" smooth="yes"/>
      <point x="532" y="1491"/>
      <point x="611" y="1510"/>
      <point x="702" y="1510" type="curve" smooth="yes"/>
      <point x="778" y="1510"/>
      <point x="846" y="1495"/>
      <point x="906" y="1464" type="curve" smooth="yes"/>
      <point x="1026" y="1402"/>
      <point x="1107" y="1288"/>
      <point x="1130" y="1140" type="curve"/>
      <point x="967" y="1114" type="line"/>
      <point x="954" y="1187"/>
      <point x="924" y="1245"/>
      <point x="879" y="1287" type="curve" smooth="yes"/>
      <point x="833" y="1329"/>
      <point x="774" y="1350"/>
      <point x="702" y="1350" type="curve" smooth="yes"/>
      <point x="643" y="1350"/>
      <point x="592" y="1338"/>
      <point x="550" y="1315" type="curve" smooth="yes"/>
      <point x="465" y="1267"/>
      <point x="419" y="1178"/>
      <point x="422" y="1058" type="curve" smooth="yes"/>
      <point x="443" y="366" type="line" smooth="yes"/>
      <point x="444" y="322"/>
      <point x="437" y="285"/>
      <point x="420" y="255" type="curve" smooth="yes"/>
      <point x="403" y="225"/>
      <point x="382" y="201"/>
      <point x="355" y="182" type="curve" smooth="yes"/>
      <point x="328" y="163"/>
      <point x="299" y="148"/>
      <point x="268" y="138" type="curve" smooth="yes"/>
      <point x="237" y="128"/>
      <point x="207" y="121"/>
      <point x="179" y="118" type="curve"/>
      <point x="150" y="114"/>
      <point x="127" y="112"/>
    </contour>
    <contour>
      <point x="110" y="0" type="line"/>
      <point x="110" y="160" type="line"/>
      <point x="1150" y="160" type="line"/>
      <point x="1150" y="0" type="line"/>
    </contour>
    <contour>
      <point x="110" y="672" type="line"/>
      <point x="110" y="818" type="line"/>
      <point x="920" y="818" type="line"/>
      <point x="920" y="672" type="line"/>
    </contour>
  </outline>
</glyph>
<glyph name="currency" format="2">
  <advance width="1484"/>
  <unicode hex="00A4"/>
  <outline>
    <contour>
      <point x="738" y="-20" type="curve" smooth="yes"/>
      <point x="573" y="-20"/>
      <point x="425" y="48"/>
      <point x="317" y="162" type="curve" smooth="yes"/>
      <point x="208" y="276"/>
      <point x="143" y="431"/>
      <point x="143" y="608" type="curve" smooth="yes"/>
      <point x="143" y="785"/>
      <point x="208" y="941"/>
      <point x="317" y="1054" type="curve" smooth="yes"/>
      <point x="425" y="1167"/>
      <point x="573" y="1234"/>
      <point x="738" y="1234" type="curve" smooth="yes"/>
      <point x="902" y="1234"/>
      <point x="1051" y="1167"/>
      <point x="1160" y="1054" type="curve" smooth="yes"/>
      <point x="1269" y="941"/>
      <point x="1335" y="785"/>
      <point x="1335" y="608" type="curve" smooth="yes"/>
      <point x="1335" y="431"/>
      <point x="1269" y="275"/>
      <point x="1160" y="161" type="curve" smooth="yes"/>
      <point x="1051" y="47"/>
      <point x="902" y="-20"/>
    </contour>
    <contour>
      <point x="738" y="142" type="curve" smooth="yes"/>
      <point x="818" y="142"/>
      <point x="891" y="163"/>
      <point x="956" y="206" type="curve" smooth="yes"/>
      <point x="1021" y="248"/>
      <point x="1072" y="304"/>
      <point x="1111" y="375" type="curve" smooth="yes"/>
      <point x="1149" y="446"/>
      <point x="1168" y="523"/>
      <point x="1168" y="608" type="curve" smooth="yes"/>
      <point x="1168" y="694"/>
      <point x="1149" y="772"/>
      <point x="1111" y="843" type="curve" smooth="yes"/>
      <point x="1072" y="914"/>
      <point x="1021" y="970"/>
      <point x="956" y="1012" type="curve" smooth="yes"/>
      <point x="891" y="1053"/>
      <point x="818" y="1074"/>
      <point x="738" y="1074" type="curve" smooth="yes"/>
      <point x="659" y="1074"/>
      <point x="586" y="1053"/>
      <point x="521" y="1012" type="curve" smooth="yes"/>
      <point x="455" y="970"/>
      <point x="403" y="914"/>
      <point x="364" y="843" type="curve" smooth="yes"/>
      <point x="325" y="772"/>
      <point x="305" y="694"/>
      <point x="305" y="608" type="curve" smooth="yes"/>
      <point x="305" y="523"/>
      <point x="325" y="446"/>
      <point x="364" y="375" type="curve" smooth="yes"/>
      <point x="403" y="304"/>
      <point x="455" y="248"/>
      <point x="521" y="206" type="curve" smooth="yes"/>
      <point x="586" y="163"/>
      <point x="659" y="142"/>
    </contour>
    <contour>
      <point x="1162" y="925" type="line"/>
      <point x="1044" y="1049" type="line"/>
      <point x="1244" y="1255" type="line"/>
      <point x="1366" y="1131" type="line"/>
    </contour>
    <contour>
      <point x="1244" y="-15" type="line"/>
      <point x="1044" y="191" type="line"/>
      <point x="1162" y="313" type="line"/>
      <point x="1366" y="109" type="line"/>
    </contour>
    <contour>
      <point x="238" y="-15" type="line"/>
      <point x="120" y="109" type="line"/>
      <point x="320" y="313" type="line"/>
      <point x="442" y="191" type="line"/>
    </contour>
    <contour>
      <point x="320" y="925" type="line"/>
      <point x="120" y="1131" type="line"/>
      <point x="238" y="1255" type="line"/>
      <point x="442" y="1049" type="line"/>
    </contour>
  </outline>
</glyph>
<glyph name="yen" format="2">
  <advance width="1122"/>
  <unicode hex="00A5"/>
  <outline>
    <contour>
      <point x="230" y="1490" type="line"/>
      <point x="610" y="660" type="line"/>
      <point x="472" y="602" type="line"/>
      <point x="30" y="1490" type="line"/>
    </contour>
    <contour>
      <point x="512" y="660" type="line"/>
      <point x="894" y="1490" type="line"/>
      <point x="1094" y="1490" type="line"/>
      <point x="652" y="602" type="line"/>
    </contour>
    <contour>
      <point x="652" y="782" type="line"/>
      <point x="652" y="0" type="line"/>
      <point x="472" y="0" type="line"/>
      <point x="472" y="782" type="line"/>
    </contour>
    <contour>
      <point x="978" y="742" type="line"/>
      <point x="978" y="610" type="line"/>
      <point x="146" y="610" type="line"/>
      <point x="146" y="742" type="line"/>
    </contour>
    <contour>
      <point x="978" y="454" type="line"/>
      <point x="978" y="322" type="line"/>
      <point x="146" y="322" type="line"/>
      <point x="146" y="454" type="line"/>
    </contour>
  </outline>
</glyph>
<glyph name="brokenbar" format="2">
  <advance width="544"/>
  <unicode hex="00A6"/>
  <outline>
    <contour>
      <point x="192" y="402" type="line"/>
      <point x="352" y="402" type="line"/>
      <point x="352" y="-280" type="line"/>
      <point x="192" y="-280" type="line"/>
    </contour>
    <contour>
      <point x="352" y="1490" type="line"/>
      <point x="352" y="812" type="line"/>
      <point x="192" y="812" type="line"/>
      <point x="192" y="1490" type="line"/>
    </contour>
  </outline>
</glyph>
<glyph name="section" format="2">
  <advance width="1128"/>
  <unicode hex="00A7"/>
  <outline>
    <contour>
      <point x="926" y="1138" type="qcurve"/>
      <point x="760" y="1138" type="line"/>
      <point x="759" y="1232"/>
      <point x="664" y="1356"/>
      <point x="562" y="1356" type="qcurve" smooth="yes"/>
      <point x="497" y="1356"/>
      <point x="412" y="1307"/>
      <point x="372" y="1235"/>
      <point x="372" y="1198" type="qcurve" smooth="yes"/>
      <point x="372" y="1155"/>
      <point x="422" y="1079"/>
      <point x="495" y="1019"/>
      <point x="530" y="998" type="qcurve" smooth="yes"/>
      <point x="812" y="832" type="line" smooth="yes"/>
      <point x="840" y="816"/>
      <point x="912" y="762"/>
      <point x="980" y="684"/>
      <point x="1024" y="580"/>
      <point x="1024" y="512" type="qcurve" smooth="yes"/>
      <point x="1024" y="458"/>
      <point x="968" y="351"/>
      <point x="876" y="268"/>
      <point x="820" y="250" type="qcurve"/>
      <point x="820" y="248" type="line"/>
      <point x="873" y="202"/>
      <point x="922" y="82"/>
      <point x="922" y="12" type="qcurve" smooth="yes"/>
      <point x="922" y="-96"/>
      <point x="817" y="-235"/>
      <point x="649" y="-302"/>
      <point x="552" y="-302" type="qcurve" smooth="yes"/>
      <point x="438" y="-302"/>
      <point x="260" y="-212"/>
      <point x="158" y="-44"/>
      <point x="158" y="72" type="qcurve"/>
      <point x="326" y="72" type="line"/>
      <point x="326" y="-34"/>
      <point x="455" y="-148"/>
      <point x="552" y="-148" type="qcurve" smooth="yes"/>
      <point x="633" y="-148"/>
      <point x="756" y="-69"/>
      <point x="756" y="12" type="qcurve" smooth="yes"/>
      <point x="756" y="67"/>
      <point x="707" y="141"/>
      <point x="635" y="192"/>
      <point x="600" y="212" type="qcurve" smooth="yes"/>
      <point x="318" y="376" type="line" smooth="yes"/>
      <point x="289" y="392"/>
      <point x="216" y="446"/>
      <point x="148" y="525"/>
      <point x="104" y="631"/>
      <point x="104" y="698" type="qcurve" smooth="yes"/>
      <point x="104" y="751"/>
      <point x="156" y="860"/>
      <point x="248" y="945"/>
      <point x="308" y="962" type="qcurve"/>
      <point x="308" y="968" type="line"/>
      <point x="262" y="1015"/>
      <point x="206" y="1128"/>
      <point x="206" y="1198" type="qcurve" smooth="yes"/>
      <point x="206" y="1289"/>
      <point x="298" y="1429"/>
      <point x="459" y="1510"/>
      <point x="562" y="1510" type="qcurve" smooth="yes"/>
      <point x="674" y="1510"/>
      <point x="837" y="1415"/>
      <point x="926" y="1247"/>
    </contour>
    <contour>
      <point x="864" y="512" type="qcurve" smooth="yes"/>
      <point x="864" y="554"/>
      <point x="825" y="625"/>
      <point x="763" y="681"/>
      <point x="728" y="702" type="qcurve"/>
      <point x="442" y="866" type="line"/>
      <point x="410" y="886"/>
      <point x="326" y="849"/>
      <point x="264" y="759"/>
      <point x="264" y="698" type="qcurve" smooth="yes"/>
      <point x="264" y="628"/>
      <point x="350" y="539"/>
      <point x="404" y="506" type="qcurve"/>
      <point x="674" y="350" type="line" smooth="yes"/>
      <point x="705" y="332"/>
      <point x="795" y="366"/>
      <point x="864" y="453"/>
    </contour>
  </outline>
</glyph>
<glyph name="copyright" format="2">
  <advance width="1874"/>
  <unicode hex="00A9"/>
  <outline>
    <contour>
      <point x="512" y="744" type="qcurve" smooth="yes"/>
      <point x="512" y="864"/>
      <point x="628" y="1060"/>
      <point x="825" y="1176"/>
      <point x="944" y="1176" type="qcurve" smooth="yes"/>
      <point x="1048" y="1176"/>
      <point x="1223" y="1087"/>
      <point x="1338" y="935"/>
      <point x="1352" y="838" type="qcurve"/>
      <point x="1176" y="838" type="line"/>
      <point x="1161" y="912"/>
      <point x="1028" y="1008"/>
      <point x="944" y="1008" type="qcurve" smooth="yes"/>
      <point x="872" y="1008"/>
      <point x="752" y="937"/>
      <point x="680" y="817"/>
      <point x="680" y="744" type="qcurve" smooth="yes"/>
      <point x="680" y="672"/>
      <point x="752" y="553"/>
      <point x="872" y="482"/>
      <point x="944" y="482" type="qcurve" smooth="yes"/>
      <point x="1028" y="482"/>
      <point x="1145" y="577"/>
      <point x="1160" y="652" type="qcurve"/>
      <point x="1336" y="652" type="line"/>
      <point x="1323" y="555"/>
      <point x="1215" y="401"/>
      <point x="1048" y="312"/>
      <point x="944" y="312" type="qcurve" smooth="yes"/>
      <point x="825" y="312"/>
      <point x="628" y="429"/>
      <point x="512" y="625"/>
    </contour>
    <contour>
      <point x="936" y="-24" type="qcurve" smooth="yes"/>
      <point x="778" y="-24"/>
      <point x="500" y="96"/>
      <point x="288" y="307"/>
      <point x="168" y="585"/>
      <point x="168" y="744" type="qcurve" smooth="yes"/>
      <point x="168" y="903"/>
      <point x="288" y="1182"/>
      <point x="500" y="1393"/>
      <point x="778" y="1512"/>
      <point x="936" y="1512" type="qcurve" smooth="yes"/>
      <point x="1096" y="1512"/>
      <point x="1374" y="1393"/>
      <point x="1585" y="1182"/>
      <point x="1704" y="903"/>
      <point x="1704" y="744" type="qcurve" smooth="yes"/>
      <point x="1704" y="585"/>
      <point x="1585" y="307"/>
      <point x="1374" y="96"/>
      <point x="1096" y="-24"/>
    </contour>
    <contour>
      <point x="936" y="151" type="qcurve" smooth="yes"/>
      <point x="1060" y="151"/>
      <point x="1276" y="243"/>
      <point x="1439" y="406"/>
      <point x="1531" y="621"/>
      <point x="1531" y="744" type="qcurve" smooth="yes"/>
      <point x="1531" y="867"/>
      <point x="1439" y="1083"/>
      <point x="1275" y="1247"/>
      <point x="1059" y="1339"/>
      <point x="936" y="1339" type="qcurve" smooth="yes"/>
      <point x="814" y="1339"/>
      <point x="599" y="1246"/>
      <point x="436" y="1083"/>
      <point x="343" y="867"/>
      <point x="343" y="744" type="qcurve" smooth="yes"/>
      <point x="343" y="622"/>
      <point x="435" y="407"/>
      <point x="598" y="244"/>
      <point x="813" y="151"/>
    </contour>
  </outline>
</glyph>
<glyph name="ordfeminine" format="2">
  <advance width="921"/>
  <unicode hex="00AA"/>
  <outline>
    <contour>
      <point x="804" y="579" type="line"/>
      <point x="804" y="453" type="line"/>
      <point x="150" y="453" type="line"/>
      <point x="150" y="579" type="line"/>
    </contour>
    <contour>
      <point x="389" y="690" type="curve" smooth="yes"/>
      <point x="322" y="690"/>
      <point x="266" y="709"/>
      <point x="219" y="747" type="curve" smooth="yes"/>
      <point x="172" y="784"/>
      <point x="148" y="839"/>
      <point x="148" y="912" type="curve" smooth="yes"/>
      <point x="148" y="985"/>
      <point x="177" y="1037"/>
      <point x="226" y="1073" type="curve" smooth="yes"/>
      <point x="274" y="1108"/>
      <point x="342" y="1128"/>
      <point x="422" y="1136" type="curve" smooth="yes"/>
      <point x="612" y="1156" type="line"/>
      <point x="612" y="1215" type="line" smooth="yes"/>
      <point x="612" y="1254"/>
      <point x="600" y="1284"/>
      <point x="576" y="1306" type="curve" smooth="yes"/>
      <point x="551" y="1328"/>
      <point x="517" y="1339"/>
      <point x="474" y="1339" type="curve" smooth="yes"/>
      <point x="435" y="1339"/>
      <point x="402" y="1330"/>
      <point x="375" y="1312" type="curve" smooth="yes"/>
      <point x="348" y="1293"/>
      <point x="330" y="1269"/>
      <point x="321" y="1240" type="curve"/>
      <point x="170" y="1258" type="line"/>
      <point x="186" y="1319"/>
      <point x="221" y="1367"/>
      <point x="274" y="1404" type="curve" smooth="yes"/>
      <point x="327" y="1440"/>
      <point x="395" y="1458"/>
      <point x="478" y="1458" type="curve" smooth="yes"/>
      <point x="529" y="1458"/>
      <point x="578" y="1450"/>
      <point x="623" y="1433" type="curve" smooth="yes"/>
      <point x="668" y="1416"/>
      <point x="704" y="1389"/>
      <point x="732" y="1353" type="curve" smooth="yes"/>
      <point x="760" y="1317"/>
      <point x="774" y="1270"/>
      <point x="774" y="1213" type="curve" smooth="yes"/>
      <point x="774" y="704" type="line"/>
      <point x="622" y="704" type="line"/>
      <point x="622" y="817" type="line"/>
      <point x="616" y="817" type="line"/>
      <point x="599" y="782"/>
      <point x="571" y="753"/>
      <point x="533" y="728" type="curve" smooth="yes"/>
      <point x="495" y="703"/>
      <point x="447" y="690"/>
    </contour>
    <contour>
      <point x="432" y="803" type="curve" smooth="yes"/>
      <point x="485" y="803"/>
      <point x="529" y="820"/>
      <point x="564" y="855" type="curve" smooth="yes"/>
      <point x="598" y="889"/>
      <point x="615" y="931"/>
      <point x="615" y="982" type="curve" smooth="yes"/>
      <point x="615" y="1051" type="line"/>
      <point x="449" y="1031" type="line" smooth="yes"/>
      <point x="397" y="1025"/>
      <point x="359" y="1012"/>
      <point x="336" y="993" type="curve" smooth="yes"/>
      <point x="313" y="974"/>
      <point x="301" y="947"/>
      <point x="301" y="914" type="curve" smooth="yes"/>
      <point x="301" y="880"/>
      <point x="314" y="853"/>
      <point x="339" y="833" type="curve" smooth="yes"/>
      <point x="364" y="813"/>
      <point x="395" y="803"/>
    </contour>
  </outline>
</glyph>
<glyph name="logicalnot" format="2">
  <advance width="1106"/>
  <unicode hex="00AC"/>
  <outline>
    <contour>
      <point x="972" y="806" type="line"/>
      <point x="972" y="634" type="line"/>
      <point x="136" y="634" type="line"/>
      <point x="136" y="806" type="line"/>
    </contour>
    <contour>
      <point x="972" y="728" type="line"/>
      <point x="972" y="376" type="line"/>
      <point x="770" y="376" type="line"/>
      <point x="770" y="728" type="line"/>
    </contour>
  </outline>
</glyph>
<glyph name="registered" format="2">
  <advance width="1374"/>
  <unicode hex="00AE"/>
  <outline>
    <contour>
      <point x="481" y="666" type="line"/>
      <point x="481" y="1202" type="line"/>
      <point x="753" y="1202" type="line" smooth="yes"/>
      <point x="776" y="1202"/>
      <point x="800" y="1196"/>
      <point x="826" y="1184" type="curve" smooth="yes"/>
      <point x="878" y="1159"/>
      <point x="920" y="1109"/>
      <point x="920" y="1032" type="curve" smooth="yes"/>
      <point x="920" y="993"/>
      <point x="911" y="959"/>
      <point x="892" y="932" type="curve" smooth="yes"/>
      <point x="854" y="876"/>
      <point x="794" y="848"/>
      <point x="745" y="848" type="curve" smooth="yes"/>
      <point x="550" y="848" type="line"/>
      <point x="550" y="937" type="line"/>
      <point x="709" y="937" type="line" smooth="yes"/>
      <point x="726" y="937"/>
      <point x="743" y="945"/>
      <point x="762" y="961" type="curve" smooth="yes"/>
      <point x="780" y="976"/>
      <point x="789" y="1000"/>
      <point x="789" y="1032" type="curve" smooth="yes"/>
      <point x="789" y="1064"/>
      <point x="780" y="1086"/>
      <point x="761" y="1098" type="curve"/>
      <point x="742" y="1109"/>
      <point x="726" y="1115"/>
      <point x="711" y="1115" type="curve" smooth="yes"/>
      <point x="601" y="1115" type="line"/>
      <point x="601" y="666" type="line"/>
    </contour>
    <contour>
      <point x="809" y="920" type="line"/>
      <point x="942" y="666" type="line"/>
      <point x="810" y="666" type="line"/>
      <point x="679" y="920" type="line"/>
    </contour>
    <contour>
      <point x="686" y="346" type="curve" smooth="yes"/>
      <point x="526" y="346"/>
      <point x="382" y="410"/>
      <point x="275" y="517" type="curve" smooth="yes"/>
      <point x="168" y="624"/>
      <point x="104" y="768"/>
      <point x="104" y="928" type="curve" smooth="yes"/>
      <point x="104" y="1088"/>
      <point x="168" y="1232"/>
      <point x="275" y="1339" type="curve" smooth="yes"/>
      <point x="382" y="1446"/>
      <point x="526" y="1510"/>
      <point x="686" y="1510" type="curve" smooth="yes"/>
      <point x="847" y="1510"/>
      <point x="991" y="1446"/>
      <point x="1098" y="1339" type="curve" smooth="yes"/>
      <point x="1205" y="1232"/>
      <point x="1268" y="1088"/>
      <point x="1268" y="928" type="curve" smooth="yes"/>
      <point x="1268" y="768"/>
      <point x="1205" y="624"/>
      <point x="1098" y="517" type="curve" smooth="yes"/>
      <point x="991" y="410"/>
      <point x="847" y="346"/>
    </contour>
    <contour>
      <point x="686" y="487" type="curve" smooth="yes"/>
      <point x="767" y="487"/>
      <point x="841" y="507"/>
      <point x="908" y="547" type="curve" smooth="yes"/>
      <point x="975" y="586"/>
      <point x="1028" y="639"/>
      <point x="1068" y="706" type="curve" smooth="yes"/>
      <point x="1107" y="773"/>
      <point x="1127" y="847"/>
      <point x="1127" y="928" type="curve" smooth="yes"/>
      <point x="1127" y="1009"/>
      <point x="1107" y="1083"/>
      <point x="1068" y="1150" type="curve" smooth="yes"/>
      <point x="1028" y="1217"/>
      <point x="975" y="1270"/>
      <point x="908" y="1310" type="curve" smooth="yes"/>
      <point x="841" y="1349"/>
      <point x="767" y="1369"/>
      <point x="686" y="1369" type="curve" smooth="yes"/>
      <point x="605" y="1369"/>
      <point x="532" y="1349"/>
      <point x="465" y="1310" type="curve" smooth="yes"/>
      <point x="398" y="1270"/>
      <point x="344" y="1217"/>
      <point x="305" y="1150" type="curve" smooth="yes"/>
      <point x="265" y="1083"/>
      <point x="245" y="1009"/>
      <point x="245" y="928" type="curve" smooth="yes"/>
      <point x="245" y="847"/>
      <point x="265" y="773"/>
      <point x="305" y="706" type="curve" smooth="yes"/>
      <point x="344" y="639"/>
      <point x="398" y="586"/>
      <point x="465" y="547" type="curve" smooth="yes"/>
      <point x="532" y="507"/>
      <point x="605" y="487"/>
    </contour>
  </outline>
</glyph>
<glyph name="degree" format="2">
  <advance width="930"/>
  <unicode hex="00B0"/>
  <outline>
    <contour>
      <point x="466" y="832" type="qcurve" smooth="yes"/>
      <point x="374" y="832"/>
      <point x="221" y="922"/>
      <point x="130" y="1074"/>
      <point x="130" y="1166" type="qcurve" smooth="yes"/>
      <point x="130" y="1259"/>
      <point x="221" y="1411"/>
      <point x="374" y="1502"/>
      <point x="466" y="1502" type="qcurve" smooth="yes"/>
      <point x="558" y="1502"/>
      <point x="710" y="1411"/>
      <point x="800" y="1259"/>
      <point x="800" y="1166" type="qcurve" smooth="yes"/>
      <point x="800" y="1074"/>
      <point x="710" y="922"/>
      <point x="558" y="832"/>
    </contour>
    <contour>
      <point x="466" y="978" type="qcurve" smooth="yes"/>
      <point x="518" y="978"/>
      <point x="603" y="1028"/>
      <point x="654" y="1114"/>
      <point x="654" y="1166" type="qcurve" smooth="yes"/>
      <point x="654" y="1219"/>
      <point x="603" y="1305"/>
      <point x="518" y="1356"/>
      <point x="466" y="1356" type="qcurve" smooth="yes"/>
      <point x="414" y="1356"/>
      <point x="327" y="1305"/>
      <point x="276" y="1219"/>
      <point x="276" y="1166" type="qcurve" smooth="yes"/>
      <point x="276" y="1114"/>
      <point x="327" y="1028"/>
      <point x="414" y="978"/>
    </contour>
  </outline>
</glyph>
<glyph name="plusminus" format="2">
  <advance width="1350"/>
  <unicode hex="00B1"/>
  <outline>
    <contour>
      <point x="206" y="70" type="line"/>
      <point x="206" y="232" type="line"/>
      <point x="1144" y="232" type="line"/>
      <point x="1144" y="70" type="line"/>
    </contour>
    <contour>
      <point x="206" y="658" type="line"/>
      <point x="206" y="820" type="line"/>
      <point x="1144" y="820" type="line"/>
      <point x="1144" y="658" type="line"/>
    </contour>
    <contour>
      <point x="594" y="360" type="line"/>
      <point x="594" y="1118" type="line"/>
      <point x="756" y="1118" type="line"/>
      <point x="756" y="360" type="line"/>
    </contour>
  </outline>
</glyph>
<glyph name="two.sups" format="2">
  <advance width="862"/>
  <unicode hex="00B2"/>
  <outline>
    <contour>
      <point x="102" y="744" type="line"/>
      <point x="102" y="858" type="line"/>
      <point x="442" y="1160" type="line" smooth="yes"/>
      <point x="519" y="1228"/>
      <point x="596" y="1325"/>
      <point x="596" y="1382" type="qcurve" smooth="yes"/>
      <point x="596" y="1447"/>
      <point x="496" y="1524"/>
      <point x="422" y="1524" type="qcurve" smooth="yes"/>
      <point x="343" y="1524"/>
      <point x="248" y="1441"/>
      <point x="248" y="1374" type="qcurve"/>
      <point x="96" y="1374" type="line"/>
      <point x="96" y="1498"/>
      <point x="281" y="1650"/>
      <point x="424" y="1650" type="qcurve" smooth="yes"/>
      <point x="521" y="1650"/>
      <point x="666" y="1580"/>
      <point x="748" y="1460"/>
      <point x="748" y="1384" type="qcurve" smooth="yes"/>
      <point x="748" y="1325"/>
      <point x="700" y="1223"/>
      <point x="598" y="1114"/>
      <point x="518" y="1044" type="qcurve" smooth="yes"/>
      <point x="328" y="878" type="line"/>
      <point x="328" y="872" type="line"/>
      <point x="774" y="872" type="line"/>
      <point x="774" y="744" type="line"/>
    </contour>
  </outline>
</glyph>
<glyph name="twosuperior" format="2">
  <advance width="905"/>
  <unicode hex="00B2"/>
  <anchor x="386" y="1690" name="m.uni030F_1"/>
  <outline>
    <contour>
      <point x="118" y="898" type="line"/>
      <point x="118" y="1021" type="line"/>
      <point x="458" y="1290" type="line" smooth="yes"/>
      <point x="490" y="1315"/>
      <point x="517" y="1338"/>
      <point x="538" y="1357" type="curve" smooth="yes"/>
      <point x="581" y="1396"/>
      <point x="601" y="1429"/>
      <point x="601" y="1469" type="curve" smooth="yes"/>
      <point x="601" y="1505"/>
      <point x="585" y="1534"/>
      <point x="554" y="1555" type="curve" smooth="yes"/>
      <point x="523" y="1576"/>
      <point x="484" y="1586"/>
      <point x="438" y="1586" type="curve" smooth="yes"/>
      <point x="391" y="1586"/>
      <point x="352" y="1576"/>
      <point x="323" y="1555" type="curve" smooth="yes"/>
      <point x="293" y="1534"/>
      <point x="278" y="1505"/>
      <point x="278" y="1469" type="curve"/>
      <point x="112" y="1469" type="line"/>
      <point x="112" y="1545"/>
      <point x="143" y="1606"/>
      <point x="204" y="1652" type="curve" smooth="yes"/>
      <point x="265" y="1697"/>
      <point x="343" y="1720"/>
      <point x="439" y="1720" type="curve" smooth="yes"/>
      <point x="540" y="1720"/>
      <point x="620" y="1698"/>
      <point x="681" y="1654" type="curve" smooth="yes"/>
      <point x="741" y="1609"/>
      <point x="771" y="1552"/>
      <point x="771" y="1483" type="curve" smooth="yes"/>
      <point x="771" y="1439"/>
      <point x="760" y="1396"/>
      <point x="724" y="1345" type="curve" smooth="yes"/>
      <point x="688" y="1294"/>
      <point x="622" y="1235"/>
      <point x="513" y="1155" type="curve" smooth="yes"/>
      <point x="360" y="1044" type="line"/>
      <point x="360" y="1037" type="line"/>
      <point x="797" y="1037" type="line"/>
      <point x="797" y="898" type="line"/>
    </contour>
  </outline>
</glyph>
<glyph name="three.sups" format="2">
  <advance width="882"/>
  <unicode hex="00B3"/>
  <outline>
    <contour>
      <point x="440" y="734" type="qcurve" smooth="yes"/>
      <point x="340" y="734"/>
      <point x="181" y="800"/>
      <point x="89" y="918"/>
      <point x="88" y="994" type="qcurve"/>
      <point x="248" y="994" type="line"/>
      <point x="250" y="936"/>
      <point x="359" y="864"/>
      <point x="440" y="864" type="qcurve" smooth="yes"/>
      <point x="525" y="864"/>
      <point x="634" y="943"/>
      <point x="634" y="1004" type="qcurve" smooth="yes"/>
      <point x="634" y="1065"/>
      <point x="517" y="1144"/>
      <point x="418" y="1144" type="qcurve" smooth="yes"/>
      <point x="346" y="1144" type="line"/>
      <point x="346" y="1260" type="line"/>
      <point x="418" y="1260" type="line" smooth="yes"/>
      <point x="500" y="1260"/>
      <point x="608" y="1333"/>
      <point x="608" y="1394" type="qcurve" smooth="yes"/>
      <point x="608" y="1450"/>
      <point x="516" y="1524"/>
      <point x="442" y="1524" type="qcurve" smooth="yes"/>
      <point x="368" y="1524"/>
      <point x="261" y="1452"/>
      <point x="258" y="1390" type="qcurve"/>
      <point x="108" y="1390" type="line"/>
      <point x="110" y="1468"/>
      <point x="199" y="1585"/>
      <point x="349" y="1650"/>
      <point x="442" y="1650" type="qcurve" smooth="yes"/>
      <point x="537" y="1650"/>
      <point x="681" y="1586"/>
      <point x="762" y="1474"/>
      <point x="762" y="1402" type="qcurve" smooth="yes"/>
      <point x="762" y="1323"/>
      <point x="655" y="1224"/>
      <point x="576" y="1210" type="qcurve"/>
      <point x="576" y="1204" type="line"/>
      <point x="683" y="1189"/>
      <point x="798" y="1073"/>
      <point x="798" y="992" type="qcurve" smooth="yes"/>
      <point x="798" y="918"/>
      <point x="706" y="801"/>
      <point x="545" y="734"/>
    </contour>
  </outline>
</glyph>
<glyph name="three.sups.ss01" format="2">
  <advance width="917"/>
  <unicode hex="00B3"/>
  <anchor x="462" y="1710" name="t.uni030F_1"/>
  <outline>
    <contour>
      <point x="460" y="888" type="qcurve" smooth="yes"/>
      <point x="360" y="888"/>
      <point x="201" y="945"/>
      <point x="106" y="1050"/>
      <point x="103" y="1121" type="qcurve"/>
      <point x="280" y="1121" type="line"/>
      <point x="285" y="1080"/>
      <point x="389" y="1030"/>
      <point x="462" y="1030" type="qcurve" smooth="yes"/>
      <point x="542" y="1030"/>
      <point x="640" y="1094"/>
      <point x="640" y="1149" type="qcurve" smooth="yes"/>
      <point x="640" y="1200"/>
      <point x="531" y="1274"/>
      <point x="431" y="1274" type="qcurve" smooth="yes"/>
      <point x="345" y="1274" type="line"/>
      <point x="345" y="1387" type="line"/>
      <point x="580" y="1565" type="line"/>
      <point x="580" y="1570" type="line"/>
      <point x="149" y="1570" type="line"/>
      <point x="149" y="1710" type="line"/>
      <point x="790" y="1710" type="line"/>
      <point x="790" y="1588" type="line"/>
      <point x="456" y="1328" type="line"/>
      <point x="456" y="1367" type="line"/>
      <point x="563" y="1381"/>
      <point x="729" y="1324"/>
      <point x="824" y="1210"/>
      <point x="824" y="1135" type="qcurve" smooth="yes"/>
      <point x="824" y="1059"/>
      <point x="728" y="948"/>
      <point x="564" y="888"/>
    </contour>
  </outline>
</glyph>
<glyph name="threesuperior" format="2">
  <advance width="917"/>
  <unicode hex="00B3"/>
  <anchor x="430" y="1690" name="m.uni030F_1"/>
  <outline>
    <contour>
      <point x="460" y="888" type="curve" smooth="yes"/>
      <point x="393" y="888"/>
      <point x="334" y="898"/>
      <point x="281" y="917" type="curve" smooth="yes"/>
      <point x="175" y="955"/>
      <point x="107" y="1026"/>
      <point x="103" y="1121" type="curve"/>
      <point x="280" y="1121" type="line"/>
      <point x="283" y="1094"/>
      <point x="302" y="1072"/>
      <point x="337" y="1055" type="curve" smooth="yes"/>
      <point x="372" y="1038"/>
      <point x="413" y="1030"/>
      <point x="462" y="1030" type="curve" smooth="yes"/>
      <point x="515" y="1030"/>
      <point x="558" y="1041"/>
      <point x="591" y="1062" type="curve" smooth="yes"/>
      <point x="624" y="1083"/>
      <point x="640" y="1112"/>
      <point x="640" y="1149" type="curve" smooth="yes"/>
      <point x="640" y="1183"/>
      <point x="622" y="1212"/>
      <point x="586" y="1237" type="curve" smooth="yes"/>
      <point x="549" y="1262"/>
      <point x="498" y="1274"/>
      <point x="431" y="1274" type="curve" smooth="yes"/>
      <point x="345" y="1274" type="line"/>
      <point x="345" y="1387" type="line"/>
      <point x="580" y="1565" type="line"/>
      <point x="580" y="1570" type="line"/>
      <point x="149" y="1570" type="line"/>
      <point x="149" y="1710" type="line"/>
      <point x="790" y="1710" type="line"/>
      <point x="790" y="1588" type="line"/>
      <point x="456" y="1328" type="line"/>
      <point x="456" y="1367" type="line"/>
      <point x="527" y="1376"/>
      <point x="591" y="1372"/>
      <point x="646" y="1353" type="curve" smooth="yes"/>
      <point x="757" y="1315"/>
      <point x="824" y="1235"/>
      <point x="824" y="1135" type="curve" smooth="yes"/>
      <point x="824" y="1084"/>
      <point x="808" y="1041"/>
      <point x="776" y="1004" type="curve" smooth="yes"/>
      <point x="712" y="930"/>
      <point x="599" y="888"/>
    </contour>
  </outline>
</glyph>
<glyph name="micro" format="2">
  <advance width="1200"/>
  <unicode hex="00B5"/>
  <outline>
    <contour>
      <point x="158" y="-418" type="line"/>
      <point x="158" y="1118" type="line"/>
      <point x="338" y="1118" type="line"/>
      <point x="338" y="440" type="line" smooth="yes"/>
      <point x="338" y="371"/>
      <point x="350" y="314"/>
      <point x="375" y="270" type="curve" smooth="yes"/>
      <point x="423" y="182"/>
      <point x="509" y="143"/>
      <point x="609" y="143" type="curve" smooth="yes"/>
      <point x="660" y="143"/>
      <point x="705" y="153"/>
      <point x="745" y="174" type="curve" smooth="yes"/>
      <point x="824" y="215"/>
      <point x="873" y="301"/>
      <point x="873" y="440" type="curve" smooth="yes"/>
      <point x="873" y="1118" type="line"/>
      <point x="1053" y="1118" type="line"/>
      <point x="1053" y="253" type="line" smooth="yes"/>
      <point x="1053" y="180"/>
      <point x="1081" y="155"/>
      <point x="1161" y="155" type="curve" smooth="yes"/>
      <point x="1190" y="155" type="line"/>
      <point x="1190" y="0" type="line"/>
      <point x="1154" y="0" type="line" smooth="yes"/>
      <point x="969" y="0"/>
      <point x="877" y="87"/>
      <point x="877" y="251" type="curve" smooth="yes"/>
      <point x="877" y="352" type="line"/>
      <point x="919" y="352" type="line"/>
      <point x="919" y="204"/>
      <point x="873" y="112"/>
      <point x="809" y="58" type="curve" smooth="yes"/>
      <point x="744" y="4"/>
      <point x="668" y="-16"/>
      <point x="608" y="-16" type="curve" smooth="yes"/>
      <point x="548" y="-16"/>
      <point x="472" y="4"/>
      <point x="408" y="58" type="curve" smooth="yes"/>
      <point x="344" y="112"/>
      <point x="298" y="204"/>
      <point x="298" y="352" type="curve"/>
      <point x="338" y="352" type="line"/>
      <point x="338" y="-418" type="line"/>
    </contour>
  </outline>
</glyph>
<glyph name="paragraph" format="2">
  <advance width="1228"/>
  <unicode hex="00B6"/>
  <outline>
    <contour>
      <point x="1040" y="1330" type="line"/>
      <point x="686" y="1330" type="line"/>
      <point x="686" y="552" type="line"/>
      <point x="602" y="552" type="line" smooth="yes"/>
      <point x="444" y="552"/>
      <point x="224" y="674"/>
      <point x="110" y="887"/>
      <point x="110" y="1022" type="qcurve" smooth="yes"/>
      <point x="110" y="1156"/>
      <point x="224" y="1367"/>
      <point x="444" y="1490"/>
      <point x="602" y="1490" type="qcurve" smooth="yes"/>
      <point x="1040" y="1490" type="line"/>
    </contour>
    <contour>
      <point x="866" y="0" type="line"/>
      <point x="866" y="1490" type="line"/>
      <point x="1048" y="1490" type="line"/>
      <point x="1048" y="0" type="line"/>
    </contour>
  </outline>
</glyph>
<glyph name="one.sups" format="2">
  <advance width="642"/>
  <unicode hex="00B9"/>
  <outline>
    <contour>
      <point x="318" y="744" type="line"/>
      <point x="318" y="1480" type="line"/>
      <point x="312" y="1480" type="line"/>
      <point x="82" y="1326" type="line"/>
      <point x="82" y="1480" type="line"/>
      <point x="318" y="1638" type="line"/>
      <point x="470" y="1638" type="line"/>
      <point x="470" y="744" type="line"/>
    </contour>
  </outline>
</glyph>
<glyph name="one.sups.ss01" format="2">
  <advance width="623"/>
  <unicode hex="00B9"/>
  <outline>
    <contour>
      <point x="346" y="874" type="line"/>
      <point x="346" y="1441" type="line"/>
      <point x="359" y="1428" type="line"/>
      <point x="329" y="1428"/>
      <point x="273" y="1428"/>
      <point x="209" y="1428"/>
      <point x="126" y="1428" type="qcurve"/>
      <point x="126" y="1557" type="line"/>
      <point x="197" y="1557" type="line" smooth="yes"/>
      <point x="271" y="1557"/>
      <point x="358" y="1617"/>
      <point x="366" y="1685" type="qcurve"/>
      <point x="514" y="1685" type="line"/>
      <point x="514" y="874" type="line"/>
    </contour>
  </outline>
</glyph>
<glyph name="onesuperior" format="2">
  <advance width="645"/>
  <unicode hex="00B9"/>
  <outline>
    <contour>
      <point x="317" y="744" type="line"/>
      <point x="317" y="1477" type="line"/>
      <point x="311" y="1477" type="line"/>
      <point x="82" y="1324" type="line"/>
      <point x="82" y="1481" type="line"/>
      <point x="318" y="1638" type="line"/>
      <point x="473" y="1638" type="line"/>
      <point x="473" y="744" type="line"/>
    </contour>
  </outline>
</glyph>
<glyph name="ordmasculine" format="2">
  <advance width="922"/>
  <unicode hex="00BA"/>
  <outline>
    <contour>
      <point x="461" y="690" type="curve" smooth="yes"/>
      <point x="391" y="690"/>
      <point x="330" y="706"/>
      <point x="277" y="739" type="curve" smooth="yes"/>
      <point x="172" y="803"/>
      <point x="111" y="922"/>
      <point x="111" y="1074" type="curve" smooth="yes"/>
      <point x="111" y="1150"/>
      <point x="126" y="1217"/>
      <point x="155" y="1275" type="curve" smooth="yes"/>
      <point x="213" y="1390"/>
      <point x="321" y="1458"/>
      <point x="461" y="1458" type="curve" smooth="yes"/>
      <point x="532" y="1458"/>
      <point x="593" y="1442"/>
      <point x="646" y="1410" type="curve" smooth="yes"/>
      <point x="750" y="1345"/>
      <point x="812" y="1226"/>
      <point x="812" y="1074" type="curve" smooth="yes"/>
      <point x="812" y="998"/>
      <point x="797" y="931"/>
      <point x="768" y="874" type="curve" smooth="yes"/>
      <point x="709" y="758"/>
      <point x="602" y="690"/>
    </contour>
    <contour>
      <point x="461" y="816" type="curve" smooth="yes"/>
      <point x="500" y="816"/>
      <point x="534" y="827"/>
      <point x="562" y="850" type="curve" smooth="yes"/>
      <point x="618" y="895"/>
      <point x="649" y="977"/>
      <point x="649" y="1074" type="curve" smooth="yes"/>
      <point x="649" y="1124"/>
      <point x="642" y="1169"/>
      <point x="627" y="1208" type="curve" smooth="yes"/>
      <point x="597" y="1286"/>
      <point x="540" y="1334"/>
      <point x="461" y="1334" type="curve" smooth="yes"/>
      <point x="422" y="1334"/>
      <point x="388" y="1323"/>
      <point x="360" y="1300" type="curve" smooth="yes"/>
      <point x="303" y="1255"/>
      <point x="272" y="1173"/>
      <point x="272" y="1074" type="curve" smooth="yes"/>
      <point x="272" y="1026"/>
      <point x="280" y="983"/>
      <point x="295" y="944" type="curve" smooth="yes"/>
      <point x="325" y="866"/>
      <point x="382" y="816"/>
    </contour>
    <contour>
      <point x="804" y="579" type="line"/>
      <point x="804" y="453" type="line"/>
      <point x="118" y="453" type="line"/>
      <point x="118" y="579" type="line"/>
    </contour>
  </outline>
</glyph>
<glyph name="questiondown" format="2">
  <advance width="1047"/>
  <unicode hex="00BF"/>
  <outline>
    <contour>
      <point x="664" y="669" type="line"/>
      <point x="664" y="658" type="line" smooth="yes"/>
      <point x="664" y="522"/>
      <point x="611" y="372"/>
      <point x="511" y="286"/>
      <point x="442" y="244" type="qcurve" smooth="yes"/>
      <point x="376" y="204"/>
      <point x="286" y="81"/>
      <point x="286" y="-6" type="qcurve" smooth="yes"/>
      <point x="286" y="-75"/>
      <point x="351" y="-177"/>
      <point x="462" y="-233"/>
      <point x="529" y="-233" type="qcurve" smooth="yes"/>
      <point x="588" y="-233"/>
      <point x="697" y="-184"/>
      <point x="770" y="-80"/>
      <point x="775" y="3" type="qcurve"/>
      <point x="965" y="3" type="line"/>
      <point x="960" y="-122"/>
      <point x="841" y="-299"/>
      <point x="647" y="-392"/>
      <point x="529" y="-392" type="qcurve" smooth="yes"/>
      <point x="400" y="-392"/>
      <point x="208" y="-290"/>
      <point x="102" y="-113"/>
      <point x="102" y="1" type="qcurve" smooth="yes"/>
      <point x="102" y="122"/>
      <point x="208" y="294"/>
      <point x="305" y="353" type="qcurve" smooth="yes"/>
      <point x="370" y="393"/>
      <point x="448" y="465"/>
      <point x="483" y="570"/>
      <point x="483" y="658" type="qcurve" smooth="yes"/>
      <point x="483" y="669" type="line"/>
    </contour>
    <contour>
      <point x="571" y="1131" type="qcurve" smooth="yes"/>
      <point x="627" y="1131"/>
      <point x="706" y="1053"/>
      <point x="706" y="997" type="qcurve" smooth="yes"/>
      <point x="706" y="941"/>
      <point x="627" y="862"/>
      <point x="571" y="862" type="qcurve" smooth="yes"/>
      <point x="516" y="862"/>
      <point x="437" y="941"/>
      <point x="437" y="997" type="qcurve" smooth="yes"/>
      <point x="437" y="1053"/>
      <point x="516" y="1131"/>
    </contour>
  </outline>
</glyph>
<glyph name="AE" format="2">
  <advance width="2028"/>
  <unicode hex="00C6"/>
  <anchor x="1336" y="1490" name="m.uni030F_1"/>
  <outline>
    <contour>
      <point x="52" y="0" type="line"/>
      <point x="774" y="1490" type="line"/>
      <point x="1882" y="1490" type="line"/>
      <point x="1882" y="1330" type="line"/>
      <point x="1164" y="1330" type="line"/>
      <point x="1164" y="826" type="line"/>
      <point x="1836" y="826" type="line"/>
      <point x="1836" y="666" type="line"/>
      <point x="1164" y="666" type="line"/>
      <point x="1164" y="160" type="line"/>
      <point x="1894" y="160" type="line"/>
      <point x="1894" y="0" type="line"/>
      <point x="984" y="0" type="line"/>
      <point x="984" y="1330" type="line"/>
      <point x="876" y="1330" type="line"/>
      <point x="250" y="0" type="line"/>
    </contour>
    <contour>
      <point x="394" y="422" type="line"/>
      <point x="394" y="582" type="line"/>
      <point x="1074" y="582" type="line"/>
      <point x="1074" y="422" type="line"/>
    </contour>
  </outline>
</glyph>
<glyph name="multiply" format="2">
  <advance width="1350"/>
  <unicode hex="00D7"/>
  <outline>
    <contour>
      <point x="1030" y="116" type="line"/>
      <point x="210" y="936" type="line"/>
      <point x="320" y="1048" type="line"/>
      <point x="1140" y="226" type="line"/>
    </contour>
    <contour>
      <point x="320" y="116" type="line"/>
      <point x="210" y="226" type="line"/>
      <point x="1030" y="1048" type="line"/>
      <point x="1140" y="936" type="line"/>
    </contour>
  </outline>
</glyph>
<glyph name="Thorn" format="2">
  <advance width="1302"/>
  <unicode hex="00DE"/>
  <outline>
    <contour>
      <point x="168" y="1490" type="line"/>
      <point x="360" y="1490" type="line"/>
      <point x="360" y="0" type="line"/>
      <point x="168" y="0" type="line"/>
    </contour>
    <contour>
      <point x="259" y="1185" type="line"/>
      <point x="643" y="1184" type="line"/>
      <point x="803" y="1184"/>
      <point x="1023" y="1067"/>
      <point x="1138" y="873"/>
      <point x="1138" y="755" type="qcurve" smooth="yes"/>
      <point x="1138" y="636"/>
      <point x="1023" y="441"/>
      <point x="803" y="325"/>
      <point x="643" y="325" type="qcurve" smooth="yes"/>
      <point x="259" y="325" type="line"/>
      <point x="259" y="491" type="line"/>
      <point x="643" y="491" type="line" smooth="yes"/>
      <point x="745" y="491"/>
      <point x="886" y="553"/>
      <point x="958" y="669"/>
      <point x="958" y="751" type="qcurve" smooth="yes"/>
      <point x="958" y="833"/>
      <point x="886" y="953"/>
      <point x="745" y="1018"/>
      <point x="643" y="1018" type="qcurve" smooth="yes"/>
      <point x="259" y="1018" type="line"/>
    </contour>
  </outline>
</glyph>
<glyph name="germandbls" format="2">
  <advance width="1248"/>
  <unicode hex="00DF"/>
  <outline>
    <contour>
      <point x="180" y="0" type="line"/>
      <point x="180" y="1108" type="line" smooth="yes"/>
      <point x="180" y="1233"/>
      <point x="290" y="1413"/>
      <point x="484" y="1510"/>
      <point x="610" y="1510" type="qcurve" smooth="yes"/>
      <point x="734" y="1510"/>
      <point x="930" y="1417"/>
      <point x="1044" y="1245"/>
      <point x="1044" y="1126" type="qcurve" smooth="yes"/>
      <point x="1044" y="999"/>
      <point x="913" y="825"/>
      <point x="808" y="788" type="qcurve"/>
      <point x="808" y="774" type="line"/>
      <point x="951" y="760"/>
      <point x="1132" y="565"/>
      <point x="1132" y="410" type="qcurve" smooth="yes"/>
      <point x="1132" y="293"/>
      <point x="1024" y="107"/>
      <point x="829" y="0"/>
      <point x="698" y="0" type="qcurve" smooth="yes"/>
      <point x="536" y="0" type="line"/>
      <point x="536" y="160" type="line"/>
      <point x="702" y="160" type="line" smooth="yes"/>
      <point x="820" y="160"/>
      <point x="960" y="301"/>
      <point x="960" y="410" type="qcurve" smooth="yes"/>
      <point x="960" y="526"/>
      <point x="805" y="674"/>
      <point x="672" y="674" type="qcurve" smooth="yes"/>
      <point x="542" y="674" type="line"/>
      <point x="542" y="838" type="line"/>
      <point x="634" y="838" type="line" smooth="yes"/>
      <point x="708" y="838"/>
      <point x="814" y="913"/>
      <point x="872" y="1033"/>
      <point x="872" y="1100" type="qcurve" smooth="yes"/>
      <point x="872" y="1204"/>
      <point x="734" y="1350"/>
      <point x="614" y="1350" type="qcurve" smooth="yes"/>
      <point x="501" y="1350"/>
      <point x="352" y="1215"/>
      <point x="352" y="1108" type="qcurve" smooth="yes"/>
      <point x="352" y="0" type="line"/>
    </contour>
  </outline>
</glyph>
<glyph name="ae" format="2">
  <advance width="1879"/>
  <unicode hex="00E6"/>
  <anchor x="1017" y="1180" name="m.uni030F_1"/>
  <outline>
    <contour>
      <point x="472" y="-26" type="qcurve" smooth="yes"/>
      <point x="366" y="-26"/>
      <point x="192" y="54"/>
      <point x="90" y="208"/>
      <point x="90" y="318" type="qcurve" smooth="yes"/>
      <point x="90" y="414"/>
      <point x="176" y="542"/>
      <point x="316" y="617"/>
      <point x="484" y="650"/>
      <point x="566" y="650" type="qcurve" smooth="yes"/>
      <point x="1674" y="650" type="line"/>
      <point x="1590" y="587" type="line"/>
      <point x="1604" y="696"/>
      <point x="1538" y="870"/>
      <point x="1396" y="972"/>
      <point x="1295" y="972" type="qcurve" smooth="yes"/>
      <point x="1194" y="972"/>
      <point x="1048" y="873"/>
      <point x="970" y="714"/>
      <point x="970" y="623" type="qcurve" smooth="yes"/>
      <point x="970" y="522" type="line" smooth="yes"/>
      <point x="970" y="398"/>
      <point x="1056" y="226"/>
      <point x="1210" y="136"/>
      <point x="1311" y="136" type="qcurve" smooth="yes"/>
      <point x="1378" y="136"/>
      <point x="1486" y="174"/>
      <point x="1565" y="251"/>
      <point x="1586" y="308" type="qcurve"/>
      <point x="1761" y="263" type="line"/>
      <point x="1735" y="178"/>
      <point x="1611" y="49"/>
      <point x="1427" y="-24"/>
      <point x="1311" y="-24" type="qcurve" smooth="yes"/>
      <point x="1189" y="-24"/>
      <point x="996" y="58"/>
      <point x="872" y="204"/>
      <point x="851" y="300" type="qcurve"/>
      <point x="882" y="865" type="line"/>
      <point x="919" y="947"/>
      <point x="1036" y="1067"/>
      <point x="1195" y="1132"/>
      <point x="1295" y="1132" type="qcurve" smooth="yes"/>
      <point x="1384" y="1132"/>
      <point x="1556" y="1073"/>
      <point x="1696" y="942"/>
      <point x="1779" y="728"/>
      <point x="1779" y="573" type="qcurve" smooth="yes"/>
      <point x="1779" y="498" type="line"/>
      <point x="568" y="498" type="line" smooth="yes"/>
      <point x="489" y="498"/>
      <point x="354" y="457"/>
      <point x="271" y="373"/>
      <point x="271" y="309" type="qcurve" smooth="yes"/>
      <point x="271" y="222"/>
      <point x="402" y="133"/>
      <point x="502" y="133" type="qcurve" smooth="yes"/>
      <point x="602" y="133"/>
      <point x="739" y="211"/>
      <point x="810" y="336"/>
      <point x="810" y="404" type="qcurve" smooth="yes"/>
      <point x="810" y="755" type="line" smooth="yes"/>
      <point x="810" y="824"/>
      <point x="759" y="922"/>
      <point x="656" y="974"/>
      <point x="578" y="974" type="qcurve" smooth="yes"/>
      <point x="498" y="974"/>
      <point x="384" y="924"/>
      <point x="313" y="849"/>
      <point x="295" y="810" type="qcurve"/>
      <point x="122" y="867" type="line"/>
      <point x="165" y="969"/>
      <point x="311" y="1084"/>
      <point x="487" y="1132"/>
      <point x="573" y="1132" type="qcurve" smooth="yes"/>
      <point x="638" y="1132"/>
      <point x="790" y="1097"/>
      <point x="921" y="990"/>
      <point x="953" y="883" type="qcurve"/>
      <point x="918" y="203" type="line"/>
      <point x="898" y="203" type="line"/>
      <point x="881" y="156"/>
      <point x="799" y="73"/>
      <point x="683" y="10"/>
      <point x="545" y="-26"/>
    </contour>
  </outline>
</glyph>
<glyph name="eth" format="2">
  <advance width="1186"/>
  <unicode hex="00F0"/>
  <outline>
    <contour>
      <point x="966" y="1416" type="line"/>
      <point x="370" y="1128" type="line"/>
      <point x="320" y="1236" type="line"/>
      <point x="916" y="1524" type="line"/>
    </contour>
    <contour>
      <point x="594" y="-24" type="qcurve"/>
      <point x="444" y="-23"/>
      <point x="224" y="115"/>
      <point x="104" y="357"/>
      <point x="104" y="512" type="qcurve" smooth="yes"/>
      <point x="104" y="671"/>
      <point x="224" y="912"/>
      <point x="427" y="1048"/>
      <point x="550" y="1048" type="qcurve" smooth="yes"/>
      <point x="635" y="1048"/>
      <point x="761" y="989"/>
      <point x="848" y="902"/>
      <point x="872" y="858" type="qcurve"/>
      <point x="888" y="858" type="line"/>
      <point x="856" y="949"/>
      <point x="727" y="1161"/>
      <point x="505" y="1372"/>
      <point x="332" y="1460" type="qcurve"/>
      <point x="408" y="1582" type="line"/>
      <point x="530" y="1519"/>
      <point x="769" y="1323"/>
      <point x="965" y="1061"/>
      <point x="1082" y="737"/>
      <point x="1082" y="546" type="qcurve" smooth="yes"/>
      <point x="1082" y="366"/>
      <point x="960" y="111"/>
      <point x="741" y="-23"/>
    </contour>
    <contour>
      <point x="594" y="130" type="qcurve"/>
      <point x="700" y="131"/>
      <point x="843" y="230"/>
      <point x="916" y="397"/>
      <point x="916" y="500" type="qcurve" smooth="yes"/>
      <point x="916" y="595"/>
      <point x="850" y="781"/>
      <point x="709" y="904"/>
      <point x="594" y="904" type="qcurve" smooth="yes"/>
      <point x="488" y="904"/>
      <point x="346" y="795"/>
      <point x="276" y="617"/>
      <point x="276" y="512" type="qcurve" smooth="yes"/>
      <point x="276" y="413"/>
      <point x="341" y="239"/>
      <point x="482" y="131"/>
    </contour>
  </outline>
</glyph>
<glyph name="divide" format="2">
  <advance width="1355"/>
  <unicode hex="00F7"/>
  <outline>
    <contour>
      <point x="1147" y="668" type="line"/>
      <point x="1147" y="498" type="line"/>
      <point x="210" y="498" type="line"/>
      <point x="210" y="668" type="line"/>
    </contour>
    <contour>
      <point x="677" y="72" type="qcurve" smooth="yes"/>
      <point x="622" y="72"/>
      <point x="544" y="150"/>
      <point x="544" y="205" type="qcurve" smooth="yes"/>
      <point x="544" y="259"/>
      <point x="622" y="336"/>
      <point x="677" y="336" type="qcurve" smooth="yes"/>
      <point x="732" y="336"/>
      <point x="809" y="259"/>
      <point x="809" y="205" type="qcurve" smooth="yes"/>
      <point x="809" y="150"/>
      <point x="732" y="72"/>
    </contour>
    <contour>
      <point x="677" y="830" type="qcurve" smooth="yes"/>
      <point x="622" y="830"/>
      <point x="544" y="907"/>
      <point x="544" y="963" type="qcurve" smooth="yes"/>
      <point x="544" y="1017"/>
      <point x="622" y="1095"/>
      <point x="677" y="1095" type="qcurve" smooth="yes"/>
      <point x="732" y="1095"/>
      <point x="809" y="1017"/>
      <point x="809" y="963" type="qcurve" smooth="yes"/>
      <point x="809" y="907"/>
      <point x="732" y="830"/>
    </contour>
  </outline>
</glyph>
<glyph name="thorn" format="2">
  <advance width="1254"/>
  <unicode hex="00FE"/>
  <outline>
    <contour>
      <point x="677" y="-24" type="curve" smooth="yes"/>
      <point x="606" y="-24"/>
      <point x="549" y="-12"/>
      <point x="506" y="13" type="curve" smooth="yes"/>
      <point x="463" y="37"/>
      <point x="429" y="65"/>
      <point x="406" y="96" type="curve" smooth="yes"/>
      <point x="383" y="127"/>
      <point x="365" y="152"/>
      <point x="352" y="173" type="curve"/>
      <point x="338" y="173" type="line"/>
      <point x="338" y="-418" type="line"/>
      <point x="158" y="-418" type="line"/>
      <point x="158" y="1490" type="line"/>
      <point x="338" y="1490" type="line"/>
      <point x="338" y="939" type="line"/>
      <point x="352" y="939" type="line"/>
      <point x="365" y="959"/>
      <point x="382" y="984"/>
      <point x="405" y="1015" type="curve" smooth="yes"/>
      <point x="428" y="1045"/>
      <point x="460" y="1072"/>
      <point x="503" y="1096" type="curve" smooth="yes"/>
      <point x="546" y="1120"/>
      <point x="603" y="1132"/>
      <point x="676" y="1132" type="curve" smooth="yes"/>
      <point x="769" y="1132"/>
      <point x="852" y="1109"/>
      <point x="923" y="1062" type="curve" smooth="yes"/>
      <point x="994" y="1015"/>
      <point x="1049" y="949"/>
      <point x="1090" y="863" type="curve" smooth="yes"/>
      <point x="1130" y="776"/>
      <point x="1150" y="674"/>
      <point x="1150" y="556" type="curve" smooth="yes"/>
      <point x="1150" y="437"/>
      <point x="1130" y="335"/>
      <point x="1090" y="248" type="curve" smooth="yes"/>
      <point x="1010" y="75"/>
      <point x="864" y="-24"/>
    </contour>
    <contour>
      <point x="650" y="137" type="curve" smooth="yes"/>
      <point x="720" y="137"/>
      <point x="779" y="156"/>
      <point x="826" y="194" type="curve" smooth="yes"/>
      <point x="920" y="269"/>
      <point x="967" y="402"/>
      <point x="967" y="558" type="curve" smooth="yes"/>
      <point x="967" y="635"/>
      <point x="955" y="705"/>
      <point x="932" y="768" type="curve" smooth="yes"/>
      <point x="885" y="892"/>
      <point x="791" y="971"/>
      <point x="650" y="971" type="curve" smooth="yes"/>
      <point x="581" y="971"/>
      <point x="524" y="954"/>
      <point x="477" y="919" type="curve" smooth="yes"/>
      <point x="384" y="850"/>
      <point x="336" y="723"/>
      <point x="336" y="558" type="curve" smooth="yes"/>
      <point x="336" y="475"/>
      <point x="348" y="402"/>
      <point x="372" y="339" type="curve" smooth="yes"/>
      <point x="420" y="212"/>
      <point x="515" y="137"/>
    </contour>
  </outline>
</glyph>
<glyph name="Hbar" format="2">
  <advance width="1590"/>
  <unicode hex="0126"/>
  <anchor x="984" y="0" name="m.uni0326"/>
  <anchor x="984" y="1490" name="m.uni030F_1"/>
  <anchor x="549" y="1" name="m.uni0327_3"/>
  <outline>
    <contour>
      <point x="1492" y="1176" type="line"/>
      <point x="1492" y="1024" type="line"/>
      <point x="98" y="1024" type="line"/>
      <point x="98" y="1176" type="line"/>
    </contour>
    <contour>
      <point x="218" y="0" type="line"/>
      <point x="218" y="1490" type="line"/>
      <point x="408" y="1490" type="line"/>
      <point x="408" y="846" type="line"/>
      <point x="1190" y="846" type="line"/>
      <point x="1190" y="1490" type="line"/>
      <point x="1380" y="1490" type="line"/>
      <point x="1380" y="0" type="line"/>
      <point x="1190" y="0" type="line"/>
      <point x="1190" y="678" type="line"/>
      <point x="408" y="678" type="line"/>
      <point x="408" y="0" type="line"/>
    </contour>
  </outline>
</glyph>
<glyph name="dotlessi" format="2">
  <advance width="486"/>
  <unicode hex="0131"/>
  <anchor x="360" y="0" name="m.uni0326"/>
  <anchor x="356" y="1180" name="m.uni030F_1"/>
  <anchor x="610" y="0" name="m.uni0328_4"/>
  <outline>
    <contour>
      <point x="158" y="0" type="line"/>
      <point x="158" y="1118" type="line"/>
      <point x="328" y="1118" type="line"/>
      <point x="328" y="0" type="line"/>
    </contour>
  </outline>
</glyph>
<glyph name="kgreenlandic" format="2">
  <advance width="1061"/>
  <unicode hex="0138"/>
  <outline>
    <contour>
      <point x="328" y="1118" type="line"/>
      <point x="328" y="0" type="line"/>
      <point x="158" y="0" type="line"/>
      <point x="158" y="1118" type="line"/>
    </contour>
    <contour>
      <point x="1033" y="1118" type="line"/>
      <point x="491" y="478" type="line"/>
      <point x="260" y="478" type="line"/>
      <point x="260" y="638" type="line"/>
      <point x="428" y="638" type="line"/>
      <point x="826" y="1118" type="line"/>
    </contour>
    <contour>
      <point x="816" y="0" type="line"/>
      <point x="400" y="486" type="line"/>
      <point x="485" y="628" type="line"/>
      <point x="1027" y="0" type="line"/>
    </contour>
  </outline>
</glyph>
<glyph name="Eng" format="2">
  <advance width="1543"/>
  <unicode hex="014A"/>
  <anchor x="864" y="0" name="m.uni0326"/>
  <anchor x="864" y="1490" name="m.uni030F_1"/>
  <outline>
    <contour>
      <point x="979" y="-418" type="curve"/>
      <point x="979" y="-259" type="line"/>
      <point x="1002" y="-263"/>
      <point x="1023" y="-264"/>
      <point x="1038" y="-264" type="curve" smooth="yes"/>
      <point x="1149" y="-264"/>
      <point x="1184" y="-232"/>
      <point x="1184" y="-163" type="curve" smooth="yes"/>
      <point x="1184" y="128" type="line"/>
      <point x="1374" y="128" type="line"/>
      <point x="1374" y="-171" type="line" smooth="yes"/>
      <point x="1374" y="-336"/>
      <point x="1274" y="-427"/>
      <point x="1083" y="-427" type="curve" smooth="yes"/>
      <point x="1040" y="-427"/>
      <point x="999" y="-423"/>
    </contour>
    <contour>
      <point x="180" y="0" type="line"/>
      <point x="180" y="1490" type="line"/>
      <point x="404" y="1490" type="line"/>
      <point x="1010" y="537" type="line" smooth="yes"/>
      <point x="1026" y="512"/>
      <point x="1045" y="481"/>
      <point x="1068" y="442" type="curve" smooth="yes"/>
      <point x="1113" y="365"/>
      <point x="1168" y="266"/>
      <point x="1219" y="155" type="curve"/>
      <point x="1192" y="155" type="line"/>
      <point x="1186" y="212"/>
      <point x="1182" y="267"/>
      <point x="1179" y="320" type="curve" smooth="yes"/>
      <point x="1176" y="372"/>
      <point x="1175" y="420"/>
      <point x="1174" y="464" type="curve" smooth="yes"/>
      <point x="1173" y="508"/>
      <point x="1173" y="545"/>
      <point x="1173" y="576" type="curve" smooth="yes"/>
      <point x="1173" y="1490" type="line"/>
      <point x="1363" y="1490" type="line"/>
      <point x="1363" y="0" type="line"/>
      <point x="1137" y="0" type="line"/>
      <point x="597" y="848" type="line" smooth="yes"/>
      <point x="572" y="887"/>
      <point x="548" y="928"/>
      <point x="523" y="970" type="curve" smooth="yes"/>
      <point x="498" y="1011"/>
      <point x="469" y="1061"/>
      <point x="437" y="1118" type="curve" smooth="yes"/>
      <point x="405" y="1175"/>
      <point x="365" y="1245"/>
      <point x="318" y="1329" type="curve"/>
      <point x="353" y="1329" type="line"/>
      <point x="356" y="1255"/>
      <point x="359" y="1187"/>
      <point x="362" y="1124" type="curve" smooth="yes"/>
      <point x="367" y="999"/>
      <point x="371" y="903"/>
      <point x="371" y="850" type="curve" smooth="yes"/>
      <point x="371" y="0" type="line"/>
    </contour>
  </outline>
</glyph>
<glyph name="eng" format="2">
  <advance width="1200"/>
  <unicode hex="014B"/>
  <anchor x="750" y="0" name="m.uni0326"/>
  <anchor x="752" y="1180" name="m.uni030F_1"/>
  <outline>
    <contour>
      <point x="658" y="-418" type="qcurve"/>
      <point x="658" y="-266" type="line"/>
      <point x="672" y="-268"/>
      <point x="712" y="-270"/>
      <point x="724" y="-270" type="qcurve" smooth="yes"/>
      <point x="809" y="-270"/>
      <point x="872" y="-220"/>
      <point x="872" y="-168" type="qcurve" smooth="yes"/>
      <point x="872" y="0" type="line"/>
      <point x="1042" y="0" type="line"/>
      <point x="1042" y="-176" type="line" smooth="yes"/>
      <point x="1042" y="-297"/>
      <point x="897" y="-426"/>
      <point x="758" y="-426" type="qcurve" smooth="yes"/>
      <point x="724" y="-426"/>
      <point x="671" y="-421"/>
    </contour>
    <contour>
      <point x="328" y="672" type="qcurve" smooth="yes"/>
      <point x="328" y="0" type="line"/>
      <point x="158" y="0" type="line"/>
      <point x="158" y="1118" type="line"/>
      <point x="322" y="1118" type="line"/>
      <point x="322" y="848" type="line"/>
      <point x="297" y="848" type="line"/>
      <point x="348" y="1003"/>
      <point x="537" y="1132"/>
      <point x="664" y="1132" type="qcurve" smooth="yes"/>
      <point x="777" y="1132"/>
      <point x="947" y="1040"/>
      <point x="1042" y="853"/>
      <point x="1042" y="710" type="qcurve" smooth="yes"/>
      <point x="1042" y="0" type="line"/>
      <point x="872" y="0" type="line"/>
      <point x="872" y="698" type="line" smooth="yes"/>
      <point x="872" y="829"/>
      <point x="734" y="978"/>
      <point x="615" y="978" type="qcurve" smooth="yes"/>
      <point x="534" y="978"/>
      <point x="404" y="906"/>
      <point x="328" y="770"/>
    </contour>
  </outline>
</glyph>
<glyph name="OE" format="2">
  <advance width="2058"/>
  <unicode hex="0152"/>
  <anchor x="1552" y="0" name="m.uni0326"/>
  <anchor x="1552" y="1490" name="m.uni030F_1"/>
  <anchor x="1530" y="0" name="m.uni0327_3"/>
  <anchor x="2150" y="0" name="m.uni0328_4"/>
  <outline>
    <contour>
      <point x="791" y="0" type="line" smooth="yes"/>
      <point x="660" y="0"/>
      <point x="545" y="31"/>
      <point x="444" y="94" type="curve" smooth="yes"/>
      <point x="343" y="156"/>
      <point x="265" y="243"/>
      <point x="208" y="355" type="curve" smooth="yes"/>
      <point x="151" y="466"/>
      <point x="122" y="596"/>
      <point x="122" y="744" type="curve" smooth="yes"/>
      <point x="122" y="894"/>
      <point x="151" y="1025"/>
      <point x="208" y="1137" type="curve" smooth="yes"/>
      <point x="265" y="1248"/>
      <point x="343" y="1335"/>
      <point x="444" y="1397" type="curve" smooth="yes"/>
      <point x="545" y="1459"/>
      <point x="660" y="1490"/>
      <point x="791" y="1490" type="curve" smooth="yes"/>
      <point x="1079" y="1490" type="line"/>
      <point x="1079" y="1322" type="line"/>
      <point x="791" y="1322" type="line" smooth="yes"/>
      <point x="695" y="1322"/>
      <point x="611" y="1298"/>
      <point x="538" y="1251" type="curve" smooth="yes"/>
      <point x="465" y="1204"/>
      <point x="409" y="1137"/>
      <point x="368" y="1051" type="curve" smooth="yes"/>
      <point x="327" y="964"/>
      <point x="307" y="862"/>
      <point x="307" y="744" type="curve" smooth="yes"/>
      <point x="307" y="628"/>
      <point x="327" y="527"/>
      <point x="368" y="441" type="curve" smooth="yes"/>
      <point x="409" y="354"/>
      <point x="465" y="287"/>
      <point x="538" y="240" type="curve" smooth="yes"/>
      <point x="611" y="192"/>
      <point x="695" y="168"/>
      <point x="791" y="168" type="curve" smooth="yes"/>
      <point x="1079" y="168" type="line"/>
      <point x="1079" y="0" type="line"/>
    </contour>
    <contour>
      <point x="1007" y="0" type="line"/>
      <point x="1007" y="1490" type="line"/>
      <point x="1915" y="1490" type="line"/>
      <point x="1915" y="1322" type="line"/>
      <point x="1197" y="1322" type="line"/>
      <point x="1197" y="836" type="line"/>
      <point x="1866" y="836" type="line"/>
      <point x="1866" y="668" type="line"/>
      <point x="1197" y="668" type="line"/>
      <point x="1197" y="168" type="line"/>
      <point x="1924" y="168" type="line"/>
      <point x="1924" y="0" type="line"/>
    </contour>
  </outline>
</glyph>
<glyph name="tbar" format="2">
  <advance width="692"/>
  <unicode hex="0167"/>
  <outline>
    <contour>
      <point x="642" y="745" type="line"/>
      <point x="642" y="599" type="line"/>
      <point x="64" y="599" type="line"/>
      <point x="64" y="745" type="line"/>
    </contour>
    <contour>
      <point x="188" y="1384" type="line"/>
      <point x="358" y="1384" type="line"/>
      <point x="358" y="287" type="line" smooth="yes"/>
      <point x="358" y="210"/>
      <point x="420" y="139"/>
      <point x="492" y="139" type="qcurve" smooth="yes"/>
      <point x="509" y="139"/>
      <point x="562" y="147"/>
      <point x="584" y="151" type="qcurve"/>
      <point x="620" y="6" type="line"/>
      <point x="596" y="-3"/>
      <point x="527" y="-14"/>
      <point x="492" y="-14" type="qcurve" smooth="yes"/>
      <point x="349" y="-14"/>
      <point x="188" y="138"/>
      <point x="188" y="274" type="qcurve" smooth="yes"/>
    </contour>
    <contour>
      <point x="598" y="1118" type="line"/>
      <point x="598" y="972" type="line"/>
      <point x="20" y="972" type="line"/>
      <point x="20" y="1118" type="line"/>
    </contour>
  </outline>
</glyph>
<glyph name="Bhook" format="2">
  <advance width="1612"/>
  <unicode hex="0181"/>
  <outline>
    <contour>
      <point x="66" y="1118" type="line"/>
      <point x="66" y="1192" type="line" smooth="yes"/>
      <point x="66" y="1341"/>
      <point x="215" y="1490"/>
      <point x="364" y="1490" type="qcurve" smooth="yes"/>
      <point x="460" y="1490" type="line"/>
      <point x="460" y="1330" type="line"/>
      <point x="366" y="1330" type="line" smooth="yes"/>
      <point x="299" y="1330"/>
      <point x="236" y="1264"/>
      <point x="236" y="1192" type="qcurve" smooth="yes"/>
      <point x="236" y="1118" type="line"/>
    </contour>
    <contour>
      <point x="460" y="0" type="line"/>
      <point x="460" y="1490" type="line"/>
      <point x="982" y="1490" type="line" smooth="yes"/>
      <point x="1137" y="1490"/>
      <point x="1339" y="1383"/>
      <point x="1438" y="1203"/>
      <point x="1438" y="1094" type="qcurve" smooth="yes"/>
      <point x="1438" y="998"/>
      <point x="1370" y="873"/>
      <point x="1260" y="800"/>
      <point x="1196" y="782" type="qcurve"/>
      <point x="1196" y="768" type="line"/>
      <point x="1265" y="764"/>
      <point x="1403" y="676"/>
      <point x="1496" y="514"/>
      <point x="1496" y="396" type="qcurve" smooth="yes"/>
      <point x="1496" y="284"/>
      <point x="1394" y="105"/>
      <point x="1175" y="0"/>
      <point x="998" y="0" type="qcurve" smooth="yes"/>
    </contour>
    <contour>
      <point x="640" y="160" type="line"/>
      <point x="998" y="160" type="line" smooth="yes"/>
      <point x="1175" y="160"/>
      <point x="1324" y="298"/>
      <point x="1324" y="396" type="qcurve" smooth="yes"/>
      <point x="1324" y="472"/>
      <point x="1247" y="600"/>
      <point x="1105" y="678"/>
      <point x="1008" y="678" type="qcurve" smooth="yes"/>
      <point x="640" y="678" type="line"/>
    </contour>
    <contour>
      <point x="640" y="834" type="line"/>
      <point x="976" y="834" type="line" smooth="yes"/>
      <point x="1057" y="834"/>
      <point x="1189" y="899"/>
      <point x="1266" y="1016"/>
      <point x="1266" y="1094" type="qcurve" smooth="yes"/>
      <point x="1266" y="1192"/>
      <point x="1130" y="1330"/>
      <point x="982" y="1330" type="qcurve" smooth="yes"/>
      <point x="640" y="1330" type="line"/>
    </contour>
  </outline>
</glyph>
<glyph name="uni0181" format="2">
  <advance width="1620"/>
  <unicode hex="0181"/>
  <anchor x="1371" y="0" name="m.uni0326"/>
  <anchor x="1383" y="1490" name="m.uni030F_1"/>
  <outline>
    <contour>
      <point x="60" y="1114" type="line"/>
      <point x="60" y="1188" type="line" smooth="yes"/>
      <point x="60" y="1340"/>
      <point x="214" y="1490"/>
      <point x="368" y="1490" type="qcurve" smooth="yes"/>
      <point x="460" y="1490" type="line"/>
      <point x="460" y="1323" type="line"/>
      <point x="369" y="1323" type="line" smooth="yes"/>
      <point x="302" y="1323"/>
      <point x="238" y="1257"/>
      <point x="238" y="1186" type="qcurve" smooth="yes"/>
      <point x="238" y="1114" type="line"/>
    </contour>
    <contour>
      <point x="460" y="0" type="line"/>
      <point x="460" y="1490" type="line"/>
      <point x="988" y="1490" type="line" smooth="yes"/>
      <point x="1144" y="1490"/>
      <point x="1347" y="1383"/>
      <point x="1446" y="1204"/>
      <point x="1446" y="1095" type="qcurve" smooth="yes"/>
      <point x="1446" y="999"/>
      <point x="1378" y="874"/>
      <point x="1267" y="800"/>
      <point x="1202" y="782" type="qcurve"/>
      <point x="1202" y="768" type="line"/>
      <point x="1272" y="764"/>
      <point x="1411" y="676"/>
      <point x="1504" y="514"/>
      <point x="1504" y="397" type="qcurve" smooth="yes"/>
      <point x="1504" y="285"/>
      <point x="1401" y="105"/>
      <point x="1181" y="0"/>
      <point x="1005" y="0" type="qcurve" smooth="yes"/>
    </contour>
    <contour>
      <point x="650" y="168" type="line"/>
      <point x="1000" y="168" type="line" smooth="yes"/>
      <point x="1174" y="168"/>
      <point x="1321" y="302"/>
      <point x="1321" y="399" type="qcurve" smooth="yes"/>
      <point x="1321" y="474"/>
      <point x="1245" y="600"/>
      <point x="1106" y="676"/>
      <point x="1010" y="676" type="qcurve" smooth="yes"/>
      <point x="650" y="676" type="line"/>
    </contour>
    <contour>
      <point x="650" y="836" type="line"/>
      <point x="978" y="836" type="line" smooth="yes"/>
      <point x="1058" y="836"/>
      <point x="1188" y="899"/>
      <point x="1264" y="1014"/>
      <point x="1264" y="1091" type="qcurve" smooth="yes"/>
      <point x="1264" y="1188"/>
      <point x="1129" y="1322"/>
      <point x="984" y="1322" type="qcurve" smooth="yes"/>
      <point x="650" y="1322" type="line"/>
    </contour>
  </outline>
</glyph>
<glyph name="Btopbar" format="2">
  <advance width="1344"/>
  <unicode hex="0182"/>
  <outline>
    <contour>
      <point x="180" y="0" type="line"/>
      <point x="180" y="1490" type="line"/>
      <point x="1087" y="1490" type="line"/>
      <point x="1087" y="1323" type="line"/>
      <point x="370" y="1323" type="line"/>
      <point x="370" y="870" type="line"/>
      <point x="738" y="870" type="line" smooth="yes"/>
      <point x="846" y="870"/>
      <point x="937" y="853"/>
      <point x="1012" y="818" type="curve" smooth="yes"/>
      <point x="1161" y="748"/>
      <point x="1240" y="616"/>
      <point x="1240" y="443" type="curve" smooth="yes"/>
      <point x="1240" y="356"/>
      <point x="1221" y="279"/>
      <point x="1182" y="212" type="curve" smooth="yes"/>
      <point x="1105" y="79"/>
      <point x="954" y="0"/>
      <point x="738" y="0" type="curve" smooth="yes"/>
    </contour>
    <contour>
      <point x="370" y="165" type="line"/>
      <point x="738" y="165" type="line" smooth="yes"/>
      <point x="805" y="165"/>
      <point x="862" y="178"/>
      <point x="909" y="205" type="curve" smooth="yes"/>
      <point x="1002" y="258"/>
      <point x="1052" y="350"/>
      <point x="1052" y="445" type="curve" smooth="yes"/>
      <point x="1052" y="516"/>
      <point x="1025" y="576"/>
      <point x="971" y="627" type="curve" smooth="yes"/>
      <point x="917" y="678"/>
      <point x="839" y="703"/>
      <point x="738" y="703" type="curve" smooth="yes"/>
      <point x="370" y="703" type="line"/>
    </contour>
  </outline>
</glyph>
<glyph name="Tonesix" format="2">
  <advance width="1464"/>
  <unicode hex="0184"/>
  <outline>
    <contour>
      <point x="550" y="1490" type="line"/>
      <point x="550" y="1330" type="line"/>
      <point x="20" y="1330" type="line"/>
      <point x="20" y="1490" type="line"/>
    </contour>
    <contour>
      <point x="504" y="864" type="line"/>
      <point x="928" y="864" type="line" smooth="yes"/>
      <point x="1088" y="864"/>
      <point x="1308" y="760"/>
      <point x="1422" y="569"/>
      <point x="1422" y="440" type="qcurve" smooth="yes"/>
      <point x="1422" y="310"/>
      <point x="1308" y="112"/>
      <point x="1088" y="0"/>
      <point x="928" y="0" type="qcurve" smooth="yes"/>
      <point x="370" y="0" type="line"/>
      <point x="370" y="1490" type="line"/>
      <point x="550" y="1490" type="line"/>
      <point x="550" y="158" type="line"/>
      <point x="928" y="158" type="line" smooth="yes"/>
      <point x="1030" y="158"/>
      <point x="1172" y="239"/>
      <point x="1246" y="370"/>
      <point x="1246" y="442" type="qcurve" smooth="yes"/>
      <point x="1246" y="549"/>
      <point x="1081" y="704"/>
      <point x="928" y="704" type="qcurve" smooth="yes"/>
      <point x="504" y="704" type="line"/>
    </contour>
  </outline>
</glyph>
